<?xml version="1.0" encoding="utf-8"?>
<!-- Generator: Adobe Illustrator 23.0.1, SVG Export Plug-In . SVG Version: 6.00 Build 0)  -->
<svg version="1.1" id="Layer_1" xmlns="http://www.w3.org/2000/svg" xmlns:xlink="http://www.w3.org/1999/xlink" x="0px" y="0px"
	 viewBox="0 0 320 100" style="enable-background:new 0 0 320 100;" xml:space="preserve">
<style type="text/css">
	.st0{opacity:0.15;}
	.st1{fill:#0050FF;}
	.st2{fill:#231F20;}
</style>
<g>
	<g>
		<path class="st0" d="M55.84,90.01c-22.06,0-40-17.94-40-40s17.94-40,40-40s40,17.94,40,40S77.9,90.01,55.84,90.01z M55.84,13.11
			c-20.35,0-36.9,16.55-36.9,36.9c0,20.35,16.55,36.9,36.9,36.9s36.9-16.55,36.9-36.9C92.74,29.66,76.19,13.11,55.84,13.11z"/>
		<path class="st1" d="M55.84,89.99c-22.06,0-40-17.94-40-40s17.94-40,40-40c11.08,0,21.76,4.66,29.3,12.77l-2.27,2.11
			c-6.96-7.49-16.81-11.78-27.03-11.78c-20.35,0-36.9,16.55-36.9,36.9c0,20.35,16.55,36.9,36.9,36.9c10.19,0,20.03-4.28,26.99-11.74
			l2.27,2.12C77.56,85.35,66.9,89.99,55.84,89.99z"/>
		<polygon class="st1" points="69.91,51.93 54.23,51.93 54.23,27.9 57.33,27.9 57.33,48.83 69.91,48.83 		"/>
	</g>
	<g>
		<path class="st2" d="M111.43,68.2c0-3.66,2.7-6.16,6.08-6.16c2.16,0,3.63,1.02,4.57,2.36l-1.25,0.7c-0.68-1-1.91-1.73-3.32-1.73
			c-2.55,0-4.54,2-4.54,4.84c0,2.82,1.98,4.84,4.54,4.84c1.41,0,2.64-0.71,3.32-1.73l1.27,0.7c-1,1.36-2.43,2.36-4.59,2.36
			C114.13,74.37,111.43,71.86,111.43,68.2z"/>
		<path class="st2" d="M137.8,68.69l-6.97,0l0,5.47l-1.48,0l0-11.92l1.48,0l0,5.13l6.97,0l0-5.13l1.48,0l0,11.92l-1.48,0
			L137.8,68.69z"/>
		<path class="st2" d="M151.29,69.42l-2.38,0l0,4.73l-1.48,0l0-11.92l4.79,0c2.18,0,3.73,1.39,3.73,3.59c0,2.14-1.47,3.32-3.09,3.47
			l3.21,4.86l-1.75,0L151.29,69.42z M152.04,63.56l-3.13,0l0,4.56l3.13,0c1.41,0,2.38-0.95,2.38-2.29
			C154.42,64.49,153.45,63.56,152.04,63.56z"/>
		<path class="st2" d="M169.09,62.05c3.52,0,5.91,2.65,5.91,6.17c0,3.52-2.39,6.16-5.91,6.16c-3.54,0-5.91-2.65-5.91-6.16
			C163.17,64.69,165.55,62.05,169.09,62.05z M169.09,63.37c-2.68,0-4.38,2.05-4.38,4.84c0,2.77,1.7,4.84,4.38,4.84
			c2.66,0,4.38-2.07,4.38-4.84C173.46,65.43,171.75,63.37,169.09,63.37z"/>
		<path class="st2" d="M184.16,64.55l0,9.61l-1.48,0l0-11.92l1.52,0l6.86,9.42l0-9.42l1.48,0l0,11.92l-1.43,0L184.16,64.55z"/>
		<path class="st2" d="M206.1,62.05c3.52,0,5.91,2.65,5.91,6.16c0,3.52-2.4,6.16-5.91,6.16c-3.54,0-5.91-2.65-5.91-6.16
			C200.19,64.7,202.57,62.05,206.1,62.05z M206.1,63.38c-2.68,0-4.38,2.05-4.38,4.84c0,2.77,1.7,4.84,4.38,4.84
			c2.66,0,4.38-2.07,4.38-4.84C210.48,65.43,208.77,63.38,206.1,63.38z"/>
	</g>
	<g>
		<path class="st2" d="M231.7,62.33l1.48,0l0.02,10.59l5.54-0.01l0,1.32l-7.02,0.01L231.7,62.33z"/>
		<path class="st2" d="M250.99,62.09c3.52-0.01,5.92,2.63,5.93,6.15c0.01,3.52-2.38,6.17-5.9,6.18c-3.54,0.01-5.92-2.63-5.93-6.15
			C245.09,64.75,247.46,62.1,250.99,62.09z M251,63.42c-2.68,0.01-4.37,2.06-4.37,4.85c0.01,2.77,1.71,4.84,4.39,4.83
			c2.66-0.01,4.37-2.08,4.37-4.85C255.38,65.46,253.66,63.41,251,63.42z"/>
		<path class="st2" d="M270.22,62.06c2.11,0,3.57,0.92,4.63,2.22l-1.18,0.73c-0.75-0.96-2.02-1.64-3.45-1.64
			c-2.61,0.01-4.59,2.01-4.58,4.85c0.01,2.82,1.99,4.86,4.6,4.85c1.43,0,2.61-0.7,3.19-1.29l0-2.43l-4.09,0.01l0-1.32l5.57-0.01
			l0.01,4.31c-1.11,1.23-2.73,2.06-4.68,2.06c-3.39,0.01-6.13-2.47-6.14-6.17C264.09,64.53,266.82,62.06,270.22,62.06z"/>
		<path class="st2" d="M282.67,62.23l1.48,0l0.02,11.92l-1.48,0L282.67,62.23z"/>
		<path class="st2" d="M291.81,68.18c-0.01-3.66,2.69-6.17,6.06-6.18c2.16,0,3.63,1.01,4.58,2.35l-1.25,0.7
			c-0.68-1-1.92-1.73-3.33-1.73c-2.55,0.01-4.53,2.01-4.53,4.85c0.01,2.82,1.99,4.84,4.55,4.83c1.41,0,2.64-0.72,3.32-1.74
			l1.27,0.69c-1,1.36-2.43,2.36-4.59,2.37C294.52,74.33,291.82,71.84,291.81,68.18z"/>
	</g>
	<g>
		<path class="st1" d="M131.67,52.17l-3.29-7.73h-10.59l-3.25,7.73h-3.11l10.44-24.4h2.58l10.39,24.4H131.67z M127.42,41.9
			l-3.07-7.53c-0.4-0.95-0.81-2.12-1.23-3.51c-0.27,1.06-0.64,2.23-1.14,3.51l-3.11,7.53H127.42z"/>
		<path class="st1" d="M157.42,27.87v15.72c0,2.77-0.91,4.95-2.73,6.53c-1.82,1.59-4.32,2.38-7.5,2.38s-5.64-0.8-7.38-2.39
			c-1.74-1.6-2.61-3.79-2.61-6.58V27.87h3.07v15.86c0,2.03,0.6,3.58,1.81,4.67c1.2,1.09,2.97,1.63,5.31,1.63
			c2.23,0,3.94-0.55,5.15-1.64c1.2-1.09,1.81-2.66,1.81-4.7V27.87H157.42z"/>
		<path class="st1" d="M172.65,52.17h-3.07V30.38h-8.36v-2.51h19.8v2.51h-8.36V52.17z"/>
		<path class="st1" d="M206.9,39.99c0,3.89-1.07,6.95-3.21,9.17c-2.14,2.23-5.11,3.34-8.92,3.34c-3.89,0-6.89-1.09-9.01-3.28
			c-2.11-2.19-3.17-5.28-3.17-9.27c0-3.96,1.06-7.02,3.18-9.2c2.12-2.18,5.13-3.27,9.03-3.27c3.79,0,6.76,1.11,8.89,3.32
			C205.83,33.03,206.9,36.09,206.9,39.99z M185.85,39.99c0,3.29,0.76,5.79,2.29,7.49c1.52,1.7,3.74,2.55,6.64,2.55
			c2.93,0,5.14-0.85,6.63-2.54s2.24-4.19,2.24-7.5c0-3.27-0.74-5.75-2.23-7.44s-3.69-2.53-6.6-2.53c-2.93,0-5.15,0.85-6.67,2.55
			C186.61,34.27,185.85,36.74,185.85,39.99z"/>
		<path class="st1" d="M224.06,52.17l-8.96-21.54h-0.14c0.17,1.71,0.25,3.73,0.25,6.08v15.46h-2.84v-24.3H217l8.37,20.04h0.14
			l8.44-20.04h4.59v24.3h-3.07V36.51c0-1.79,0.08-3.75,0.25-5.85h-0.14l-9.03,21.51H224.06z"/>
		<path class="st1" d="M262.51,52.17l-3.29-7.73h-10.59l-3.25,7.73h-3.11l10.44-24.4h2.58l10.39,24.4H262.51z M258.26,41.9
			l-3.07-7.53c-0.4-0.95-0.81-2.12-1.23-3.51c-0.27,1.06-0.64,2.23-1.14,3.51l-3.11,7.53H258.26z"/>
		<path class="st1" d="M274.94,52.17h-3.07V30.38h-8.36v-2.51h19.8v2.51h-8.36V52.17z"/>
		<path class="st1" d="M301.93,52.17h-14.72v-24.3h14.72v2.51h-11.65v7.83h10.95v2.49h-10.95v8.94h11.65V52.17z"/>
	</g>
</g>
</svg>
