<svg width="33" height="36" viewBox="0 0 33 36" fill="none" xmlns="http://www.w3.org/2000/svg">
<g clip-path="url(#clip0_710_1273)">
<path d="M20.0888 16.4947L22.7323 12.0124L29.8582 23.1119L29.8619 25.2415L29.8389 10.5842C29.8303 10.4075 29.7794 10.2353 29.6905 10.0823C29.6016 9.9293 29.4773 9.79983 29.328 9.7048L16.4999 2.32535C16.3467 2.25249 16.179 2.21506 16.0093 2.21583C15.8396 2.2166 15.6723 2.25555 15.5197 2.3298C15.4799 2.34939 15.4415 2.37169 15.4047 2.39654L15.3595 2.42397L2.9052 9.63954L2.857 9.66105C2.79246 9.69102 2.73089 9.72702 2.67311 9.76856C2.54005 9.86442 2.42983 9.98852 2.35035 10.132C2.27088 10.2754 2.2241 10.4347 2.21338 10.5983L2.2334 22.5417L8.87061 12.2533C9.70628 10.889 11.5274 10.45 13.2173 10.4737L15.2008 10.5293L3.51249 29.2708L4.89392 30.0643L16.7187 10.5442L21.9485 10.5293L10.149 30.5373L15.0659 33.3677L15.6531 33.7058C15.9066 33.8064 16.1879 33.8119 16.4451 33.7213L29.4555 26.1795L26.9678 27.621L20.0888 16.4947ZM21.0973 31.023L16.1292 23.2291L19.1605 18.0853L25.682 28.3647L21.0973 31.023Z" fill="#2D374B"/>
<path d="M16.1314 23.2291L21.0973 31.023L25.6842 28.3647L19.1627 18.0853L16.1314 23.2291Z" fill="#28A0F0"/>
<path d="M29.8618 25.2378L29.8581 23.1082L22.7323 12.0124L20.0888 16.4985L26.9677 27.621L29.4547 26.1803C29.5753 26.0826 29.6739 25.9606 29.744 25.8222C29.8142 25.6838 29.8543 25.5322 29.8618 25.3772V25.2378Z" fill="#28A0F0"/>
<path d="M0 27.2466L3.5125 29.2709L15.2008 10.5294L13.2173 10.4767C11.5274 10.453 9.70628 10.8927 8.87061 12.2563L2.23341 22.5417L0 25.9719V27.2466Z" fill="white"/>
<path d="M21.947 10.5257L16.7187 10.5442L4.89023 30.0635L9.02485 32.4445L10.149 30.5374L21.947 10.5257Z" fill="white"/>
<path d="M32.0648 10.4981C32.0409 9.95865 31.886 9.43309 31.6137 8.96675C31.3414 8.50042 30.9598 8.10731 30.5017 7.8213L17.5039 0.346943C17.0399 0.118989 16.5298 0.000457764 16.0128 0.000457764C15.4958 0.000457764 14.9856 0.118989 14.5216 0.346943C14.4133 0.401814 1.88194 7.66929 1.88194 7.66929C1.70787 7.75368 1.54141 7.85291 1.38439 7.96589C0.977889 8.25499 0.642157 8.63241 0.40239 9.06982C0.162623 9.50723 0.0250508 9.99327 0 10.4915L0 25.9718L2.23267 22.5416L2.21339 10.596C2.22446 10.4324 2.27139 10.2733 2.35084 10.1299C2.43029 9.98654 2.54032 9.86238 2.67312 9.76627C2.7317 9.724 15.4774 2.34604 15.5182 2.32602C15.6708 2.25177 15.8381 2.21282 16.0078 2.21205C16.1775 2.21128 16.3452 2.24871 16.4985 2.32157L29.3265 9.70101C29.4758 9.79605 29.6001 9.92551 29.689 10.0785C29.7779 10.2316 29.8288 10.4037 29.8374 10.5804V25.3764C29.834 25.5299 29.798 25.6808 29.7318 25.8193C29.6656 25.9578 29.5706 26.0805 29.4533 26.1795L26.9663 27.6202L25.6827 28.3617L21.0958 31.02L16.4436 33.7154C16.1865 33.8067 15.9049 33.8012 15.6517 33.6998L10.1475 30.5343L9.02336 32.4415L13.9692 35.2888L14.3985 35.532C14.5839 35.6358 14.7099 35.7048 14.7544 35.7271C15.1059 35.8976 15.6116 35.997 16.0676 35.997C16.4813 35.9981 16.8914 35.9219 17.277 35.7723L30.7924 27.9472C31.1735 27.6504 31.4849 27.2738 31.7047 26.8437C31.9246 26.4137 32.0475 25.9406 32.0648 25.458V10.4981Z" fill="#96BEDC"/>
</g>
<defs>
<clipPath id="clip0_710_1273">
<rect width="32.0648" height="36" fill="white"/>
</clipPath>
</defs>
</svg>
