<?xml version="1.0" standalone="no"?>
<!DOCTYPE svg PUBLIC "-//W3C//DTD SVG 20010904//EN"
 "http://www.w3.org/TR/2001/REC-SVG-20010904/DTD/svg10.dtd">
<svg version="1.0" xmlns="http://www.w3.org/2000/svg"
 width="1400.000000pt" height="1530.000000pt" viewBox="0 0 1400.000000 1530.000000"
 preserveAspectRatio="xMidYMid meet">

<g transform="translate(0.000000,1530.000000) scale(0.100000,-0.100000)"
fill="#000000" stroke="none">
<path d="M6895 13942 c-27 -10 -81 -36 -120 -58 -219 -127 -475 -275 -510
-294 -46 -26 -240 -138 -440 -255 -151 -89 -445 -258 -510 -295 -41 -23 -150
-86 -500 -290 -110 -64 -254 -148 -320 -186 -66 -38 -129 -74 -140 -81 -11 -7
-27 -16 -35 -20 -8 -4 -91 -52 -185 -106 -93 -55 -244 -142 -335 -195 -91 -53
-225 -131 -299 -174 -73 -43 -135 -78 -137 -78 -3 0 -23 -11 -45 -26 -22 -14
-55 -33 -72 -43 -68 -38 -305 -176 -607 -351 -173 -101 -335 -194 -360 -208
-25 -14 -92 -53 -150 -87 -58 -34 -170 -99 -250 -145 -80 -45 -169 -98 -197
-116 -66 -43 -132 -126 -163 -206 -24 -62 -25 -71 -28 -413 -2 -192 -1 -1283
3 -2423 l7 -2073 82 126 c44 68 118 182 163 252 45 71 135 210 200 310 357
553 436 675 518 803 50 77 146 227 215 333 68 105 178 275 244 377 171 266
286 443 516 800 112 173 293 455 403 625 364 565 401 619 497 714 308 305 787
472 1400 487 229 6 946 -8 956 -19 3 -3 -65 -120 -152 -259 -341 -547 -1332
-2136 -1360 -2180 -124 -200 -350 -562 -1127 -1808 -489 -784 -1117 -1789
-1395 -2235 -277 -445 -533 -855 -568 -910 -34 -55 -65 -107 -69 -115 -4 -12
60 -53 267 -172 l272 -156 76 127 c155 255 856 1411 950 1566 54 88 161 266
240 395 79 129 168 278 200 330 87 145 441 729 585 965 70 116 154 253 185
305 31 52 128 212 215 355 87 143 177 292 200 330 23 39 106 176 185 305 79
129 214 352 300 495 86 143 222 366 300 495 79 129 169 278 200 330 31 52 139
230 240 395 100 165 191 314 200 330 21 37 542 896 634 1046 l34 56 489 6
c565 8 1613 9 1613 2 0 -4 -286 -492 -410 -700 -58 -97 -182 -308 -720 -1220
-470 -797 -1376 -2332 -2185 -3705 -303 -514 -744 -1261 -979 -1660 -235 -399
-428 -729 -429 -734 -1 -4 12 -16 28 -26 17 -9 138 -79 270 -155 132 -76 296
-170 365 -210 69 -40 233 -134 365 -210 132 -76 299 -172 370 -213 564 -326
810 -463 861 -478 40 -11 80 -15 135 -12 94 6 98 8 449 212 140 82 275 160
300 174 25 14 89 52 143 84 55 32 100 58 102 58 2 0 90 51 197 113 180 106
346 202 663 385 72 42 131 77 133 78 2 1 -50 84 -114 185 -64 101 -133 210
-153 241 -106 168 -191 302 -240 378 -31 47 -60 93 -66 102 -5 10 -71 112
-145 228 -174 271 -272 426 -366 575 -42 66 -113 177 -158 247 -115 181 -257
402 -286 449 -165 261 -319 503 -407 637 l-54 83 57 97 c32 53 113 192 181
307 68 116 128 217 133 225 41 67 150 252 150 255 0 3 89 154 110 185 6 8 13
22 17 30 3 8 20 38 38 65 17 28 58 96 90 153 33 57 67 116 76 130 9 15 25 43
36 62 11 19 61 103 110 185 49 83 92 157 96 165 4 8 18 33 32 55 14 22 28 46
31 52 3 7 11 10 17 6 5 -3 7 -1 3 5 -8 13 34 86 44 75 4 -4 36 -53 71 -108 77
-123 176 -279 384 -606 88 -139 169 -267 180 -285 23 -37 206 -325 427 -672
88 -137 146 -238 142 -245 -4 -6 -3 -9 1 -4 8 7 137 -184 248 -368 7 -11 21
-33 32 -50 20 -28 342 -537 368 -580 7 -11 21 -33 32 -50 11 -16 25 -38 30
-47 9 -17 293 -464 370 -583 18 -27 81 -126 140 -220 171 -272 180 -284 189
-285 5 0 66 33 135 73 69 41 179 104 244 142 66 37 121 73 123 80 3 6 -70 133
-162 281 -92 148 -207 334 -257 414 -49 80 -99 161 -112 180 -12 19 -66 105
-118 191 -53 86 -116 189 -141 228 -25 39 -46 74 -46 77 0 2 -8 17 -18 32 -27
38 -60 91 -137 217 -37 61 -82 133 -99 160 -18 28 -95 151 -171 275 -77 124
-184 297 -238 385 -55 88 -108 175 -119 194 -11 19 -37 61 -59 93 -21 33 -39
61 -39 62 0 2 -68 113 -151 247 -84 134 -195 314 -247 399 -140 228 -157 255
-226 365 -119 189 -406 656 -406 660 0 4 108 190 160 275 5 8 160 272 345 585
185 314 341 577 346 585 39 66 137 234 157 270 50 90 42 91 112 -17 35 -54 95
-147 134 -208 40 -60 109 -168 154 -240 46 -71 120 -186 164 -255 44 -69 111
-172 148 -230 36 -58 96 -150 131 -205 36 -55 104 -161 152 -235 306 -475 385
-598 452 -705 42 -66 98 -154 125 -195 49 -75 92 -143 261 -405 49 -77 116
-180 148 -230 32 -49 111 -173 176 -274 64 -102 142 -222 172 -268 30 -46 51
-88 47 -95 -4 -6 -3 -8 3 -5 5 4 77 -98 159 -226 81 -128 185 -288 229 -357
45 -69 92 -143 105 -165 l25 -40 3 440 c1 242 1 1387 0 2545 l-3 2105 -28 66
c-38 90 -109 167 -210 227 -80 48 -372 217 -452 262 -22 12 -80 46 -130 75
-114 66 -684 394 -749 430 -28 15 -73 41 -100 58 -28 16 -172 100 -321 185
-148 85 -358 206 -467 268 -108 62 -218 125 -245 140 -26 15 -92 54 -146 86
-55 32 -100 58 -102 58 -2 0 -49 27 -105 60 -56 33 -104 60 -106 60 -2 0 -21
11 -42 23 -20 13 -165 97 -322 187 -157 90 -332 191 -390 225 -58 34 -125 73
-150 87 -88 49 -569 325 -892 511 -90 52 -179 103 -198 114 -19 11 -75 43
-125 72 -49 28 -112 58 -139 66 -68 20 -198 19 -261 -3z"/>
</g>
</svg>
