<?xml version="1.0" encoding="utf-8"?>
<!-- Generator: Adobe Illustrator 24.0.2, SVG Export Plug-In . SVG Version: 6.00 Build 0)  -->
<svg version="1.1" id="Layer_1" xmlns="http://www.w3.org/2000/svg" xmlns:xlink="http://www.w3.org/1999/xlink" x="0px" y="0px"
	 viewBox="0 0 128 128" style="enable-background:new 0 0 128 128;" xml:space="preserve">
<style type="text/css">
	.st0{fill:url(#SVGID_1_);}
	.st1{fill:#FFFFFF;}
</style>
<linearGradient id="SVGID_1_" gradientUnits="userSpaceOnUse" x1="64" y1="128" x2="64" y2="-9.094947e-13">
	<stop  offset="0" style="stop-color:#005E8F"/>
	<stop  offset="1" style="stop-color:#3B3278"/>
</linearGradient>
<circle class="st0" cx="64" cy="64" r="64"/>
<g>
	<path class="st1" d="M79.4,34.9c-10.5-5.4-20.9-5.3-31.3,0.3l-5.1,3.4c-4.3,3.5-7.6,7.9-9.8,13C28.7,62,28.1,72.8,30,83.8
		c1.2,7,3,13.8,7.1,19.8c2.5,3.6,5.9,4.6,10.1,3.8c2.8-0.5,4.2-2.2,4.4-5.1c0.1-1.3,0-2.6,0.1-3.9c0.2-2.7,1.3-4.2,3.8-4.5
		c5.7-0.8,11.4-0.8,17,0c2.2,0.3,3.5,1.8,3.7,4.2c0.1,1.7,0.1,3.3,0.3,5c0.3,2.1,1.4,3.6,3.5,4.2c4.1,1.2,8.2-0.1,10.7-3.6
		c1.2-1.6,2.2-3.2,2.9-5c4.9-11.5,6.4-23.5,4.4-35.8c-1.6-10-5.8-18.7-14.1-25L79.4,34.9z M77.5,76.4c-1.2,0.4-1.7-0.7-2.3-1.5
		c-1.5-2-1.7-2-3.3-0.1c-0.9,1-1.9,1.5-3.2,1.5c-1.6,0-3.2,0-4.8,0c0,0,0,0,0,0c-1.3,0-2.6-0.1-3.9,0c-1.7,0.1-3.1-0.3-4.1-1.8
		c-0.9-1.4-1.8-1.2-2.7,0c-0.3,0.4-0.6,0.8-0.9,1.2c-0.5,0.6-1,1.1-1.8,0.8c-0.8-0.3-1-1-1-1.7c-0.1-2.3,0-4.6,0.4-6.9
		c0.7-3.8,1.8-7.4,3.5-10.9c0.6-1.2,1.1-1.5,2-0.1c1.5,2.2,1.8,2.2,3.1-0.2c0.7-1.2,1.5-1.8,2.9-1.9c1.6-0.1,3.2-0.1,4.7,0
		c1.7,0.1,2.8,0.8,3.5,2.3c0.9,1.8,1.5,1.8,2.6,0.1c1.2-1.8,1.7-1.4,2.5,0.2c2.5,5.2,3.8,10.6,3.8,16.3
		C78.7,74.7,78.8,75.9,77.5,76.4z"/>
</g>
<path class="st1" d="M46.3,33.2c-0.1-1.1,0.2-2,1-2.7c0.9-0.8,1.5-2,0.5-2.8c-1.3-1-2,0.3-2.6,1.3c-0.2,0.3-0.3,0.9-0.8,0.9
	c-0.4-0.3-0.3-0.7-0.2-1c0.4-1.1,1-2.1,1.5-3.1c0.5-1.1,0.6-2.3-0.7-2.8c-1.2-0.5-1.8,0.6-2.2,1.5c-0.3,0.8-0.5,1.8-0.8,2.7
	c-1.1-1-0.5-1.8-0.2-2.7c0.3-1,0.6-1.9,0.3-2.9c-0.2-0.7-0.6-1.4-1.4-1.4c-0.8,0-1,0.7-1.3,1.3c-0.3,0.6,0.1,1.4-0.5,2
	c-0.5-0.9-0.8-1.7-1.3-2.4c-0.7-1-1.3-2.7-2.9-1.7c-1.6,1.1-0.3,2.3,0.5,3.3c0.6,0.8,1.2,1.4,2,2.3c-1.6-0.1-3.6-1.4-3.9,0.8
	c-0.2,1.9,1.9,2,3.4,2.1c0.4,0,0.7-0.1,1.1,0c0.6,0.1,1.4,0,1.5,0.9c-1.1,0-2.2,0-3.2,0c-0.8,0-1.6,0.4-1.7,1.3
	c-0.1,1,0.7,1.6,1.6,1.7c0.7,0.1,1.4-0.1,2.1-0.2c1-0.1,2-0.4,2.9,0.2c-0.6,0.8-1.4,0.6-2,0.8c-0.9,0.3-1.7,0.8-1.3,1.9
	c0.4,0.9,1.3,1.1,2.2,0.8c0.7-0.2,1.3-0.7,2-0.7c1,0,2,0.2,2.4,1.2c0.3,0.9,0.5,3.4,3.3,1.5C50.5,35.7,46.4,34.3,46.3,33.2z"/>
<path class="st1" d="M84.3,35.1c1-0.4,2-0.2,2.9,0.3c1.1,0.6,2.3,0.6,2.7-0.7c0.3-1.2-0.8-1.6-1.9-1.8c-0.5-0.1-1.1-0.1-1.5-0.7
	c1.6-0.7,3,0,4.4,0.1c1.2,0.1,2.3-0.3,2.4-1.6c0-1.3-1.2-1.5-2.2-1.5c-0.9,0-1.9,0.1-3.2,0.1c1.5-1.5,3.1-0.8,4.4-1.2
	c1.1-0.3,2.3-0.8,2.1-2.1c-0.2-1.4-1.5-1.2-2.6-0.9c-0.3,0.1-0.6,0.3-1-0.1c0.7-0.8,1.4-1.6,2.1-2.5c0.6-0.9,1.5-1.9,0.2-2.8
	c-1.4-1-2.1,0.2-2.7,1.2c-0.6,0.9-1.1,1.8-1.6,2.8c-0.7-1.2-0.1-3.7-2.3-3.1c-1.8,0.5-1.2,2.5-0.7,4c0.1,0.4,0.4,0.8,0.4,1.2
	c0.1,0.6,0.2,1.2-0.6,1.7c-0.2-0.8-0.3-1.4-0.5-2c-0.3-1-0.6-2-1.6-2.4c-0.6-0.2-1.1,0.1-1.5,0.6c-0.6,1-0.2,1.9,0.3,2.9
	c0.4,0.7,0.7,1.4,1.1,2.1c0.2,0.4,0.5,0.9-0.3,1.4c-0.3-0.5-0.6-0.9-0.9-1.4c-0.6-0.8-1.3-1.7-2.3-0.9c-1,0.8-0.7,1.8,0.1,2.6
	c0.7,0.7,1.3,1.4,1.4,2.4c0.1,1.5-3.6,2.8-1.1,4.3C82.5,38.4,83.2,35.6,84.3,35.1z"/>
</svg>
