<?xml version="1.0" encoding="utf-8"?>
<!-- Generator: Adobe Illustrator 24.0.2, SVG Export Plug-In . SVG Version: 6.00 Build 0)  -->
<svg version="1.1" id="Layer_1" xmlns="http://www.w3.org/2000/svg" xmlns:xlink="http://www.w3.org/1999/xlink" x="0px" y="0px"
	 viewBox="0 0 128 128" style="enable-background:new 0 0 128 128;" xml:space="preserve">
<style type="text/css">
	.st0{fill:#670D35;}
	.st1{fill:#FFFFFF;}
	.st2{fill:#E6007A;}
</style>
<g>
	<circle class="st0" cx="64" cy="64" r="64"/>
</g>
<g>
	<path class="st1" d="M64.1,21.5c8.9,0.1,16.5,3.2,22.8,9.5c5.2,5.2,8.3,11.5,9.2,18.7c1.7,13.7-5.3,26.8-17.6,33
		c-3.9,2-8.1,3.1-12.5,3.3c-1.8,0.1-3.6,0.2-5.4,0.6c-4.6,1.1-7.5,4-8.6,8.6c-0.6,2.3-1,4.6-1.5,6.9c-0.5,2.4-2.8,3.9-5.3,3.4
		c-2.4-0.5-3.9-2.8-3.4-5.3c0.7-3.4,1.4-6.7,2.1-10c1.9-8.9,3.8-17.8,5.7-26.7c0.8-3.5,1.5-7.1,2.3-10.6c0.4-1.9,1.6-3.2,3.5-3.6
		c1.9-0.4,3.4,0.2,4.5,1.8c0.8,1,1,2.2,0.7,3.5c-1.3,6.1-2.7,12.3-4,18.4c-0.3,1.4-0.6,2.8-0.9,4.3c-0.2,0.7-0.1,0.8,0.7,0.7
		c2.2-0.3,4.5-0.6,6.7-0.8c2.1-0.3,4.2-0.3,6.3-0.8c9.3-2.1,16.3-9.9,17.6-19.3c1.7-12.3-6.3-23.8-18.5-26.1
		c-9.1-1.7-16.8,1.1-22.7,8.3c-5.3,6.5-6.5,13.9-3.9,21.9c0.8,2.5-0.4,5.1-2.9,5.9c-2.5,0.8-5-0.6-5.8-3.1c-2.4-7.7-2.3-15.4,1-22.9
		c4.2-9.6,11.4-15.8,21.4-18.6C58.4,21.8,61.2,21.5,64.1,21.5z"/>
	<path class="st2" d="M65.2,106.5c-3.1,0-5.4-2.3-5.4-5.3c0-3.1,2.3-5.4,5.3-5.4c3.1,0,5.4,2.3,5.4,5.4
		C70.6,104.2,68.3,106.5,65.2,106.5z"/>
</g>
</svg>
