<?xml version="1.0" encoding="UTF-8"?>
<svg width="120px" height="120px" viewBox="0 0 120 120" version="1.1" xmlns="http://www.w3.org/2000/svg" xmlns:xlink="http://www.w3.org/1999/xlink">
    <!-- Generator: Sketch 52.5 (67469) - http://www.bohemiancoding.com/sketch -->
    <title>Group 8</title>
    <desc>Created with Sketch.</desc>
    <defs>
        <polygon id="path-1" points="3.88990669e-05 0.0829090909 119.952947 0.0829090909 119.952947 119.757576 3.88990669e-05 119.757576"></polygon>
    </defs>
    <g id="Page-2" stroke="none" stroke-width="1" fill="none" fill-rule="evenodd">
        <g id="Automate_Execute" transform="translate(-380.000000, -138.000000)">
            <g id="Group-7" transform="translate(135.000000, 120.000000)">
                <g id="Group-4-Copy" transform="translate(207.000000, 0.000000)">
                    <g id="Group-8" transform="translate(38.000000, 18.000000)">
                        <g id="Group-3" transform="translate(0.000000, 0.159515)">
                            <mask id="mask-2" fill="white">
                                <use xlink:href="#path-1"></use>
                            </mask>
                            <g id="Clip-2"></g>
                            <path d="M0.373630832,52.0805818 C4.4843002,25.6379152 23.3201623,7.71694545 48.9553753,1.06555152 C55.900284,-0.736387879 67.2795943,0.47670303 67.76714,0.550642424 C101.208925,5.62506667 123.342961,34.252703 119.525842,67.5072485 C115.805355,99.9179152 84.4025963,123.888097 51.8538742,119.162036 C25.9409331,115.399127 6.15261663,96.6730667 0.93127789,71.0216727 C0.607789047,69.4325818 -0.603407708,60.4163394 0.373630832,52.0805818" id="Fill-1" fill="#670D35" mask="url(#mask-2)"></path>
                        </g>
                        <path d="M60.1925112,16.4851394 C69.3263854,16.601503 77.2028154,19.8051394 83.6857363,26.2133818 C89.050929,31.516897 92.2368925,37.9709576 93.1842353,45.4473212 C94.9681704,59.5268364 87.7319026,72.9942303 75.0235862,79.3484121 C70.9628154,81.3789576 66.6542556,82.5096242 62.1100771,82.7872 C60.2553103,82.9006545 58.3662231,82.9719273 56.5684138,83.3874424 C51.8414361,84.4798061 48.882572,87.4979879 47.6971765,92.1741091 C47.1059391,94.5057455 46.6643976,96.8744727 46.1413144,99.2235636 C45.5824503,101.733382 43.204357,103.254836 40.665858,102.741867 C38.2225314,102.247806 36.6177444,99.8330182 37.1320649,97.3338667 C37.8403813,93.8916848 38.5939716,90.4587152 39.3310101,87.0223515 C41.2899554,77.8907152 43.2493874,68.7593212 45.2110101,59.6281697 C45.9933225,55.9862303 46.778069,52.3447758 47.5696308,48.7047758 C48.0011927,46.721503 49.1907262,45.4257455 51.1971359,45.0068364 C53.1302799,44.6029576 54.7185152,45.2579879 55.8854118,46.8402909 C56.6769736,47.9137455 56.9065071,49.1425939 56.6278053,50.4366545 C55.267643,56.7476848 53.8884949,63.0548364 52.5212738,69.3644121 C52.2058174,70.8204121 51.9120243,72.2807758 51.6063043,73.7389576 C51.4449249,74.5069576 51.5478864,74.596897 52.3511318,74.4953212 C54.6515781,74.2046545 56.9539716,73.9263515 59.2563651,73.6502303 C61.4239108,73.3898667 63.6374604,73.3333818 65.7526734,72.8490182 C75.2940122,70.6650182 82.5329574,62.7074424 83.9123489,53.0645333 C85.7135659,40.4747152 77.3802596,28.6061091 64.817501,26.2684121 C55.4256146,24.5207758 47.4579067,27.4276848 41.4316187,34.8165333 C35.9870751,41.4921697 34.7729574,49.1176242 37.3956755,57.3178667 C38.2200974,59.8955636 36.9414767,62.6000485 34.4538499,63.3816242 C31.9270345,64.1758061 29.3089412,62.7714424 28.5020446,60.1886545 C26.0214767,52.2475636 26.1434239,44.3692606 29.4888195,36.7176242 C33.7866694,26.8882909 41.2298337,20.5241697 51.5953509,17.593503 C54.3979473,16.8012606 57.2725923,16.4744727 60.1925112,16.4851394" id="Fill-4" fill="#FFFFFF"></path>
                        <path d="M61.3855254,103.757624 C58.2285274,103.762473 55.8314483,101.396897 55.8314483,98.2766545 C55.8314483,95.1447758 58.2161136,92.7484121 61.3436592,92.7370182 C64.5162353,92.7256242 66.9374118,95.1164121 66.9344909,98.2579879 C66.9318134,101.368291 64.5257282,103.752776 61.3855254,103.757624" id="Fill-6" fill="#E6007A"></path>
                    </g>
                </g>
            </g>
        </g>
    </g>
</svg>