<?xml version="1.0" encoding="utf-8"?>
<!-- Generator: Adobe Illustrator 24.0.3, SVG Export Plug-In . SVG Version: 6.00 Build 0)  -->
<svg version="1.1" id="Layer_1" xmlns="http://www.w3.org/2000/svg" xmlns:xlink="http://www.w3.org/1999/xlink" x="0px" y="0px"
	 viewBox="0 0 128 128" style="enable-background:new 0 0 128 128;" xml:space="preserve">
<style type="text/css">
	.st0{fill:#111111;}
	.st1{fill:#FFFFFF;}
</style>
<g>
	<circle class="st0" cx="64" cy="64" r="64"/>
	<g>
		<g>
			<path class="st1" d="M54.9,56.7c-4.4,2.5-8.6,5-13.1,7.6c4.4,2.6,8.7,5,13.1,7.6c-1,1.7-2,3.4-3,5.2c-4.2-2.4-8.4-4.8-12.8-7.4
				c0,4.9,0,9.6,0,14.3c-2.1,0-4,0-6.1,0c0-4.8,0-9.6,0-14.7c-4.4,2.5-8.7,5-13,7.5c-1-1.7-2-3.4-3-5.2c4.2-2.4,8.4-4.8,12.7-7.4
				c-4.3-2.5-8.5-4.9-12.7-7.3c1-1.7,1.9-3.4,3-5.2c4.3,2.5,8.5,4.9,12.9,7.4c0-5.2,0-10.1,0-15.2c2,0,4,0,6.1,0c0,4.9,0,9.8,0,15
				c4.4-2.5,8.6-4.9,12.9-7.4C52.9,53.3,53.8,54.9,54.9,56.7z"/>
		</g>
	</g>
	<g>
		<path class="st1" d="M92.9,66.6c6.1,3.5,12,6.9,18.1,10.4c-1.1,1.8-2.1,3.6-3.2,5.5c-6.1-3.5-12-6.9-18.1-10.4
			C90.8,70.2,91.8,68.5,92.9,66.6z"/>
		<path class="st1" d="M71.3,82.5c-1.1-1.8-2.1-3.6-3.2-5.5c6.1-3.5,12-6.9,18.1-10.4c1.1,1.8,2.1,3.6,3.2,5.5
			C83.4,75.6,77.4,79,71.3,82.5z"/>
		<path class="st1" d="M86.5,45.6c2.1,0,4,0,6.1,0c0,6.9,0,13.7,0,20.7c-2,0-4,0-6.1,0C86.5,59.4,86.5,52.6,86.5,45.6z"/>
	</g>
</g>
</svg>
