<?xml version="1.0" encoding="utf-8"?>
<!-- Generator: Adobe Illustrator 24.0.2, SVG Export Plug-In . SVG Version: 6.00 Build 0)  -->
<svg version="1.1" id="Layer_1" xmlns="http://www.w3.org/2000/svg" xmlns:xlink="http://www.w3.org/1999/xlink" x="0px" y="0px"
	 viewBox="0 0 128 128" style="enable-background:new 0 0 128 128;" xml:space="preserve">
<style type="text/css">
	.st0{fill-rule:evenodd;clip-rule:evenodd;fill:#627EEA;}
	.st1{fill-rule:evenodd;clip-rule:evenodd;fill:#FFFFFF;}
	.st2{filter:url(#Adobe_OpacityMaskFilter);}
	.st3{mask:url(#mask-4_3_);fill-rule:evenodd;clip-rule:evenodd;fill:#FFFFFF;}
	.st4{filter:url(#Adobe_OpacityMaskFilter_1_);}
	.st5{mask:url(#mask-4_2_);fill-rule:evenodd;clip-rule:evenodd;fill:#FFFFFF;}
	.st6{filter:url(#Adobe_OpacityMaskFilter_2_);}
	.st7{mask:url(#mask-4_1_);fill-rule:evenodd;clip-rule:evenodd;fill:#FFFFFF;}
</style>
<path id="Fill-1_3_" class="st0" d="M64,0c35.3,0,64,28.7,64,64c0,35.3-28.7,64-64,64C28.7,128,0,99.3,0,64C0,28.7,28.7,0,64,0"/>
<g id="Group-14" transform="translate(5.000000, 5.000000)">
	<polygon id="Fill-4_4_" class="st1" points="25.8,49.4 25.8,53 15.7,53 15.7,57.1 25,57.1 25,60.4 15.7,60.4 15.7,65.1 26,65.1 
		26,68.6 11.5,68.6 11.5,49.4 	"/>
	<path id="Fill-6_2_" class="st1" d="M37.7,58.1c1,0,1.7-0.2,2.2-0.6c0.5-0.4,0.7-1.1,0.7-2.1c0-0.9-0.2-1.6-0.7-2
		c-0.5-0.4-1.2-0.6-2.2-0.6h-4.6v5.4H37.7z M39.2,49.4c0.9,0,1.6,0.1,2.3,0.4c0.7,0.3,1.3,0.7,1.8,1.1c0.5,0.5,0.9,1,1.1,1.7
		c0.3,0.6,0.4,1.3,0.4,2.1c0,1.1-0.2,2.1-0.7,2.9c-0.5,0.8-1.2,1.4-2.3,1.9v0.1c0.5,0.1,0.9,0.4,1.3,0.7c0.3,0.3,0.6,0.6,0.8,1
		c0.2,0.4,0.4,0.8,0.5,1.3c0.1,0.5,0.2,1,0.2,1.4c0,0.3,0,0.7,0.1,1.1c0,0.4,0,0.8,0.1,1.3c0,0.4,0.1,0.8,0.2,1.2
		c0.1,0.4,0.2,0.7,0.4,1h-4.2c-0.2-0.6-0.4-1.3-0.4-2.2c-0.1-0.8-0.1-1.6-0.2-2.4c-0.1-1-0.4-1.7-0.9-2.2c-0.5-0.5-1.2-0.7-2.3-0.7
		h-4.2v7.5h-4.2V49.4H39.2z"/>
	<path id="Fill-8_2_" class="st1" d="M60.6,54.5c-0.3-0.4-0.6-0.8-0.9-1.1c-0.4-0.3-0.8-0.5-1.3-0.7c-0.5-0.2-1-0.3-1.5-0.3
		c-0.9,0-1.8,0.2-2.4,0.6c-0.7,0.4-1.2,0.9-1.6,1.5c-0.4,0.6-0.7,1.3-0.9,2.1c-0.2,0.8-0.3,1.6-0.3,2.4c0,0.8,0.1,1.6,0.3,2.3
		c0.2,0.8,0.5,1.4,0.9,2.1c0.4,0.6,0.9,1.1,1.6,1.5c0.7,0.4,1.5,0.6,2.4,0.6c1.3,0,2.3-0.4,3-1.2c0.7-0.8,1.2-1.8,1.3-3.1h4.1
		c-0.1,1.2-0.4,2.3-0.8,3.2c-0.4,1-1,1.8-1.8,2.5c-0.7,0.7-1.6,1.2-2.6,1.6c-1,0.4-2.1,0.5-3.2,0.5c-1.5,0-2.8-0.3-4-0.8
		c-1.2-0.5-2.2-1.2-3-2.1c-0.8-0.9-1.4-1.9-1.9-3.2c-0.4-1.2-0.6-2.5-0.6-3.9c0-1.4,0.2-2.8,0.6-4c0.4-1.2,1-2.3,1.9-3.2
		c0.8-0.9,1.8-1.6,3-2.1c1.2-0.5,2.5-0.8,4-0.8c1.1,0,2.1,0.2,3,0.5c0.9,0.3,1.8,0.7,2.5,1.3c0.7,0.6,1.4,1.3,1.8,2.2s0.8,1.8,0.9,3
		H61C61,55.4,60.8,54.9,60.6,54.5"/>
	<g id="Clip-11">
	</g>
	<defs>
		<filter id="Adobe_OpacityMaskFilter" filterUnits="userSpaceOnUse" x="67.7" y="59.6" width="8.1" height="3.3">
			<feColorMatrix  type="matrix" values="1 0 0 0 0  0 1 0 0 0  0 0 1 0 0  0 0 0 1 0"/>
		</filter>
	</defs>
	<mask maskUnits="userSpaceOnUse" x="67.7" y="59.6" width="8.1" height="3.3" id="mask-4_3_">
		<g class="st2">
			<polygon id="path-3_3_" class="st1" points="-6.2,124.1 123.9,124.1 123.9,-6.2 -6.2,-6.2 			"/>
		</g>
	</mask>
	<polygon id="Fill-10" class="st3" points="67.7,62.9 75.8,62.9 75.8,59.6 67.7,59.6 	"/>
	<defs>
		<filter id="Adobe_OpacityMaskFilter_1_" filterUnits="userSpaceOnUse" x="77.8" y="49.4" width="13.8" height="19.2">
			<feColorMatrix  type="matrix" values="1 0 0 0 0  0 1 0 0 0  0 0 1 0 0  0 0 0 1 0"/>
		</filter>
	</defs>
	<mask maskUnits="userSpaceOnUse" x="77.8" y="49.4" width="13.8" height="19.2" id="mask-4_2_">
		<g class="st4">
			<polygon id="path-3_2_" class="st1" points="-6.2,124.1 123.9,124.1 123.9,-6.2 -6.2,-6.2 			"/>
		</g>
	</mask>
	<path id="Fill-12" class="st5" d="M78.6,54c0.3-0.9,0.7-1.7,1.3-2.4c0.6-0.7,1.3-1.2,2.2-1.6c0.9-0.4,1.9-0.6,3-0.6
		c0.9,0,1.7,0.1,2.5,0.4c0.8,0.3,1.5,0.7,2.1,1.2c0.6,0.5,1.1,1.1,1.4,1.9c0.3,0.7,0.5,1.6,0.5,2.5c0,0.9-0.2,1.8-0.5,2.4
		c-0.3,0.7-0.7,1.3-1.2,1.8c-0.5,0.5-1.1,1-1.7,1.4c-0.6,0.4-1.3,0.9-1.9,1.3c-0.6,0.4-1.3,0.9-1.9,1.4c-0.6,0.5-1.1,1-1.6,1.7h8.9
		v3.3H77.8c0-1.1,0.2-2,0.5-2.8c0.3-0.8,0.7-1.5,1.3-2.2c0.5-0.6,1.2-1.2,1.9-1.8c0.7-0.5,1.5-1.1,2.3-1.6c0.4-0.3,0.8-0.6,1.3-0.9
		c0.5-0.3,0.9-0.6,1.3-1c0.4-0.4,0.7-0.8,1-1.2c0.3-0.4,0.4-1,0.4-1.5c0-0.9-0.3-1.6-0.8-2.1c-0.5-0.5-1.2-0.8-2-0.8
		c-0.6,0-1,0.1-1.4,0.4c-0.4,0.3-0.7,0.6-0.9,1c-0.2,0.4-0.4,0.9-0.5,1.4c-0.1,0.5-0.1,1-0.1,1.5h-3.6C78.2,56,78.3,55,78.6,54"/>
	<defs>
		<filter id="Adobe_OpacityMaskFilter_2_" filterUnits="userSpaceOnUse" x="92.7" y="49.4" width="13.8" height="19.5">
			<feColorMatrix  type="matrix" values="1 0 0 0 0  0 1 0 0 0  0 0 1 0 0  0 0 0 1 0"/>
		</filter>
	</defs>
	<mask maskUnits="userSpaceOnUse" x="92.7" y="49.4" width="13.8" height="19.5" id="mask-4_1_">
		<g class="st6">
			<polygon id="path-3_1_" class="st1" points="-6.2,124.1 123.9,124.1 123.9,-6.2 -6.2,-6.2 			"/>
		</g>
	</mask>
	<path id="Fill-13_1_" class="st7" d="M96.6,61.1c0,0.8,0.1,1.5,0.3,2.2c0.2,0.7,0.5,1.3,0.9,1.8c0.4,0.5,1,0.8,1.8,0.8
		c0.8,0,1.4-0.2,1.8-0.8c0.4-0.5,0.7-1.1,0.9-1.8c0.2-0.7,0.3-1.4,0.3-2.2c0-0.8,0.1-1.4,0.1-1.9c0-0.3,0-0.7,0-1.2
		c0-0.5,0-0.9-0.1-1.4c-0.1-0.5-0.2-1-0.3-1.4c-0.1-0.5-0.3-0.9-0.5-1.3c-0.2-0.4-0.5-0.7-0.9-0.9c-0.4-0.2-0.8-0.3-1.3-0.3
		c-0.5,0-1,0.1-1.3,0.3c-0.3,0.2-0.6,0.5-0.9,0.9c-0.2,0.4-0.4,0.8-0.5,1.3c-0.1,0.5-0.2,1-0.3,1.4c-0.1,0.5-0.1,1-0.1,1.4
		c0,0.5,0,0.8,0,1.2C96.5,59.7,96.5,60.3,96.6,61.1 M93.3,54.5c0.4-1.2,0.9-2.2,1.5-3c0.6-0.8,1.4-1.3,2.2-1.6
		c0.8-0.3,1.7-0.5,2.6-0.5c0.9,0,1.8,0.2,2.7,0.5c0.8,0.3,1.6,0.9,2.2,1.6c0.6,0.8,1.1,1.7,1.5,3c0.4,1.2,0.5,2.8,0.5,4.6
		c0,1.9-0.2,3.4-0.5,4.7c-0.4,1.3-0.9,2.3-1.5,3c-0.6,0.8-1.4,1.3-2.2,1.6c-0.8,0.3-1.7,0.5-2.7,0.5c-0.9,0-1.8-0.2-2.6-0.5
		c-0.8-0.3-1.6-0.9-2.2-1.6c-0.6-0.8-1.1-1.8-1.5-3c-0.4-1.3-0.6-2.8-0.6-4.7C92.7,57.3,92.9,55.8,93.3,54.5"/>
</g>
</svg>
