<?xml version="1.0" encoding="UTF-8"?>
<svg width="45px" height="46px" viewBox="0 0 45 46" version="1.1" xmlns="http://www.w3.org/2000/svg" xmlns:xlink="http://www.w3.org/1999/xlink">
    <!-- Generator: Sketch 52.5 (67469) - http://www.bohemiancoding.com/sketch -->
    <title>Group 14</title>
    <desc>Created with Sketch.</desc>
    <defs>
        <polygon id="path-1" points="1.45871501e-05 0.0312170385 44.9823551 0.0312170385 44.9823551 45.0912779 1.45871501e-05 45.0912779"></polygon>
        <polygon id="path-3" points="0 45.1513387 44.9823834 45.1513387 44.9823834 0.0912778905 0 0.0912778905"></polygon>
    </defs>
    <g id="Page-2" stroke="none" stroke-width="1" fill="none" fill-rule="evenodd">
        <g id="Automate_Execute" transform="translate(-1130.000000, -265.000000)">
            <g id="Group-7" transform="translate(135.000000, 120.000000)">
                <g id="Group-2-Copy-11" transform="translate(990.000000, 140.000000)">
                    <g id="Group-14" transform="translate(5.000000, 5.000000)">
                        <g id="Group-3" transform="translate(0.000000, 0.060061)">
                            <mask id="mask-2" fill="white">
                                <use xlink:href="#path-1"></use>
                            </mask>
                            <g id="Clip-2"></g>
                            <path d="M0.140111562,19.6094483 C1.68161258,9.6532211 8.74506085,2.90559432 18.3582657,0.40120284 C20.9626065,-0.27726572 25.2298479,0.179488844 25.4126775,0.2073286 C37.9533469,2.1179574 46.2536105,12.8968722 44.8221907,25.4179168 C43.4270081,37.6212231 31.6509736,46.6465071 19.4452028,44.8670446 C9.7278499,43.4502292 2.30723124,36.3994686 0.349229209,26.7411724 C0.227920892,26.1428458 -0.22627789,22.7480385 0.140111562,19.6094483" id="Fill-1" fill="#627EEA" mask="url(#mask-2)"></path>
                        </g>
                        <polygon id="Fill-4" fill="#FFFFFF" points="11.0725101 19.3276187 11.0725101 20.5530243 7.5730071 20.5530243 7.5730071 21.973217 10.7848022 21.973217 10.7848022 23.1057018 7.5730071 23.1057018 7.5730071 24.7301744 11.1468103 24.7301744 11.1468103 25.9553976 6.11557302 25.9553976 6.11557302 19.3276187"></polygon>
                        <path d="M15.1846521,22.3260152 C15.5189118,22.3260152 15.7694696,22.251715 15.9365081,22.1032059 C16.1036379,21.9546055 16.1871572,21.713358 16.1871572,21.3790984 C16.1871572,21.0574351 16.1036379,20.8237637 15.9365081,20.678358 C15.7694696,20.5330436 15.5189118,20.4601126 15.1846521,20.4601126 L13.5881105,20.4601126 L13.5881105,22.3260152 L15.1846521,22.3260152 Z M15.7044797,19.3276278 C16.0015892,19.3276278 16.2691247,19.3757312 16.5074513,19.471573 C16.7455953,19.5675974 16.949784,19.6990375 17.1201085,19.8660761 C17.2902505,20.0332059 17.4201389,20.226715 17.5099564,20.4462383 C17.5995913,20.6659442 17.6445,20.9027191 17.6445,21.1563803 C17.6445,21.5462282 17.5624412,21.8835913 17.3985974,22.1681957 C17.234571,22.4528915 16.9669442,22.6694939 16.5956258,22.8179118 L16.5956258,22.8365325 C16.7750781,22.8861876 16.9235872,22.961857 17.0412444,23.0639057 C17.1586278,23.1660456 17.2546521,23.2866237 17.3289523,23.4259138 C17.4031613,23.5651126 17.457289,23.7183682 17.4913357,23.8854067 C17.5252911,24.0525365 17.5484757,24.2195751 17.5609807,24.3866136 C17.5670963,24.4920396 17.5733032,24.6157211 17.5796014,24.7580233 C17.585717,24.9005081 17.5965791,25.0458225 17.6120963,25.1943316 C17.627431,25.3427495 17.6522586,25.4836826 17.6863053,25.6166744 C17.7202606,25.7498489 17.771285,25.8625771 17.8394696,25.9554067 L16.3821268,25.9554067 C16.3016197,25.7451937 16.2521471,25.4944533 16.2336176,25.2034594 C16.2150882,24.9128306 16.1871572,24.6343418 16.1500984,24.3681755 C16.1004432,24.0216846 15.9952911,23.7680233 15.8344594,23.6069178 C15.6734452,23.4460862 15.4105649,23.3656704 15.0454533,23.3656704 L13.5881105,23.3656704 L13.5881105,25.9554067 L12.1306765,25.9554067 L12.1306765,19.3276278 L15.7044797,19.3276278 Z" id="Fill-6" fill="#FFFFFF"></path>
                        <path d="M23.083932,21.0960822 C22.9973093,20.9567921 22.8889625,20.8346623 22.759074,20.7293276 C22.6291856,20.6241755 22.4821369,20.5422079 22.3182018,20.4834249 C22.1540842,20.424642 21.9823905,20.3951592 21.8029381,20.3951592 C21.4749767,20.3951592 21.1964878,20.4587799 20.9675629,20.5855649 C20.7385467,20.7124412 20.5528874,20.8825832 20.4105852,21.0960822 C20.2681917,21.3094899 20.1645913,21.5524716 20.0996927,21.8246623 C20.0347028,22.0971268 20.0022079,22.3786278 20.0022079,22.6694391 C20.0022079,22.9478367 20.0347028,23.2186582 20.0996927,23.4817211 C20.1645913,23.7446927 20.2681917,23.9814675 20.4105852,24.1917718 C20.5528874,24.4021673 20.7385467,24.5708489 20.9675629,24.6976339 C21.1964878,24.8246014 21.4749767,24.8880396 21.8029381,24.8880396 C22.2485568,24.8880396 22.5966907,24.7519442 22.8472485,24.4793884 C23.0978976,24.207289 23.2511531,23.8482931 23.3067414,23.4026744 L24.717715,23.4026744 C24.6805649,23.8174412 24.5845406,24.1917718 24.4299158,24.5259402 C24.2751998,24.8600172 24.0709199,25.1448043 23.8172586,25.3799361 C23.5635061,25.6152505 23.2664878,25.7947028 22.9262951,25.9182931 C22.5858286,26.0420659 22.2114067,26.1039523 21.8029381,26.1039523 C21.2955243,26.1039523 20.8390436,26.0156866 20.4338611,25.8395203 C20.0284047,25.6630801 19.686569,25.4201897 19.4080801,25.1106663 C19.1295913,24.8014168 18.9161836,24.4377657 18.7675832,24.0199868 C18.619074,23.6022992 18.5447738,23.1520254 18.5447738,22.6694391 C18.5447738,22.1744391 18.619074,21.714855 18.7675832,21.2909604 C18.9161836,20.8671572 19.1295913,20.4972992 19.4080801,20.1816602 C19.686569,19.8661126 20.0284047,19.6185669 20.4338611,19.4390233 C20.8390436,19.2596623 21.2955243,19.1698448 21.8029381,19.1698448 C22.168141,19.1698448 22.5130801,19.2225122 22.8380294,19.327573 C23.1627961,19.432999 23.4536988,19.5861633 23.7105548,19.7871572 C23.9673195,19.9883337 24.1794493,20.237431 24.3464878,20.5344493 C24.5135264,20.8314675 24.6186785,21.1718428 24.6619442,21.5554838 L23.2511531,21.5554838 C23.2263256,21.3884452 23.1705548,21.2352809 23.083932,21.0960822" id="Fill-8" fill="#FFFFFF"></path>
                        <mask id="mask-4" fill="white">
                            <use xlink:href="#path-3"></use>
                        </mask>
                        <g id="Clip-11"></g>
                        <polygon id="Fill-10" fill="#FFFFFF" mask="url(#mask-4)" points="25.5624645 23.9875558 28.3564807 23.9875558 28.3564807 22.855071 25.5624645 22.855071"></polygon>
                        <path d="M29.3217627,20.9196785 C29.4207079,20.6010274 29.569217,20.3225385 29.7673813,20.084212 C29.9654544,19.846068 30.2143692,19.6604087 30.5145822,19.5273256 C30.8147039,19.3942424 31.1597343,19.3276095 31.5495822,19.3276095 C31.8466004,19.3276095 32.1298357,19.37407 32.3990142,19.4668996 C32.6681927,19.5598205 32.9048763,19.6929037 33.1090649,19.8661491 C33.3132535,20.0393032 33.4757282,20.2528935 33.5963976,20.506646 C33.7170669,20.7603986 33.7774929,21.045003 33.7774929,21.360642 C33.7774929,21.6886947 33.7247343,21.9701957 33.6195822,22.2052363 C33.51443,22.440642 33.3750487,22.6494858 33.2018945,22.831859 C33.0285578,23.0144148 32.8321278,23.1800842 32.6125132,23.328502 C32.392716,23.4771024 32.171641,23.6240598 31.9487404,23.7693742 C31.7260223,23.9148712 31.5093286,24.0709564 31.2989331,24.2381775 C31.0885375,24.4053073 30.9028783,24.6001856 30.7421379,24.8229949 L33.8145517,24.8229949 L33.8145517,25.9553884 L29.0432738,25.9553884 C29.0432738,25.5780456 29.0974016,25.2499929 29.2057485,24.9715041 C29.3140041,24.6930152 29.4609615,24.4439178 29.6468032,24.224212 C29.8323712,24.0046886 30.0504341,23.8018692 30.3010832,23.6163012 C30.5517323,23.4305507 30.8162556,23.241788 31.0947444,23.0500132 C31.2369554,22.9511592 31.3886592,22.8503884 31.5495822,22.7482485 C31.7104138,22.6461998 31.8572799,22.5333803 31.9905456,22.4095162 C32.1234462,22.2857434 32.2348966,22.1465446 32.3246227,21.9917373 C32.4143489,21.8371126 32.4592576,21.660855 32.4592576,21.4626907 C32.4592576,21.1470517 32.3678884,20.9010578 32.1854239,20.7248002 C32.0028682,20.54836 31.7691968,20.4600943 31.4846836,20.4600943 C31.2928174,20.4600943 31.1302515,20.5050943 30.9972596,20.5947292 C30.8640852,20.6844554 30.7574726,20.8022039 30.6770568,20.9475183 C30.5965497,21.0929239 30.5393185,21.2538469 30.5052718,21.4301957 C30.4713164,21.6066359 30.4542475,21.7814331 30.4542475,21.9545872 L29.1918742,21.9545872 C29.1793692,21.58336 29.2227262,21.2385122 29.3217627,20.9196785" id="Fill-12" fill="#FFFFFF" mask="url(#mask-4)"></path>
                        <path d="M35.5411369,23.3517323 C35.5534594,23.6147951 35.5922525,23.8684564 35.6571511,24.1128073 C35.722141,24.3575233 35.8256501,24.5662759 35.9682262,24.73943 C36.1104371,24.912858 36.314717,24.9992982 36.5808834,24.9992982 C36.853074,24.9992982 37.0619178,24.912858 37.2073235,24.73943 C37.3528205,24.5662759 37.4579726,24.3575233 37.5229625,24.1128073 C37.5879523,23.8684564 37.6266542,23.6147951 37.639068,23.3517323 C37.6513905,23.0887606 37.6575974,22.8643996 37.6575974,22.6786491 C37.6575974,22.5673813 37.6559544,22.4326552 37.6529422,22.274927 C37.6498387,22.1171075 37.6374249,21.9546329 37.6157921,21.787503 C37.594068,21.6204645 37.5631247,21.4549777 37.5229625,21.2909513 C37.4827089,21.1270162 37.4223742,20.9799675 37.3419584,20.8500791 C37.2615426,20.7200994 37.1594026,20.614856 37.0356298,20.5344402 C36.911857,20.4541156 36.7602444,20.4137708 36.5808834,20.4137708 C36.4011572,20.4137708 36.2511876,20.4541156 36.1306095,20.5344402 C36.0099402,20.614856 35.9109037,20.7200994 35.8335913,20.8500791 C35.7560051,20.9799675 35.6957617,21.1270162 35.6525872,21.2909513 C35.6091389,21.4549777 35.578287,21.6204645 35.5597576,21.787503 C35.5411369,21.9546329 35.5303661,22.1171075 35.527354,22.274927 C35.524068,22.4326552 35.5226075,22.5673813 35.5226075,22.6786491 C35.5226075,22.8643996 35.5286318,23.0887606 35.5411369,23.3517323 M34.3947779,21.0867627 C34.5215629,20.6566613 34.6933479,20.3117221 34.9099503,20.0516714 C35.1265527,19.7918945 35.3787535,19.606144 35.6663702,19.4948763 C35.9541694,19.383426 36.258855,19.3276552 36.5808834,19.3276552 C36.9086623,19.3276552 37.2166339,19.383426 37.5045243,19.4948763 C37.792141,19.606144 38.0458022,19.7918945 38.2655994,20.0516714 C38.4851227,20.3117221 38.6584594,20.6566613 38.785427,21.0867627 C38.912212,21.5169554 38.9756501,22.0474625 38.9756501,22.6786491 C38.9756501,23.3284564 38.912212,23.8714686 38.785427,24.3078682 C38.6584594,24.7440852 38.4851227,25.0922191 38.2655994,25.3520872 C38.0458022,25.6119554 37.792141,25.7977059 37.5045243,25.9091562 C37.2166339,26.0203327 36.9086623,26.0761947 36.5808834,26.0761947 C36.258855,26.0761947 35.9541694,26.0203327 35.6663702,25.9091562 C35.3787535,25.7977059 35.1265527,25.6119554 34.9099503,25.3520872 C34.6933479,25.0922191 34.5215629,24.7440852 34.3947779,24.3078682 C34.2679016,23.8714686 34.2043722,23.3284564 34.2043722,22.6786491 C34.2043722,22.0474625 34.2679016,21.5169554 34.3947779,21.0867627" id="Fill-13" fill="#FFFFFF" mask="url(#mask-4)"></path>
                    </g>
                </g>
            </g>
        </g>
    </g>
</svg>