<?xml version="1.0" encoding="UTF-8"?>
<svg width="120px" height="120px" viewBox="0 0 120 120" version="1.1" xmlns="http://www.w3.org/2000/svg" xmlns:xlink="http://www.w3.org/1999/xlink">
    <!-- Generator: Sketch 52.5 (67469) - http://www.bohemiancoding.com/sketch -->
    <title>Group 15</title>
    <desc>Created with Sketch.</desc>
    <g id="Page-2" stroke="none" stroke-width="1" fill="none" fill-rule="evenodd">
        <g id="Automate_Execute" transform="translate(-173.000000, -138.000000)">
            <g id="Group-7" transform="translate(135.000000, 120.000000)">
                <g id="Group-4">
                    <g id="Group-15" transform="translate(38.000000, 18.000000)">
                        <path d="M60,0 C93.13875,0 120,26.865 120,60 C120,93.13875 93.13875,120 60,120 C26.865,120 0,93.13875 0,60 C0,26.865 26.865,0 60,0" id="Fill-1" fill="#627EEA"></path>
                        <polygon id="Fill-3" fill="#FFFFFF" opacity="0.6" points="61.8675 15 61.8675 48.2625 89.98125 60.825"></polygon>
                        <polygon id="Fill-5" fill="#FFFFFF" points="61.8675 15 33.75 60.825 61.8675 48.2625"></polygon>
                        <polygon id="Fill-7" fill="#FFFFFF" opacity="0.6" points="61.8675 82.37925 61.8675 104.9805 90 66.05925"></polygon>
                        <polygon id="Fill-9" fill="#FFFFFF" points="61.8675 104.981625 61.8675 82.376625 33.75 66.060375"></polygon>
                        <polygon id="Fill-11" fill="#FFFFFF" opacity="0.2" points="61.8675 77.1495 89.98125 60.82575 61.8675 48.27075"></polygon>
                        <polygon id="Fill-13" fill="#FFFFFF" opacity="0.6" points="33.75 60.82575 61.8675 77.1495 61.8675 48.27075"></polygon>
                    </g>
                </g>
            </g>
        </g>
    </g>
</svg>