<?xml version="1.0" encoding="utf-8"?>
<!-- Generator: Adobe Illustrator 24.0.2, SVG Export Plug-In . SVG Version: 6.00 Build 0)  -->
<svg version="1.1" id="Layer_1" xmlns="http://www.w3.org/2000/svg" xmlns:xlink="http://www.w3.org/1999/xlink" x="0px" y="0px"
	 viewBox="0 0 128 128" style="enable-background:new 0 0 128 128;" xml:space="preserve">
<style type="text/css">
	.st0{fill-rule:evenodd;clip-rule:evenodd;fill:#627EEA;}
	.st1{opacity:0.6;fill-rule:evenodd;clip-rule:evenodd;fill:#FFFFFF;enable-background:new    ;}
	.st2{fill-rule:evenodd;clip-rule:evenodd;fill:#FFFFFF;}
	.st3{opacity:0.2;fill-rule:evenodd;clip-rule:evenodd;fill:#FFFFFF;enable-background:new    ;}
</style>
<path id="Fill-1" class="st0" d="M64,0c35.3,0,64,28.7,64,64c0,35.3-28.7,64-64,64C28.7,128,0,99.3,0,64C0,28.7,28.7,0,64,0"/>
<g>
	<polygon id="Fill-3" class="st1" points="64,16 64,51.5 94,64.9 	"/>
	<polygon id="Fill-5" class="st2" points="64,16 34,64.9 64,51.5 	"/>
	<polygon id="Fill-7" class="st1" points="64,87.9 64,112 94,70.5 	"/>
	<polygon id="Fill-9" class="st2" points="64,112 64,87.9 34,70.5 	"/>
	<polygon id="Fill-11" class="st3" points="64,82.3 94,64.9 64,51.5 	"/>
	<polygon id="Fill-13" class="st1" points="34,64.9 64,82.3 64,51.5 	"/>
</g>
</svg>
