<?xml version="1.0" encoding="utf-8"?>
<!-- Generator: Adobe Illustrator 24.0.2, SVG Export Plug-In . SVG Version: 6.00 Build 0)  -->
<svg version="1.1" id="Layer_1" xmlns="http://www.w3.org/2000/svg" xmlns:xlink="http://www.w3.org/1999/xlink" x="0px" y="0px"
	 viewBox="0 0 128 128" style="enable-background:new 0 0 128 128;" xml:space="preserve">
<style type="text/css">
	.st0{fill:url(#SVGID_1_);}
	.st1{fill:url(#SVGID_2_);}
	.st2{fill:#17263D;}
</style>
<linearGradient id="SVGID_1_" gradientUnits="userSpaceOnUse" x1="64" y1="128" x2="64" y2="-9.094947e-13">
	<stop  offset="5.166997e-04" style="stop-color:#74C1E4"/>
	<stop  offset="1" style="stop-color:#E1FFFF"/>
</linearGradient>
<circle class="st0" cx="64" cy="64" r="64"/>
<radialGradient id="SVGID_2_" cx="64" cy="64" r="49.927" gradientUnits="userSpaceOnUse">
	<stop  offset="2.066799e-05" style="stop-color:#E1FFFF"/>
	<stop  offset="0.1026" style="stop-color:#D8FCFE"/>
	<stop  offset="0.2701" style="stop-color:#C0F3FC"/>
	<stop  offset="0.4816" style="stop-color:#98E5F8"/>
	<stop  offset="0.7288" style="stop-color:#61D2F3"/>
	<stop  offset="1" style="stop-color:#1CBAEC"/>
</radialGradient>
<path class="st1" d="M113.8,52.1c0.3-0.7,0.4-1.2,0.1-2c-1.2-3-2.3-6.1-3.4-9.2c-0.2-0.5-0.4-0.8-0.9-1c-4-1.6-8-3.2-12-4.8
	c-0.8-0.3-1.3-0.7-1.6-1.6c-1.4-4.4-3.1-8.7-4.5-13.1c-0.3-0.8-0.7-1.2-1.4-1.5c-3.4-1.2-6.8-2.5-10.2-3.8c-0.6-0.2-1.1-0.2-1.7,0
	c-3.8,1.6-7.7,3.2-11.5,4.8c-0.5,0.2-0.9,0.2-1.4,0c-4.4-1.9-8.9-3.8-13.3-5.7c-0.6-0.3-1.1-0.2-1.7,0c-3.2,1.4-6.4,2.8-9.7,4.1
	c-0.4,0.2-0.7,0.5-0.8,0.9c-1.9,4.2-3.8,8.3-5.7,12.5c-0.2,0.4-0.4,0.7-0.8,0.9c-0.8,0.3-1.7,0.7-2.5,1c-3.4,1.1-6.6,2.5-9.9,3.9
	c-0.5,0.2-0.7,0.5-0.9,1c-1.3,3.2-2.7,6.4-4,9.5c-0.2,0.5-0.2,0.8,0,1.3c1.4,3.5,2.7,7.1,4.1,10.6c0.1,0.3,0.2,0.6,0.1,1
	c-1.9,4.5-3.8,9.1-5.7,13.6c-0.3,0.6-0.3,1.1,0,1.8c1.3,3.4,2.6,6.7,3.9,10.1c0.4,1,0.8,1.9,2,2c0.3,0,0.5,0.2,0.8,0.3
	c3.5,1.4,7,2.9,10.5,4.3c1,0.4,1.6,1,2,2c1.6,4.3,3.1,8.6,4.8,12.8c0.2,0.6,0.6,1.1,1.2,1.3c0.6,0.2,1.2,0.5,1.9,0.8
	c2.2,0.9,4.4,1.8,6.6,2.7c0.6,0.3,1.3,0.3,2,0c3.8-1.6,7.5-3.2,11.3-4.8c0.9-0.4,1.6-0.5,2.7,0c4.2,2,8.4,3.8,12.6,5.6
	c0.3,0.1,0.6,0.2,1,0.2c0.4,0.1,0.8-0.1,1.1-0.3c2.9-1.2,5.9-2.5,8.8-3.7c0.4-0.2,0.7-0.5,0.9-0.9c1.8-4,3.5-8,5.3-12
	c0.2-0.4,0.3-0.8,0.8-1c1.2-0.5,2.4-1.1,3.6-1.5c3.6-1.4,7.2-2.9,10.8-4.4c0.4-0.1,0.6-0.4,0.8-0.8c0.6-1.5,1.3-2.9,1.9-4.4
	c0.5-1.4,1.3-2.7,1.8-4.1c0.3-0.8,0.3-1.6,0-2.4c-1.4-3.5-2.9-7-4.4-10.4c-0.5-1.1-0.8-2.1-0.3-3.4C110.4,60.5,112,56.2,113.8,52.1z
	"/>
<g>
	<path class="st2" d="M77.5,113.8c-0.4,0-0.7-0.1-1-0.2c-4.2-1.9-8.5-3.6-12.6-5.6c-1-0.5-1.7-0.4-2.7,0c-3.8,1.6-7.5,3.2-11.3,4.8
		c-0.6,0.3-1.3,0.3-2,0c-2.2-0.9-4.4-1.8-6.6-2.7c-0.6-0.3-1.2-0.5-1.9-0.8c-0.6-0.2-1-0.7-1.2-1.3c-1.7-4.2-3.2-8.5-4.8-12.8
		c-0.4-1-1-1.6-2-2c-3.5-1.4-7-2.9-10.5-4.3c-0.2-0.1-0.5-0.3-0.8-0.3c-1.2-0.1-1.6-1-2-2c-1.3-3.4-2.6-6.7-3.9-10.1
		c-0.2-0.6-0.2-1.1,0-1.8c1.9-4.5,3.8-9.1,5.7-13.6c0.2-0.4,0.1-0.7-0.1-1c-1.4-3.5-2.7-7.1-4.1-10.6c-0.2-0.5-0.2-0.9,0-1.3
		c1.3-3.2,2.7-6.4,4-9.5c0.2-0.4,0.5-0.8,0.9-1c3.3-1.3,6.6-2.7,9.9-3.9c0.9-0.3,1.7-0.7,2.5-1c0.4-0.2,0.6-0.5,0.8-0.9
		c1.9-4.2,3.8-8.3,5.7-12.5c0.2-0.4,0.4-0.7,0.8-0.9c3.2-1.4,6.5-2.7,9.7-4.1c0.6-0.3,1.1-0.3,1.7,0c4.4,1.9,8.9,3.8,13.3,5.7
		c0.5,0.2,0.9,0.2,1.4,0c3.8-1.6,7.7-3.2,11.5-4.8c0.6-0.2,1.1-0.3,1.7,0c3.4,1.3,6.8,2.5,10.2,3.8c0.7,0.3,1.2,0.7,1.4,1.5
		c1.5,4.4,3.1,8.7,4.5,13.1c0.3,0.9,0.8,1.3,1.6,1.6c4,1.6,8,3.2,12,4.8c0.5,0.2,0.7,0.5,0.9,1c1.1,3.1,2.2,6.1,3.4,9.2
		c0.3,0.8,0.2,1.3-0.1,2c-1.7,4.2-3.4,8.4-5.2,12.6c-0.6,1.3-0.2,2.3,0.3,3.4c1.5,3.5,2.9,6.9,4.4,10.4c0.3,0.8,0.3,1.6,0,2.4
		c-0.5,1.4-1.2,2.7-1.8,4.1c-0.6,1.5-1.3,2.9-1.9,4.4c-0.2,0.4-0.4,0.6-0.8,0.8c-3.6,1.5-7.1,3-10.8,4.4c-1.2,0.5-2.4,1-3.6,1.5
		c-0.5,0.2-0.6,0.6-0.8,1c-1.8,4-3.5,8-5.3,12c-0.2,0.4-0.4,0.7-0.9,0.9c-2.9,1.2-5.9,2.5-8.8,3.7C78.3,113.7,77.9,113.9,77.5,113.8
		z M36.6,94c1.4,3.2,2.7,6.2,3.9,9.2c0.2,0.4,0.4,0.5,0.8,0.6c2.6,1,5.1,2.1,7.7,3.1c0.5,0.2,0.8,0.2,1.3,0
		c7.8-3.2,15.7-6.3,23.5-9.5c0.5-0.2,0.7-0.5,0.9-0.9c4.4-10.9,8.9-21.7,13.4-32.6c0.2-0.5,0.2-0.8,0-1.3c-1.4-3.3-2.8-6.7-4.2-10
		c-0.1-0.2-0.1-0.5-0.4-0.6c-0.1,0.2-0.2,0.5-0.3,0.7c-5.2,12.3-10.4,24.7-15.6,37c-0.2,0.5-0.5,0.9-1.1,1.1
		c-5.1,2.2-10.2,4.3-15.3,6.5c-1,0.4-2.1,1.2-3.1,1.2c-1.1,0-2.2-0.8-3.2-1.2C42.1,96.4,39.4,95.2,36.6,94z M43.8,74.6
		c0.2-0.4,0.3-0.6,0.4-0.9C49.4,61.3,54.7,49,59.9,36.6c0.2-0.5,0.4-0.8,0.9-1c5.9-2.5,11.8-4.9,17.7-7.4c0.5-0.2,0.8-0.2,1.3,0
		c3.3,1.4,6.6,2.7,9.9,4.1c0.2,0.1,0.4,0.2,0.7,0.2c-1.2-3-2.4-6-3.5-9c-0.1-0.4-0.4-0.4-0.7-0.6c-2.6-1.1-5.2-2.2-7.7-3.3
		c-0.4-0.2-0.7-0.2-1.1,0c-7.9,3.2-15.9,6.4-23.8,9.6c-0.4,0.2-0.6,0.4-0.8,0.8c-4.5,11-9,22.1-13.6,33.1c-0.1,0.2-0.1,0.4,0,0.7
		C40.7,67.4,42.2,70.9,43.8,74.6z M68.8,36.6c0.5,0.2,0.7,0.3,1,0.4c9.8,4,19.5,8.1,29.3,12.1c0.6,0.2,0.8,0.6,1.1,1.1
		c1.3,3.2,2.6,6.5,3.9,9.7c0.1,0.3,0.2,0.6,0.5,0.6c0.4,0,0.3-0.4,0.4-0.6c1.1-2.8,2.2-5.6,3.3-8.4c0.2-0.4,0.1-0.7,0-1.1
		c-1.2-2.6-2.4-5.3-3.6-8c-0.2-0.4-0.4-0.7-0.9-0.9c-7.7-3.2-15.4-6.3-23.2-9.5c-0.5-0.2-0.9-0.2-1.4,0c-2.5,1.1-4.9,2.1-7.4,3.2
		C70.9,35.7,70,36.1,68.8,36.6z M36.9,58c0.2-0.4,0.3-0.7,0.4-0.9c4.1-9.7,8.3-19.5,12.4-29.3c0.2-0.6,0.6-0.9,1.1-1.1
		c3.2-1.3,6.4-2.6,9.6-3.9c0.2-0.1,0.6-0.1,0.5-0.4c0-0.2-0.3-0.3-0.5-0.3c-2.8-1.2-5.6-2.3-8.4-3.5c-0.4-0.2-0.8-0.2-1.2,0
		c-2.6,1.1-5.3,2.3-8,3.4c-0.4,0.2-0.6,0.4-0.8,0.8c-3.2,7.8-6.5,15.7-9.7,23.5c-0.1,0.3-0.2,0.6-0.1,1C33.8,50.8,35.3,54.3,36.9,58
		z M58.4,90.3c-0.4-0.2-0.7-0.3-1-0.4c-9.7-4.1-19.4-8.2-29.1-12.3c-0.5-0.2-0.8-0.5-1-1c-1.3-3.2-2.6-6.4-3.9-9.7
		c-0.1-0.2-0.1-0.5-0.4-0.6c-0.4,0-0.4,0.3-0.5,0.6c-1.2,2.7-2.4,5.4-3.6,8.1c-0.2,0.4-0.2,0.8,0,1.2c1.2,2.6,2.3,5.1,3.5,7.7
		c0.2,0.5,0.5,0.7,0.9,0.9c7.7,3.3,15.4,6.6,23.1,10c0.4,0.2,0.8,0.2,1.2,0c2.6-1.1,5.2-2.2,7.7-3.3C56.4,91.1,57.3,90.7,58.4,90.3z
		 M86.1,48c0.2,0.5,0.3,0.7,0.4,0.9c4.1,9.8,8.2,19.7,12.3,29.5c0.2,0.6,0.2,1,0,1.6c-1.3,3-2.6,6-3.9,9c-0.1,0.2-0.3,0.4-0.2,0.7
		c2.9-1.2,5.8-2.3,8.8-3.4c0.4-0.2,0.5-0.5,0.6-0.8c1.1-2.5,2.2-5,3.4-7.4c0.2-0.5,0.3-1,0-1.5c-3.1-7.4-6.3-14.9-9.4-22.3
		c-0.5-1.1-1.1-1.8-2.2-2.2C92.7,50.8,89.5,49.4,86.1,48z M90.5,68.7c-0.2,0.3-0.3,0.6-0.4,0.9C86,79.3,81.9,89,77.8,98.7
		c-0.2,0.5-0.5,0.8-1,1c-3.1,1.3-6.2,2.6-9.4,4c-0.2,0.1-0.5,0.1-0.6,0.4c0,0.3,0.3,0.3,0.5,0.4c2.6,1.1,5.3,2.2,7.9,3.3
		c0.3,0.1,0.6,0.2,1,0c2.8-1.2,5.7-2.4,8.5-3.5c0.4-0.1,0.6-0.4,0.7-0.7c3.1-7.8,6.2-15.6,9.3-23.4c0.1-0.4,0.1-0.7,0-1
		c-1.4-3.3-2.7-6.7-4.1-10C90.6,69,90.6,68.9,90.5,68.7z M32.8,36.6c-0.2,0-0.3,0-0.3,0c-3,1.2-5.9,2.4-8.9,3.6
		c-0.4,0.2-0.5,0.4-0.6,0.8c-1,2.6-2,5.2-3,7.8c-0.2,0.5-0.2,0.9,0,1.4c3.3,7.8,6.6,15.5,9.8,23.3c0.2,0.5,0.4,0.7,0.9,0.9
		c3.2,1.3,6.4,2.6,9.6,3.9c0.2,0.1,0.4,0.3,0.6,0.1c-0.1-0.3-0.2-0.5-0.3-0.8c-4-9.8-8.1-19.6-12.1-29.4c-0.2-0.5-0.2-0.9,0-1.4
		c1.2-2.6,2.3-5.3,3.4-8C32.2,38.1,32.5,37.4,32.8,36.6z M69,76c0-0.4-0.4-0.4-0.6-0.5c-5.9-2.5-11.9-5-17.8-7.5
		c-0.5-0.2-0.7-0.1-0.9,0.4c-0.9,2.3-1.9,4.5-2.8,6.8c-0.2,0.5-0.2,0.7,0.3,0.9c6,2.5,12,5.1,18,7.7c0.5,0.2,0.7,0.2,0.9-0.3
		c0.9-2.3,1.8-4.6,2.7-6.9C68.9,76.3,68.9,76.1,69,76z M55.8,55.2c-0.4,0-0.5,0.3-0.6,0.6c-1,2.3-1.9,4.6-2.9,6.8
		c-0.2,0.5-0.1,0.7,0.4,0.9c5.9,2.5,11.8,5,17.7,7.6c0.6,0.3,0.8,0.1,1-0.4c0.9-2.2,1.8-4.4,2.8-6.5c0.3-0.6,0.2-0.8-0.4-1.1
		C68,60.5,62.2,58,56.4,55.4C56.2,55.3,56,55.2,55.8,55.2z M79.7,50.9c0-0.4-0.3-0.4-0.6-0.5c-5.9-2.5-11.9-5.1-17.8-7.6
		c-0.5-0.2-0.6-0.1-0.8,0.3c-0.9,2.3-1.9,4.6-2.9,6.8c-0.2,0.4-0.1,0.6,0.3,0.8c6,2.5,12,5.1,18,7.6c0.5,0.2,0.7,0.1,0.9-0.4
		c0.9-2.3,1.8-4.5,2.7-6.8C79.6,51.1,79.7,51,79.7,50.9z"/>
</g>
</svg>
