<svg id="e9tj5trnyn3j1" xmlns="http://www.w3.org/2000/svg" xmlns:xlink="http://www.w3.org/1999/xlink" viewBox="0 0 128 128" shape-rendering="geometricPrecision" text-rendering="geometricPrecision"><defs><linearGradient id="e9tj5trnyn3j2-fill" x1="0" y1="64" x2="0" y2="-64" spreadMethod="pad" gradientUnits="userSpaceOnUse"><stop id="e9tj5trnyn3j2-fill-0" offset="0%" stop-color="rgb(116,193,228)"/><stop id="e9tj5trnyn3j2-fill-1" offset="100%" stop-color="rgb(225,255,255)"/></linearGradient><radialGradient id="e9tj5trnyn3j4-fill" cx="64" cy="64" r="49.927000" spreadMethod="pad" gradientUnits="userSpaceOnUse"><stop id="e9tj5trnyn3j4-fill-0" offset="0%" stop-color="rgb(225,255,255)"/><stop id="e9tj5trnyn3j4-fill-1" offset="10.260000%" stop-color="rgb(216,252,254)"/><stop id="e9tj5trnyn3j4-fill-2" offset="27.010000%" stop-color="rgb(192,243,252)"/><stop id="e9tj5trnyn3j4-fill-3" offset="48.160000%" stop-color="rgb(152,229,248)"/><stop id="e9tj5trnyn3j4-fill-4" offset="72.880000%" stop-color="rgb(97,210,243)"/><stop id="e9tj5trnyn3j4-fill-5" offset="100%" stop-color="rgb(28,186,236)"/></radialGradient></defs><circle id="e9tj5trnyn3j2" r="64" transform="matrix(0 0 0 0 63.91556941500000 63.81862977000000)" fill="url(#e9tj5trnyn3j2-fill)" stroke="none" stroke-width="1"/><g id="e9tj5trnyn3j3" transform="matrix(0 0 0 0 64 63.81862977000000)"><path id="e9tj5trnyn3j4" d="M113.800000,52.100000C114.100000,51.400000,114.200000,50.900000,113.900000,50.100000C112.700000,47.100000,111.600000,44,110.500000,40.900000C110.300000,40.400000,110.100000,40.100000,109.600000,39.900000C105.600000,38.300000,101.600000,36.700000,97.600000,35.100000C96.800000,34.800000,96.300000,34.400000,96,33.500000C94.600000,29.100000,92.900000,24.800000,91.500000,20.400000C91.200000,19.600000,90.800000,19.200000,90.100000,18.900000C86.700000,17.700000,83.300000,16.400000,79.900000,15.100000C79.300000,14.900000,78.800000,14.900000,78.200000,15.100000C74.400000,16.700000,70.500000,18.300000,66.700000,19.900000C66.200000,20.100000,65.800000,20.100000,65.300000,19.900000C60.900000,18,56.400000,16.100000,52,14.200000C51.400000,13.900000,50.900000,14,50.300000,14.200000C47.100000,15.600000,43.900000,17,40.600000,18.300000C40.200000,18.500000,39.900000,18.800000,39.800000,19.200000C37.900000,23.400000,36,27.500000,34.100000,31.700000C33.900000,32.100000,33.700000,32.400000,33.300000,32.600000C32.500000,32.900000,31.600000,33.300000,30.800000,33.600000C27.400000,34.700000,24.200000,36.100000,20.900000,37.500000C20.400000,37.700000,20.200000,38,20,38.500000C18.700000,41.700000,17.300000,44.900000,16,48C15.800000,48.500000,15.800000,48.800000,16,49.300000C17.400000,52.800000,18.700000,56.400000,20.100000,59.900000C20.200000,60.200000,20.300000,60.500000,20.200000,60.900000C18.300000,65.400000,16.400000,70,14.500000,74.500000C14.200000,75.100000,14.200000,75.600000,14.500000,76.300000C15.800000,79.700000,17.100000,83,18.400000,86.400000C18.800000,87.400000,19.200000,88.300000,20.400000,88.400000C20.700000,88.400000,20.900000,88.600000,21.200000,88.700000C24.700000,90.100000,28.200000,91.600000,31.700000,93C32.700000,93.400000,33.300000,94,33.700000,95C35.300000,99.300000,36.800000,103.600000,38.500000,107.800000C38.700000,108.400000,39.100000,108.900000,39.700000,109.100000C40.300000,109.300000,40.900000,109.600000,41.600000,109.900000C43.800000,110.800000,46,111.700000,48.200000,112.600000C48.800000,112.900000,49.500000,112.900000,50.200000,112.600000C54,111,57.700000,109.400000,61.500000,107.800000C62.400000,107.400000,63.100000,107.300000,64.200000,107.800000C68.400000,109.800000,72.600000,111.600000,76.800000,113.400000C77.100000,113.500000,77.400000,113.600000,77.800000,113.600000C78.200000,113.700000,78.600000,113.500000,78.900000,113.300000C81.800000,112.100000,84.800000,110.800000,87.700000,109.600000C88.100000,109.400000,88.400000,109.100000,88.600000,108.700000C90.400000,104.700000,92.100000,100.700000,93.900000,96.700000C94.100000,96.300000,94.200000,95.900000,94.700000,95.700000C95.900000,95.200000,97.100000,94.600000,98.300000,94.200000C101.900000,92.800000,105.500000,91.300000,109.100000,89.800000C109.500000,89.700000,109.700000,89.400000,109.900000,89C110.500000,87.500000,111.200000,86.100000,111.800000,84.600000C112.300000,83.200000,113.100000,81.900000,113.600000,80.500000C113.900000,79.700000,113.900000,78.900000,113.600000,78.100000C112.200000,74.600000,110.700000,71.100000,109.200000,67.700000C108.700000,66.600000,108.400000,65.600000,108.900000,64.300000C110.400000,60.500000,112,56.200000,113.800000,52.100000Z" fill="url(#e9tj5trnyn3j4-fill)" stroke="none" stroke-width="1"/><path id="e9tj5trnyn3j5" d="M77.500000,113.800000C77.100000,113.800000,76.800000,113.700000,76.500000,113.600000C72.300000,111.700000,68,110,63.900000,108C62.900000,107.500000,62.200000,107.600000,61.200000,108C57.400000,109.600000,53.700000,111.200000,49.900000,112.800000C49.300000,113.100000,48.600000,113.100000,47.900000,112.800000C45.700000,111.900000,43.500000,111,41.300000,110.100000C40.700000,109.800000,40.100000,109.600000,39.400000,109.300000C38.800000,109.100000,38.400000,108.600000,38.200000,108C36.500000,103.800000,35,99.500000,33.400000,95.200000C33,94.200000,32.400000,93.600000,31.400000,93.200000C27.900000,91.800000,24.400000,90.300000,20.900000,88.900000C20.700000,88.800000,20.400000,88.600000,20.100000,88.600000C18.900000,88.500000,18.500000,87.600000,18.100000,86.600000C16.800000,83.200000,15.500000,79.900000,14.200000,76.500000C14,75.900000,14,75.400000,14.200000,74.700000C16.100000,70.200000,18,65.600000,19.900000,61.100000C20.100000,60.700000,20,60.400000,19.800000,60.100000C18.400000,56.600000,17.100000,53,15.700000,49.500000C15.500000,49,15.500000,48.600000,15.700000,48.200000C17,45,18.400000,41.800000,19.700000,38.700000C19.900000,38.300000,20.200000,37.900000,20.600000,37.700000C23.900000,36.400000,27.200000,35,30.500000,33.800000C31.400000,33.500000,32.200000,33.100000,33,32.800000C33.400000,32.600000,33.600000,32.300000,33.800000,31.900000C35.700000,27.700000,37.600000,23.600000,39.500000,19.400000C39.700000,19,39.900000,18.700000,40.300000,18.500000C43.500000,17.100000,46.800000,15.800000,50,14.400000C50.600000,14.100000,51.100000,14.100000,51.700000,14.400000C56.100000,16.300000,60.600000,18.200000,65,20.100000C65.500000,20.300000,65.900000,20.300000,66.400000,20.100000C70.200000,18.500000,74.100000,16.900000,77.900000,15.300000C78.500000,15.100000,79,15,79.600000,15.300000C83,16.600000,86.400000,17.800000,89.800000,19.100000C90.500000,19.400000,91,19.800000,91.200000,20.600000C92.700000,25,94.300000,29.300000,95.700000,33.700000C96,34.600000,96.500000,35,97.300000,35.300000C101.300000,36.900000,105.300000,38.500000,109.300000,40.100000C109.800000,40.300000,110,40.600000,110.200000,41.100000C111.300000,44.200000,112.400000,47.200000,113.600000,50.300000C113.900000,51.100000,113.800000,51.600000,113.500000,52.300000C111.800000,56.500000,110.100000,60.700000,108.300000,64.900000C107.700000,66.200000,108.100000,67.200000,108.600000,68.300000C110.100000,71.800000,111.500000,75.200000,113,78.700000C113.300000,79.500000,113.300000,80.300000,113,81.100000C112.500000,82.500000,111.800000,83.800000,111.200000,85.200000C110.600000,86.700000,109.900000,88.100000,109.300000,89.600000C109.100000,90,108.900000,90.200000,108.500000,90.400000C104.900000,91.900000,101.400000,93.400000,97.700000,94.800000C96.500000,95.300000,95.300000,95.800000,94.100000,96.300000C93.600000,96.500000,93.500000,96.900000,93.300000,97.300000C91.500000,101.300000,89.800000,105.300000,88,109.300000C87.800000,109.700000,87.600000,110,87.100000,110.200000C84.200000,111.400000,81.200000,112.700000,78.300000,113.900000C78.300000,113.700000,77.900000,113.900000,77.500000,113.800000ZM36.600000,94C38,97.200000,39.300000,100.200000,40.500000,103.200000C40.700000,103.600000,40.900000,103.700000,41.300000,103.800000C43.900000,104.800000,46.400000,105.900000,49,106.900000C49.500000,107.100000,49.800000,107.100000,50.300000,106.900000C58.100000,103.700000,66,100.600000,73.800000,97.400000C74.300000,97.200000,74.500000,96.900000,74.700000,96.500000C79.100000,85.600000,83.600000,74.800000,88.100000,63.900000C88.300000,63.400000,88.300000,63.100000,88.100000,62.600000C86.700000,59.300000,85.300000,55.900000,83.900000,52.600000C83.800000,52.400000,83.800000,52.100000,83.500000,52C83.400000,52.200000,83.300000,52.500000,83.200000,52.700000C78,65,72.800000,77.400000,67.600000,89.700000C67.400000,90.200000,67.100000,90.600000,66.500000,90.800000C61.400000,93,56.300000,95.100000,51.200000,97.300000C50.200000,97.700000,49.100000,98.500000,48.100000,98.500000C47,98.500000,45.900000,97.700000,44.900000,97.300000C42.100000,96.400000,39.400000,95.200000,36.600000,94ZM43.800000,74.600000C44,74.200000,44.100000,74,44.200000,73.700000C49.400000,61.300000,54.700000,49,59.900000,36.600000C60.100000,36.100000,60.300000,35.800000,60.800000,35.600000C66.700000,33.100000,72.600000,30.700000,78.500000,28.200000C79,28,79.300000,28,79.800000,28.200000C83.100000,29.600000,86.400000,30.900000,89.700000,32.300000C89.900000,32.400000,90.100000,32.500000,90.400000,32.500000C89.200000,29.500000,88,26.500000,86.900000,23.500000C86.800000,23.100000,86.500000,23.100000,86.200000,22.900000C83.600000,21.800000,81,20.700000,78.500000,19.600000C78.100000,19.400000,77.800000,19.400000,77.400000,19.600000C69.500000,22.800000,61.500000,26,53.600000,29.200000C53.200000,29.400000,53,29.600000,52.800000,30C48.300000,41,43.800000,52.100000,39.200000,63.100000C39.100000,63.300000,39.100000,63.500000,39.200000,63.800000C40.700000,67.400000,42.200000,70.900000,43.800000,74.600000ZM68.800000,36.600000C69.300000,36.800000,69.500000,36.900000,69.800000,37C79.600000,41,89.300000,45.100000,99.100000,49.100000C99.700000,49.300000,99.900000,49.700000,100.200000,50.200000C101.500000,53.400000,102.800000,56.700000,104.100000,59.900000C104.200000,60.200000,104.300000,60.500000,104.600000,60.500000C105,60.500000,104.900000,60.100000,105,59.900000C106.100000,57.100000,107.200000,54.300000,108.300000,51.500000C108.500000,51.100000,108.400000,50.800000,108.300000,50.400000C107.100000,47.800000,105.900000,45.100000,104.700000,42.400000C104.500000,42,104.300000,41.700000,103.800000,41.500000C96.100000,38.300000,88.400000,35.200000,80.600000,32C80.100000,31.800000,79.700000,31.800000,79.200000,32C76.700000,33.100000,74.300000,34.100000,71.800000,35.200000C70.900000,35.700000,70,36.100000,68.800000,36.600000ZM36.900000,58C37.100000,57.600000,37.200000,57.300000,37.300000,57.100000C41.400000,47.400000,45.600000,37.600000,49.700000,27.800000C49.900000,27.200000,50.300000,26.900000,50.800000,26.700000C54,25.400000,57.200000,24.100000,60.400000,22.800000C60.600000,22.700000,61,22.700000,60.900000,22.400000C60.900000,22.200000,60.600000,22.100000,60.400000,22.100000C57.600000,20.900000,54.800000,19.800000,52,18.600000C51.600000,18.400000,51.200000,18.400000,50.800000,18.600000C48.200000,19.700000,45.500000,20.900000,42.800000,22C42.400000,22.200000,42.200000,22.400000,42,22.800000C38.800000,30.600000,35.500000,38.500000,32.300000,46.300000C32.200000,46.600000,32.100000,46.900000,32.200000,47.300000C33.800000,50.800000,35.300000,54.300000,36.900000,58ZM58.400000,90.300000C58,90.100000,57.700000,90,57.400000,89.900000C47.700000,85.800000,38,81.700000,28.300000,77.600000C27.800000,77.400000,27.500000,77.100000,27.300000,76.600000C26,73.400000,24.700000,70.200000,23.400000,66.900000C23.300000,66.700000,23.300000,66.400000,23,66.300000C22.600000,66.300000,22.600000,66.600000,22.500000,66.900000C21.300000,69.600000,20.100000,72.300000,18.900000,75C18.700000,75.400000,18.700000,75.800000,18.900000,76.200000C20.100000,78.800000,21.200000,81.300000,22.400000,83.900000C22.600000,84.400000,22.900000,84.600000,23.300000,84.800000C31,88.100000,38.700000,91.400000,46.400000,94.800000C46.800000,95,47.200000,95,47.600000,94.800000C50.200000,93.700000,52.800000,92.600000,55.300000,91.500000C56.400000,91.100000,57.300000,90.700000,58.400000,90.300000ZM86.100000,48C86.300000,48.500000,86.400000,48.700000,86.500000,48.900000C90.600000,58.700000,94.700000,68.600000,98.800000,78.400000C99,79,99,79.400000,98.800000,80C97.500000,83,96.200000,86,94.900000,89C94.800000,89.200000,94.600000,89.400000,94.700000,89.700000C97.600000,88.500000,100.500000,87.400000,103.500000,86.300000C103.900000,86.100000,104,85.800000,104.100000,85.500000C105.200000,83,106.300000,80.500000,107.500000,78.100000C107.700000,77.600000,107.800000,77.100000,107.500000,76.600000C104.400000,69.200000,101.200000,61.700000,98.100000,54.300000C97.600000,53.200000,97,52.500000,95.900000,52.100000C92.700000,50.800000,89.500000,49.400000,86.100000,48ZM90.500000,68.700000C90.300000,69,90.200000,69.300000,90.100000,69.600000C86,79.300000,81.900000,89,77.800000,98.700000C77.600000,99.200000,77.300000,99.500000,76.800000,99.700000C73.700000,101,70.600000,102.300000,67.400000,103.700000C67.200000,103.800000,66.900000,103.800000,66.800000,104.100000C66.800000,104.400000,67.100000,104.400000,67.300000,104.500000C69.900000,105.600000,72.600000,106.700000,75.200000,107.800000C75.500000,107.900000,75.800000,108,76.200000,107.800000C79,106.600000,81.900000,105.400000,84.700000,104.300000C85.100000,104.200000,85.300000,103.900000,85.400000,103.600000C88.500000,95.800000,91.600000,88,94.700000,80.200000C94.800000,79.800000,94.800000,79.500000,94.700000,79.200000C93.300000,75.900000,92,72.500000,90.600000,69.200000C90.600000,69,90.600000,68.900000,90.500000,68.700000ZM32.800000,36.600000C32.600000,36.600000,32.500000,36.600000,32.500000,36.600000C29.500000,37.800000,26.600000,39,23.600000,40.200000C23.200000,40.400000,23.100000,40.600000,23,41C22,43.600000,21,46.200000,20,48.800000C19.800000,49.300000,19.800000,49.700000,20,50.200000C23.300000,58,26.600000,65.700000,29.800000,73.500000C30,74,30.200000,74.200000,30.700000,74.400000C33.900000,75.700000,37.100000,77,40.300000,78.300000C40.500000,78.400000,40.700000,78.600000,40.900000,78.400000C40.800000,78.100000,40.700000,77.900000,40.600000,77.600000C36.600000,67.800000,32.500000,58,28.500000,48.200000C28.300000,47.700000,28.300000,47.300000,28.500000,46.800000C29.700000,44.200000,30.800000,41.500000,31.900000,38.800000C32.200000,38.100000,32.500000,37.400000,32.800000,36.600000ZM69,76C69,75.600000,68.600000,75.600000,68.400000,75.500000C62.500000,73,56.500000,70.500000,50.600000,68C50.100000,67.800000,49.900000,67.900000,49.700000,68.400000C48.800000,70.700000,47.800000,72.900000,46.900000,75.200000C46.700000,75.700000,46.700000,75.900000,47.200000,76.100000C53.200000,78.600000,59.200000,81.200000,65.200000,83.800000C65.700000,84,65.900000,84,66.100000,83.500000C67,81.200000,67.900000,78.900000,68.800000,76.600000C68.900000,76.300000,68.900000,76.100000,69,76ZM55.800000,55.200000C55.400000,55.200000,55.300000,55.500000,55.200000,55.800000C54.200000,58.100000,53.300000,60.400000,52.300000,62.600000C52.100000,63.100000,52.200000,63.300000,52.700000,63.500000C58.600000,66,64.500000,68.500000,70.400000,71.100000C71,71.400000,71.200000,71.200000,71.400000,70.700000C72.300000,68.500000,73.200000,66.300000,74.200000,64.200000C74.500000,63.600000,74.400000,63.400000,73.800000,63.100000C68,60.500000,62.200000,58,56.400000,55.400000C56.200000,55.300000,56,55.200000,55.800000,55.200000ZM79.700000,50.900000C79.700000,50.500000,79.400000,50.500000,79.100000,50.400000C73.200000,47.900000,67.200000,45.300000,61.300000,42.800000C60.800000,42.600000,60.700000,42.700000,60.500000,43.100000C59.600000,45.400000,58.600000,47.700000,57.600000,49.900000C57.400000,50.300000,57.500000,50.500000,57.900000,50.700000C63.900000,53.200000,69.900000,55.800000,75.900000,58.300000C76.400000,58.500000,76.600000,58.400000,76.800000,57.900000C77.700000,55.600000,78.600000,53.400000,79.500000,51.100000C79.600000,51.100000,79.700000,51,79.700000,50.900000Z" fill="rgb(23,38,61)" stroke="none" stroke-width="1"/></g><script><![CDATA[!function(t,n){"object"==typeof exports&&"undefined"!=typeof module?module.exports=n():"function"==typeof define&&define.amd?define(n):(t=t||self).__SVGATOR_PLAYER__=n()}(this,(function(){"use strict";function t(n){return(t="function"==typeof Symbol&&"symbol"==typeof Symbol.iterator?function(t){return typeof t}:function(t){return t&&"function"==typeof Symbol&&t.constructor===Symbol&&t!==Symbol.prototype?"symbol":typeof t})(n)}function n(t,n){if(!(t instanceof n))throw new TypeError("Cannot call a class as a function")}function r(t,n){for(var r=0;r<n.length;r++){var e=n[r];e.enumerable=e.enumerable||!1,e.configurable=!0,"value"in e&&(e.writable=!0),Object.defineProperty(t,e.key,e)}}function e(t,n,e){return n&&r(t.prototype,n),e&&r(t,e),t}var i=1e-5,u=Math.abs;function o(t){return t}function a(t,n,r){var e=1-r;return 3*r*e*(t*e+n*r)+r*r*r}function l(){var t=arguments.length>0&&void 0!==arguments[0]?arguments[0]:0,n=arguments.length>1&&void 0!==arguments[1]?arguments[1]:0,r=arguments.length>2&&void 0!==arguments[2]?arguments[2]:1,e=arguments.length>3&&void 0!==arguments[3]?arguments[3]:1;return t<0||t>1||r<0||r>1?null:u(t-n)<=i&&u(r-e)<=i?o:function(o){if(o<=0)return t>0?o*n/t:0===n&&r>0?o*e/r:0;if(o>=1)return r<1?1+(o-1)*(e-1)/(r-1):1===r&&t<1?1+(o-1)*(n-1)/(t-1):1;for(var l,f=0,s=1;f<s;){var c=a(t,r,l=(f+s)/2);if(u(o-c)<i)break;c<o?f=l:s=l}return a(n,e,l)}}function f(){return 1}function s(t){return 1===t?1:0}function c(){var t=arguments.length>0&&void 0!==arguments[0]?arguments[0]:1,n=arguments.length>1&&void 0!==arguments[1]?arguments[1]:0;if(1===t){if(0===n)return s;if(1===n)return f}var r=1/t;return function(t){return t>=1?1:(t+=n*r)-t%r}}function v(t){var n=arguments.length>1&&void 0!==arguments[1]?arguments[1]:2;if(Number.isInteger(t))return t;var r=Math.pow(10,n);return Math.round(t*r)/r}var h=Math.PI/180;function y(t,n,r){return t>=.5?r:n}function d(t,n,r){return 0===t||n===r?n:t*(r-n)+n}function g(t,n,r){var e=d(t,n,r);return e<=0?0:e}function m(t,n,r){return 0===t?n:1===t?r:{x:d(t,n.x,r.x),y:d(t,n.y,r.y)}}function p(t,n,r){return 0===t?n:1===t?r:{x:g(t,n.x,r.x),y:g(t,n.y,r.y)}}function b(t,n,r){var e=function(t,n,r){return Math.round(d(t,n,r))}(t,n,r);return e<=0?0:e>=255?255:e}function w(t,n,r){return 0===t?n:1===t?r:{r:b(t,n.r,r.r),g:b(t,n.g,r.g),b:b(t,n.b,r.b),a:d(t,null==n.a?1:n.a,null==r.a?1:r.a)}}function A(t,n,r){if(0===t)return n;if(1===t)return r;var e=n.length;if(e!==r.length)return y(t,n,r);for(var i=[],u=0;u<e;u++)i.push(w(t,n[u],r[u]));return i}function x(t,n,r){var e=n.length;if(e!==r.length)return y(t,n,r);for(var i=new Array(e),u=0;u<e;u++)i[u]=d(t,n[u],r[u]);return i}function k(t,n){for(var r=[],e=0;e<t;e++)r.push(n);return r}function S(t,n){if(--n<=0)return t;var r=(t=Object.assign([],t)).length;do{for(var e=0;e<r;e++)t.push(t[e])}while(--n>0);return t}var _=6,M=/\.0+$/g;function I(t){return Number.isInteger(t)?t+"":t.toFixed(_).replace(M,"")}function E(t){var n=arguments.length>1&&void 0!==arguments[1]?arguments[1]:" ";return t&&t.length?t.map(I).join(n):""}function F(t){return I(t.x)+","+I(t.y)}function B(t){return t?null==t.a||t.a>=1?"rgb("+t.r+","+t.g+","+t.b+")":"rgba("+t.r+","+t.g+","+t.b+","+t.a+")":"transparent"}var j={f:null,i:p,u:function(t,n){return function(r){var e=n(r);t.setAttribute("rx",I(e.x)),t.setAttribute("ry",I(e.y))}}},q={f:null,i:function(t,n,r){return 0===t?n:1===t?r:{width:g(t,n.width,r.width),height:g(t,n.height,r.height)}},u:function(t,n){return function(r){var e=n(r);t.setAttribute("width",I(e.width)),t.setAttribute("height",I(e.height))}}},P=Math.sin,O=Math.cos,z=Math.acos,L=Math.asin,C=Math.tan,R=Math.atan2,T=Math.PI/180,V=180/Math.PI,D=Math.sqrt,N=function(){function t(){var r=arguments.length>0&&void 0!==arguments[0]?arguments[0]:1,e=arguments.length>1&&void 0!==arguments[1]?arguments[1]:0,i=arguments.length>2&&void 0!==arguments[2]?arguments[2]:0,u=arguments.length>3&&void 0!==arguments[3]?arguments[3]:1,o=arguments.length>4&&void 0!==arguments[4]?arguments[4]:0,a=arguments.length>5&&void 0!==arguments[5]?arguments[5]:0;n(this,t),this.m=[r,e,i,u,o,a],this.i=null,this.w=null,this.s=null}return e(t,[{key:"point",value:function(t,n){var r=this.m;return{x:r[0]*t+r[2]*n+r[4],y:r[1]*t+r[3]*n+r[5]}}},{key:"translateSelf",value:function(){var t=arguments.length>0&&void 0!==arguments[0]?arguments[0]:0,n=arguments.length>1&&void 0!==arguments[1]?arguments[1]:0;if(!t&&!n)return this;var r=this.m;return r[4]+=r[0]*t+r[2]*n,r[5]+=r[1]*t+r[3]*n,this.w=this.s=this.i=null,this}},{key:"rotateSelf",value:function(){var t=arguments.length>0&&void 0!==arguments[0]?arguments[0]:0;if(t%=360){var n=P(t*=T),r=O(t),e=this.m,i=e[0],u=e[1];e[0]=i*r+e[2]*n,e[1]=u*r+e[3]*n,e[2]=e[2]*r-i*n,e[3]=e[3]*r-u*n,this.w=this.s=this.i=null}return this}},{key:"scaleSelf",value:function(){var t=arguments.length>0&&void 0!==arguments[0]?arguments[0]:1,n=arguments.length>1&&void 0!==arguments[1]?arguments[1]:1;if(1!==t||1!==n){var r=this.m;r[0]*=t,r[1]*=t,r[2]*=n,r[3]*=n,this.w=this.s=this.i=null}return this}},{key:"skewSelf",value:function(t,n){if(n%=360,(t%=360)||n){var r=this.m,e=r[0],i=r[1],u=r[2],o=r[3];t&&(t=C(t*T),r[2]+=e*t,r[3]+=i*t),n&&(n=C(n*T),r[0]+=u*n,r[1]+=o*n),this.w=this.s=this.i=null}return this}},{key:"resetSelf",value:function(){var t=arguments.length>0&&void 0!==arguments[0]?arguments[0]:1,n=arguments.length>1&&void 0!==arguments[1]?arguments[1]:0,r=arguments.length>2&&void 0!==arguments[2]?arguments[2]:0,e=arguments.length>3&&void 0!==arguments[3]?arguments[3]:1,i=arguments.length>4&&void 0!==arguments[4]?arguments[4]:0,u=arguments.length>5&&void 0!==arguments[5]?arguments[5]:0,o=this.m;return o[0]=t,o[1]=n,o[2]=r,o[3]=e,o[4]=i,o[5]=u,this.w=this.s=this.i=null,this}},{key:"recomposeSelf",value:function(){var t=arguments.length>0&&void 0!==arguments[0]?arguments[0]:null,n=arguments.length>1&&void 0!==arguments[1]?arguments[1]:null,r=arguments.length>2&&void 0!==arguments[2]?arguments[2]:null,e=arguments.length>3&&void 0!==arguments[3]?arguments[3]:null,i=arguments.length>4&&void 0!==arguments[4]?arguments[4]:null;return this.isIdentity||this.resetSelf(),t&&(t.x||t.y)&&this.translateSelf(t.x,t.y),n&&this.rotateSelf(n),r&&(r.x&&this.skewSelf(r.x,0),r.y&&this.skewSelf(0,r.y)),!e||1===e.x&&1===e.y||this.scaleSelf(e.x,e.y),i&&(i.x||i.y)&&this.translateSelf(i.x,i.y),this}},{key:"decompose",value:function(){var t=arguments.length>0&&void 0!==arguments[0]?arguments[0]:0,n=arguments.length>1&&void 0!==arguments[1]?arguments[1]:0,r=this.m,e=r[0]*r[0]+r[1]*r[1],i=[[r[0],r[1]],[r[2],r[3]]],u=D(e);if(0===u)return{origin:{x:r[4],y:r[5]},translate:{x:t,y:n},scale:{x:0,y:0},skew:{x:0,y:0},rotate:0};i[0][0]/=u,i[0][1]/=u;var o=r[0]*r[3]-r[1]*r[2]<0;o&&(u=-u);var a=i[0][0]*i[1][0]+i[0][1]*i[1][1];i[1][0]-=i[0][0]*a,i[1][1]-=i[0][1]*a;var l=D(i[1][0]*i[1][0]+i[1][1]*i[1][1]);if(0===l)return{origin:{x:r[4],y:r[5]},translate:{x:t,y:n},scale:{x:u,y:0},skew:{x:0,y:0},rotate:0};i[1][0]/=l,i[1][1]/=l,a/=l;var f=0;return i[1][1]<0?(f=z(i[1][1])*V,i[0][1]<0&&(f=360-f)):f=L(i[0][1])*V,o&&(f=-f),a=R(a,D(i[0][0]*i[0][0]+i[0][1]*i[0][1]))*V,{origin:{x:r[4],y:r[5]},translate:{x:t,y:n},scale:{x:u,y:l},skew:{x:a,y:0},rotate:f}}},{key:"toString",value:function(){return null===this.s&&(this.s="matrix("+this.m.map($).join(" ")+")"),this.s}},{key:"determinant",get:function(){var t=this.m;return t[0]*t[3]-t[1]*t[2]}},{key:"isIdentity",get:function(){if(null===this.i){var t=this.m;this.i=1===t[0]&&0===t[1]&&0===t[2]&&1===t[3]&&0===t[4]&&0===t[5]}return this.i}}]),t}(),G=/\.0+$/;function $(t){return Number.isInteger(t)?t:t.toFixed(14).replace(G,"")}Object.freeze({M:2,L:2,Z:0,H:1,V:1,C:6,Q:4,T:2,S:4,A:7});function H(t,n,r){return t+(n-t)*r}function Q(t,n,r){var e=arguments.length>3&&void 0!==arguments[3]&&arguments[3],i={x:H(t.x,n.x,r),y:H(t.y,n.y,r)};return e&&(i.a=function(t,n){return Math.atan2(n.y-t.y,n.x-t.x)}(t,n)),i}function U(t,n,r,e){var i=1-e;return i*i*t+2*i*e*n+e*e*r}function Y(t,n,r,e){return 2*(1-e)*(n-t)+2*e*(r-n)}function Z(t,n,r,e){var i=arguments.length>4&&void 0!==arguments[4]&&arguments[4],u={x:U(t.x,n.x,r.x,e),y:U(t.y,n.y,r.y,e)};return i&&(u.a=function(t,n,r,e){return Math.atan2(Y(t.y,n.y,r.y,e),Y(t.x,n.x,r.x,e))}(t,n,r,e)),u}function J(t,n,r,e,i){var u=i*i;return i*u*(e-t+3*(n-r))+3*u*(t+r-2*n)+3*i*(n-t)+t}function K(t,n,r,e,i){var u=1-i;return 3*(u*u*(n-t)+2*u*i*(r-n)+i*i*(e-r))}function W(t,n,r,e,i){var u=arguments.length>5&&void 0!==arguments[5]&&arguments[5],o={x:J(t.x,n.x,r.x,e.x,i),y:J(t.y,n.y,r.y,e.y,i)};return u&&(o.a=function(t,n,r,e,i){return Math.atan2(K(t.y,n.y,r.y,e.y,i),K(t.x,n.x,r.x,e.x,i))}(t,n,r,e,i)),o}function X(t,n,r){var e,i=arguments.length>3&&void 0!==arguments[3]&&arguments[3];if(nt(n)){if(null!=(e=r).start&&!nt(e))return Z(n,r.start,r,t,i)}else if(nt(r)){if(n.end)return Z(n,n.end,r,t,i)}else{if(n.end)return r.start?W(n,n.end,r.start,r,t,i):Z(n,n.end,r,t,i);if(r.start)return Z(n,r.start,r,t,i)}return Q(n,r,t,i)}function tt(t,n,r){var e=X(t,n,r,!0);return e.a=function(t){return arguments.length>1&&void 0!==arguments[1]&&arguments[1]?t+Math.PI:t}(e.a)/h,e}function nt(t){return!t.type||"corner"===t.type}var rt=new N;var et={f:function(t){return t?t.join(" "):""},i:function(n,r,e){if(0===n)return r;if(1===n)return e;var i=r.length;if(i!==e.length)return y(n,r,e);for(var u,o=new Array(i),a=0;a<i;a++){if((u=t(r[a]))!==t(e[a]))return y(n,r,e);if("number"===u)o[a]=d(n,r[a],e[a]);else{if(r[a]!==e[a])return y(n,r,e);o[a]=r[a]}}return o}},it={f:null,i:x,u:function(t,n){return function(r){var e=n(r);t.setAttribute("x1",I(e[0])),t.setAttribute("y1",I(e[1])),t.setAttribute("x2",I(e[2])),t.setAttribute("y2",I(e[3]))}}},ut={f:I,i:d},ot={f:I,i:function(t,n,r){var e=d(t,n,r);return e<=0?0:e>=1?1:e}},at={f:E,i:function(t,n,r){var e,i,u,o=n.length,a=r.length;if(o!==a)if(0===o)n=k(o=a,0);else if(0===a)a=o,r=k(o,0);else{var l=(u=(e=o)*(i=a)/function(t,n){for(var r;n;)r=n,n=t%n,t=r;return t||1}(e,i))<0?-u:u;n=S(n,Math.floor(l/o)),r=S(r,Math.floor(l/a)),o=a=l}for(var f=[],s=0;s<o;s++)f.push(v(g(t,n[s],r[s]),6));return f}};function lt(t,n,r,e,i,u,o,a){return n=function(t,n,r){for(var e,i,u,o=t.length-1,a={},l=0;l<=o;l++)(e=t[l]).e&&(e.e=n(e.e)),e.v&&"g"===(i=e.v).t&&i.r&&(u=r.getElementById(i.r))&&(a[i.r]=u.querySelectorAll("stop"));return a}(t,e,a),function(e){var i,u=r(e,t,ft);return u?"c"===u.t?B(u.v):"g"===u.t?(n[u.r]&&function(t,n){for(var r=0,e=t.length;r<e;r++)t[r].setAttribute("stop-color",B(n[r]))}(n[u.r],u.v),(i=u.r)?"url(#"+i+")":"none"):"none":"none"}}function ft(t,n,r){if(0===t)return n;if(1===t)return r;if(n&&r){var e=n.t;if(e===r.t)switch(n.t){case"c":return{t:e,v:w(t,n.v,r.v)};case"g":if(n.r===r.r)return{t:e,v:A(t,n.v,r.v),r:n.r}}}return y(t,n,r)}var st={blur:p,brightness:g,contrast:g,"drop-shadow":function(t,n,r){return 0===t?n:1===t?r:{blur:p(t,n.blur,r.blur),offset:m(t,n.offset,r.offset),color:w(t,n.color,r.color)}},grayscale:g,"hue-rotate":d,invert:g,opacity:g,saturate:g,sepia:g};function ct(t,n,r){if(0===t)return n;if(1===t)return r;var e=n.length;if(e!==r.length)return y(t,n,r);for(var i,u=[],o=0;o<e;o++){if(n[o].type!==r[o].type)return n;if(!(i=st[n[o].type]))return y(t,n,r);u.push({type:n.type,value:i(t,n[o].value,r[o].value)})}return u}var vt={blur:function(t){return t?function(n){t.setAttribute("stdDeviation",F(n))}:null},brightness:function(t,n,r){return(t=yt(r,n))?function(n){n=I(n),t.map((function(t){return t.setAttribute("slope",n)}))}:null},contrast:function(t,n,r){return(t=yt(r,n))?function(n){var r=I((1-n)/2);n=I(n),t.map((function(t){t.setAttribute("slope",n),t.setAttribute("intercept",r)}))}:null},"drop-shadow":function(t,n,r){var e=r.getElementById(n+"-blur");if(!e)return null;var i=r.getElementById(n+"-offset");if(!i)return null;var u=r.getElementById(n+"-flood");return u?function(t){e.setAttribute("stdDeviation",F(t.blur)),i.setAttribute("dx",I(t.offset.x)),i.setAttribute("dy",I(t.offset.y)),u.setAttribute("flood-color",B(t.color))}:null},grayscale:function(t){return t?function(n){t.setAttribute("values",E(function(t){return[.2126+.7874*(t=1-t),.7152-.7152*t,.0722-.0722*t,0,0,.2126-.2126*t,.7152+.2848*t,.0722-.0722*t,0,0,.2126-.2126*t,.7152-.7152*t,.0722+.9278*t,0,0,0,0,0,1,0]}(n)))}:null},"hue-rotate":function(t){return t?function(n){return t.setAttribute("values",I(n))}:null},invert:function(t,n,r){return(t=yt(r,n))?function(n){n=I(n)+" "+I(1-n),t.map((function(t){return t.setAttribute("tableValues",n)}))}:null},opacity:function(t,n,r){return(t=r.getElementById(n+"-A"))?function(n){return t.setAttribute("tableValues","0 "+I(n))}:null},saturate:function(t){return t?function(n){return t.setAttribute("values",I(n))}:null},sepia:function(t){return t?function(n){return t.setAttribute("values",E(function(t){return[.393+.607*(t=1-t),.769-.769*t,.189-.189*t,0,0,.349-.349*t,.686+.314*t,.168-.168*t,0,0,.272-.272*t,.534-.534*t,.131+.869*t,0,0,0,0,0,1,0]}(n)))}:null}};var ht=["R","G","B"];function yt(t,n){var r=ht.map((function(r){return t.getElementById(n+"-"+r)||null}));return-1!==r.indexOf(null)?null:r}var dt={fill:lt,"fill-opacity":ot,stroke:lt,"stroke-opacity":ot,"stroke-width":ut,"stroke-dashoffset":{f:I,i:d},"stroke-dasharray":at,opacity:ot,transform:function(n,r,e,i){if(!(n=function(n,r){if(!n||"object"!==t(n))return null;var e=!1;for(var i in n)n.hasOwnProperty(i)&&(n[i]&&n[i].length?(n[i].forEach((function(t){t.e&&(t.e=r(t.e))})),e=!0):delete n[i]);return e?n:null}(n,i)))return null;var u=function(t,i,u){var o=arguments.length>3&&void 0!==arguments[3]?arguments[3]:null;return n[t]?e(i,n[t],u):r&&r[t]?r[t]:o};return r&&r.a&&n.o?function(t){var r=e(t,n.o,tt);return rt.recomposeSelf(r,u("r",t,d,0)+r.a,u("k",t,m),u("s",t,m),u("t",t,m)).toString()}:function(t){return rt.recomposeSelf(u("o",t,X,null),u("r",t,d,0),u("k",t,m),u("s",t,m),u("t",t,m)).toString()}},"#filter":function(t,n,r,e,i,u,o,a){if(!n.items||!t||!t.length)return null;var l=function(t,n){var r=(t=t.map((function(t){return t&&vt[t[0]]?(n.getElementById(t[1]),vt[t[0]](n.getElementById(t[1]),t[1],n)):null}))).length;return function(n){for(var e=0;e<r;e++)t[e]&&t[e](n[e].value)}}(n.items,a);return l?(t=function(t,n){return t.map((function(t){return t.e=n(t.e),t}))}(t,e),function(n){l(r(n,t,ct))}):null},"#line":it,points:{f:E,i:x},d:et,r:ut,"#size":q,"#radius":j,_:function(t,n){if(Array.isArray(t))for(var r=0;r<t.length;r++)this[t[r]]=n;else this[t]=n}},gt=function(){function t(r){n(this,t),this.list=r,this.length=r.length}return e(t,[{key:"setAttribute",value:function(t,n){for(var r=this.list,e=0;e<this.length;e++)r[e].setAttribute(t,n)}},{key:"removeAttribute",value:function(t){for(var n=this.list,r=0;r<this.length;r++)n[r].removeAttribute(t)}},{key:"style",value:function(t,n){for(var r=this.list,e=0;e<this.length;e++)r[e].style[t]=n}}]),t}(),mt=/-./g,pt=function(t,n){return n.toUpperCase()};function bt(t){return"function"==typeof t?t:y}function wt(t){return t?"function"==typeof t?t:Array.isArray(t)?function(t){var n=arguments.length>1&&void 0!==arguments[1]?arguments[1]:o;if(!Array.isArray(t))return n;switch(t.length){case 1:return c(t[0])||n;case 2:return c(t[0],t[1])||n;case 4:return l(t[0],t[1],t[2],t[3])||n}return n}(t,null):function(t,n){var r=arguments.length>2&&void 0!==arguments[2]?arguments[2]:o;switch(t){case"linear":return o;case"steps":return c(n.steps||1,n.jump||0)||r;case"bezier":case"cubic-bezier":return l(n.x1||0,n.y1||0,n.x2||0,n.y2||0)||r}return r}(t.type,t.value,null):null}function At(t,n,r){var e=arguments.length>3&&void 0!==arguments[3]&&arguments[3],i=n.length-1;if(t<=n[0].t)return e?[0,0,n[0].v]:n[0].v;if(t>=n[i].t)return e?[i,1,n[i].v]:n[i].v;var u,o=n[0],a=null;for(u=1;u<=i;u++){if(!(t>n[u].t)){a=n[u];break}o=n[u]}return null==a?e?[i,1,n[i].v]:n[i].v:o.t===a.t?e?[u,1,a.v]:a.v:(t=(t-o.t)/(a.t-o.t),o.e&&(t=o.e(t)),e?[u,t,r(t,o.v,a.v)]:r(t,o.v,a.v))}function xt(t,n){var r=arguments.length>2&&void 0!==arguments[2]?arguments[2]:null;return t&&t.length?"function"!=typeof n?null:("function"!=typeof r&&(r=null),function(e){var i=At(e,t,n);return null!=i&&r&&(i=r(i)),i}):null}function kt(t,n){return t.t-n.t}function St(n,r,e,i,u){var o,a="@"===e[0],l="#"===e[0],f=dt[e],s=y;switch(a?(o=e.substr(1),e=o.replace(mt,pt)):l&&(e=e.substr(1)),t(f)){case"function":if(s=f(i,u,At,wt,e,a,r,n),l)return s;break;case"string":s=xt(i,bt(f));break;case"object":if((s=xt(i,bt(f.i),f.f))&&"function"==typeof f.u)return f.u(r,s,e,a,n)}return s?function(t,n,r){if(arguments.length>3&&void 0!==arguments[3]&&arguments[3])return t instanceof gt?function(e){return t.style(n,r(e))}:function(e){return t.style[n]=r(e)};if(Array.isArray(n)){var e=n.length;return function(i){var u=r(i);if(null==u)for(var o=0;o<e;o++)t[o].removeAttribute(n);else for(var a=0;a<e;a++)t[a].setAttribute(n,u)}}return function(e){var i=r(e);null==i?t.removeAttribute(n):t.setAttribute(n,i)}}(r,e,s,a):null}function _t(n,r,e,i){if(!i||"object"!==t(i))return null;var u=null,o=null;return Array.isArray(i)?o=function(t){if(!t||!t.length)return null;for(var n=0;n<t.length;n++)t[n].e&&(t[n].e=wt(t[n].e));return t.sort(kt)}(i):(o=i.keys,u=i.data||null),o?St(n,r,e,o,u):null}function Mt(t,n,r){if(!r)return null;var e=[];for(var i in r)if(r.hasOwnProperty(i)){var u=_t(t,n,i,r[i]);u&&e.push(u)}return e.length?e:null}function It(t,n){if(!n.duration||n.duration<0)return null;var r=function(t,n){if(!n)return null;var r=[];if(Array.isArray(n))for(var e=n.length,i=0;i<e;i++){var u=n[i];if(2===u.length){var o=null;if("string"==typeof u[0])o=t.getElementById(u[0]);else if(Array.isArray(u[0])){o=[];for(var a=0;a<u[0].length;a++)if("string"==typeof u[0][a]){var l=t.getElementById(u[0][a]);l&&o.push(l)}o=o.length?1===o.length?o[0]:new gt(o):null}if(o){var f=Mt(t,o,u[1]);f&&(r=r.concat(f))}}}else for(var s in n)if(n.hasOwnProperty(s)){var c=t.getElementById(s);if(c){var v=Mt(t,c,n[s]);v&&(r=r.concat(v))}}return r.length?r:null}(t,n.elements);return r?function(t,n){var r=arguments.length>2&&void 0!==arguments[2]?arguments[2]:1/0,e=arguments.length>3&&void 0!==arguments[3]?arguments[3]:1,i=arguments.length>4&&void 0!==arguments[4]&&arguments[4],u=arguments.length>5&&void 0!==arguments[5]?arguments[5]:1,o=t.length,a=e>0?n:0;i&&r%2==0&&(a=n-a);var l=null;return function(f,s){var c=f%n,v=1+(f-c)/n;s*=e,i&&v%2==0&&(s=-s);var h=!1;if(v>r)c=a,h=!0,-1===u&&(c=e>0?0:n);else if(s<0&&(c=n-c),c===l)return!1;l=c;for(var y=0;y<o;y++)t[y](c);return h}}(r,n.duration,n.iterations||1/0,n.direction||1,!!n.alternate,n.fill||1):null}var Et=function(){function t(r){var e=arguments.length>1&&void 0!==arguments[1]?arguments[1]:{};n(this,t),this._id=0,this._running=!1,this._animations=r,this.direction=e.direction||1,this.speed=e.speed||1,this.fps=e.fps||100,this.offset=e.offset||0}return e(t,[{key:"_start",value:function(){var t=this,n=arguments.length>0&&void 0!==arguments[0]?arguments[0]:0,r=-1/0,e=null,i={},u=function u(o){t._running=!0,null==e&&(e=o);var a=Math.round((o-e+n)*t.speed),l=t.fps?1e3/t.fps:0;if(a>r+l){t.offset=a,r=a;for(var f=t._animations,s=f.length,c=0,v=0;v<s;v++)i[v]?c++:(i[v]=f[v](a,t.direction),i[v]&&c++);if(c===s)return void t._stop()}t._id=window.requestAnimationFrame(u)};this._id=window.requestAnimationFrame(u)}},{key:"_stop",value:function(){this._id&&window.cancelAnimationFrame(this._id),this._running=!1}},{key:"play",value:function(){this._running||this._start(this.offset)}},{key:"stop",value:function(){this._stop(),this.offset=0;var t=this.direction,n=this._animations;requestAnimationFrame((function(){for(var r=0;r<n.length;r++)n[r](0,t)}))}},{key:"restart",value:function(){this._stop(),this.offset=0,this._start()}},{key:"pause",value:function(){this._stop()}},{key:"reverse",value:function(){this.direction=-this.direction}}],[{key:"build",value:function(n){if(!(n=function(t){if(!t||!t.root||!Array.isArray(t.animations))return null;var n=window.document.getElementById(t.root);if(!n)return null;var r=t.animations.map((function(t){return It(n,t)})).filter((function(t){return!!t}));return r.length?{element:n,animations:r,options:t.options||void 0}:null}(n)))return null;var r=n.element,e=n.options||{},i=new t(n.animations,n.options);return function(t,n,r){var e=arguments.length>3&&void 0!==arguments[3]?arguments[3]:null;if("click"===r){return void n.addEventListener("click",(function r(){n.removeEventListener("click",r),t.play()}))}if("hover"===r)return n.addEventListener("mouseenter",(function(){return t.play()})),void n.addEventListener("mouseleave","freeze"===e?function(){return t.pause()}:function(){return t.stop()});t.play()}(i,r,e.start,e.hover),i}}]),t}();return function(){for(var t=0,n=["ms","moz","webkit","o"],r=0;r<n.length&&!window.requestAnimationFrame;++r)window.requestAnimationFrame=window[n[r]+"RequestAnimationFrame"],window.cancelAnimationFrame=window[n[r]+"CancelAnimationFrame"]||window[n[r]+"CancelRequestAnimationFrame"];window.requestAnimationFrame||(window.requestAnimationFrame=function(n){var r=Date.now(),e=Math.max(0,16-(r-t)),i=window.setTimeout((function(){n(r+e)}),e);return t=r+e,i},window.cancelAnimationFrame=window.clearTimeout)}(),Et}));
__SVGATOR_PLAYER__.build({"root":"e9tj5trnyn3j1","animations":[{"duration":3000,"direction":1,"iterations":0,"fill":1,"alternate":false,"elements":{"e9tj5trnyn3j2":{"transform":{"data":{"o":{"x":63.915569415,"y":63.81862977,"type":"corner"},"t":{"x":0.08443058500000333,"y":0.1813702300000024}},"keys":{"s":[{"t":0,"v":{"x":0,"y":0},"e":[0.39,0.575,0.565,1]},{"t":300,"v":{"x":1,"y":1},"e":[0.39,0.575,0.565,1]}]}}},"e9tj5trnyn3j3":{"transform":{"data":{"o":{"x":64,"y":63.81862977,"type":"corner"},"t":{"x":-64,"y":-63.81862977}},"keys":{"r":[{"t":0,"v":-45,"e":[0,0,0.58,1]},{"t":1200,"v":0,"e":[0,0,0.58,1]}],"s":[{"t":250,"v":{"x":0,"y":0},"e":[0.42,0,0.58,1]},{"t":500,"v":{"x":1,"y":1},"e":[0.42,0,0.58,1]}]}}}}}],"options":{"start":"load","hover":"freeze"}})]]></script></svg>