<?xml version="1.0" encoding="utf-8"?>
<!-- Generator: Adobe Illustrator 24.0.2, SVG Export Plug-In . SVG Version: 6.00 Build 0)  -->
<svg version="1.1" id="Layer_1" xmlns="http://www.w3.org/2000/svg" xmlns:xlink="http://www.w3.org/1999/xlink" x="0px" y="0px"
	 viewBox="0 0 128 128" style="enable-background:new 0 0 128 128;" xml:space="preserve">
<style type="text/css">
	.st0{fill:#FFFFFF;}
</style>
<circle cx="64" cy="64" r="64"/>
<g>
	<path class="st0" d="M64,19c-24.9,0-45,20.1-45,45s20.1,45,45,45s45-20.1,45-45S88.9,19,64,19z"/>
</g>
<path d="M33.3,55c1.1,0.1,1.3,0.5,1.3,1.4c0.2,4.2,0.4,8.3,1.8,12.3c0.4,1.2,0.9,2.3,1.7,3.3c1.6,2,3.6,2,5.1,0
	c2.2-3,2.7-6.7,3.2-10.3c0.2-1.5,0.3-3,0.4-4.5c0-1,0.4-1.4,1.4-1.3c10.5,0.5,21,0.5,31.5,0c1.4-0.1,1.4,0.7,1.5,1.7
	c0.1,3.9,0.7,7.8,2,11.4c0.7,2,1.5,4.3,4,4.4c2.6,0.1,3.5-2.3,4.2-4.4c1.4-3.9,1.9-8.1,1.9-12.3c0-1.3,0.3-1.8,1.7-1.9
	c2.5-0.1,5-0.4,7.5-0.7c1.1-0.1,1.5,0.2,1.7,1.3c1.3,6.6,1.1,13.1-0.7,19.6c-0.1,0.5-0.4,1.1-0.7,1.4c-7.1,5.7-14.5,8.2-23.1,3.2
	c-2.6-1.5-4.6-3.7-6.7-5.8c-6.7-6.7-11.4-6.7-18,0c-2,2-3.8,4-6.2,5.5c-6.3,4-12.5,3.7-19.1,0.4c-5-2.5-6.2-6.6-6.6-11.4
	c-0.1-1.5-0.2-3-0.3-4.3c0.1-3,0.4-5.7,0.9-8.4c0.2-1.4,0.9-1.7,2.1-1.5C28.3,54.6,30.8,54.9,33.3,55z"/>
<path d="M35.8,47c0.3,1.8-1.2,3.6-2.8,3.7c-1.8,0-2.2-1.3-2.5-2.8c-0.2-1-0.3-2.1-0.5-3.1c-0.9-4.7,2.7-7,5.3-9.9
	C35.2,39,35.1,43,35.8,47z"/>
<path d="M48.8,33.9c-0.1,3.6-0.1,7.2,0.5,10.8c0.3,1.9-0.7,3.4-2.3,3.8c-1.6,0.3-2.9-0.6-3.4-2.5c-1.2-5-1.7-10-1.1-15.1
	c0.2-2,1.4-2.9,3.1-3.7c3.5-1.6,3.4-1.7,3.3,1.9C48.8,30.7,48.8,32.3,48.8,33.9z"/>
<path d="M58.1,36.4c-0.1-3.9,0.3-7.8,0.3-11.7c0-1.2,0.5-1.7,1.7-1.8c2.6-0.1,5.3-0.1,7.9,0c1.1,0.1,1.5,0.5,1.5,1.6
	c0.1,2.8,0.3,5.7,0.4,8.1c-0.1,4.5,0.1,8.6-0.9,12.6c-0.1,0.3-0.1,0.5-0.2,0.8c-0.8,2.9-2.7,4.7-4.9,4.7c-2.1,0-3.9-1.9-4.7-4.7
	C58.3,42.9,58.1,39.6,58.1,36.4z"/>
<path d="M79.3,30.5c-0.1-1.5-0.2-3-0.3-4.8c2.1,0.6,3.7,1.5,5.4,2.5c0.8,0.4,0.8,1.1,1,1.8c1,5.3,0.4,10.6-0.8,15.8
	c-0.4,1.9-1.8,2.9-3.3,2.7c-1.7-0.3-2.9-1.8-2.5-3.8C79.5,40,79.5,35.3,79.3,30.5z"/>
<path d="M92.5,34.3c2.4,2.1,4.4,4,5.3,6.4c1.2,2.9,0.3,6.1-0.9,9c-0.4,0.9-1.3,1.2-2.4,0.8c-1.5-0.6-2.7-1.9-2.4-3.4
	C93.1,43,92.9,39,92.5,34.3z"/>
</svg>
