<?xml version="1.0" encoding="utf-8"?>
<!-- Generator: Adobe Illustrator 24.0.2, SVG Export Plug-In . SVG Version: 6.00 Build 0)  -->
<svg version="1.1" id="Layer_1" xmlns="http://www.w3.org/2000/svg" xmlns:xlink="http://www.w3.org/1999/xlink" x="0px" y="0px"
	 viewBox="0 0 128 128" style="enable-background:new 0 0 128 128;" xml:space="preserve">
<style type="text/css">
	.st0{fill:#00A6AE;}
	.st1{fill:#F2F2F2;}
</style>
<circle class="st0" cx="64" cy="64" r="64"/>
<g>
	<path class="st1" d="M78.8,64c0-12.3,11.4-22.3,25.6-22.5l4.2-9.8c-1.3-0.1-2.6-0.2-3.9-0.2c-20.7,0-37.5,14.6-37.5,32.5
		c0,17.9,16.8,32.5,37.5,32.5c1.3,0,2.6-0.1,3.9-0.2l-4.2-9.8C90.3,86.3,78.8,76.3,78.8,64z"/>
</g>
<g>
	<path class="st1" d="M49.2,64c0-12.3-11.4-22.3-25.6-22.5l-4.2-9.8c1.3-0.1,2.6-0.2,3.9-0.2c20.7,0,37.5,14.6,37.5,32.5
		c0,17.9-16.8,32.5-37.5,32.5c-1.3,0-2.6-0.1-3.9-0.2l4.2-9.8C37.7,86.3,49.2,76.3,49.2,64z"/>
</g>
<polygon class="st1" points="89,69 35,69 39,59 93,59 "/>
</svg>
