<svg id="esmh148q94xj1" xmlns="http://www.w3.org/2000/svg" xmlns:xlink="http://www.w3.org/1999/xlink" viewBox="0 0 128 128" shape-rendering="geometricPrecision" text-rendering="geometricPrecision"><path id="esmh148q94xj2" d="M64,0.300000C99.300000,0.300000,128,28.800000,128,64C128,99.200000,99.300000,127.700000,64,127.700000C28.700000,127.700000,0,99.200000,0,64C0,28.800000,28.700000,0.300000,64,0.300000" transform="matrix(0 0 0 0 63.90000000000000 64)" clip-rule="evenodd" fill="rgb(255,217,255)" fill-rule="evenodd" stroke="none" stroke-width="1"/><g id="esmh148q94xj3" transform="matrix(0 0 0 0 63.90000000000000 64)"><path id="esmh148q94xj4" d="M87.400000,96.300000C91.900000,92.100000,96,87.600000,99.800000,82.700000C102.300000,83.400000,105,83.200000,107.400000,82C105.300000,80.200000,103.500000,78.100000,102,75.800000C105.400000,77.100000,109.200000,76.800000,112.300000,74.800000C112.300000,74.800000,102.500000,69.200000,101.100000,64.700000C95.900000,48,96.300000,46.500000,96.300000,46.500000C99.300000,38.400000,101.700000,29.200000,99.300000,26.100000C96.300000,22.200000,92.700000,28.300000,83.600000,34.600000C83.600000,34.600000,78.200000,29.300000,63.600000,29.300000C56.800000,29.700000,50.300000,31.500000,44.200000,34.700000C40.100000,31.600000,37.400000,28.700000,34.100000,26.800000C29.100000,23.700000,26.700000,26.500000,28.600000,33C29.400000,35.600000,30.500000,41.400000,31.600000,46.500000C32.400000,50.200000,31.600000,49.300000,28.600000,60.700000C27.600000,63.500000,26.200000,66.100000,24.600000,68.500000C22.400000,71.600000,19.100000,73.900000,15.500000,74.700000C18.600000,76.700000,22.400000,77,25.800000,75.700000C24.300000,78.100000,22.500000,80.200000,20.400000,81.900000C22.800000,83.100000,25.400000,83.300000,28,82.600000C30.500000,88.200000,34.800000,92.700000,40.100000,95.600000C40.100000,95.600000,46.200000,103,63.700000,103C79.500000,103.100000,87.400000,96.300000,87.400000,96.300000" clip-rule="evenodd" fill="rgb(255,232,136)" fill-rule="evenodd" stroke="none" stroke-width="1"/><path id="esmh148q94xj5" d="M49.600000,32C49.600000,32,31.800000,49.300000,34.200000,72.800000C36.800000,98.700000,63.700000,103.100000,63.700000,103.100000C49.300000,102.900000,35.900000,95.200000,28.200000,82.800000C28.200000,82.800000,23.100000,84.700000,20.600000,82.100000C20.600000,82.100000,25.200000,79,26,75.900000C22.600000,77.300000,18.700000,77,15.700000,74.900000C20.100000,73.700000,23.900000,70.700000,26.100000,66.600000C31.900000,56.500000,32.100000,39.900000,49.600000,32" clip-rule="evenodd" fill="rgb(234,186,92)" fill-rule="evenodd" stroke="none" stroke-width="1"/><path id="esmh148q94xj6" d="M86.600000,37.900000C86.600000,37.900000,90.100000,34.800000,94.200000,31.700000C97.200000,29.300000,98.800000,29.200000,99.600000,31.900000L95.900000,48.100000L92.500000,45.800000L89.600000,41L86.600000,37.900000ZM41.500000,37.900000C41.500000,37.900000,38,34.800000,33.900000,31.700000C30.900000,29.300000,29.300000,29.200000,28.500000,31.900000L32.200000,47.900000L35.700000,45.700000L38.500000,41L41.500000,37.900000Z" clip-rule="evenodd" fill="rgb(234,186,92)" fill-rule="evenodd" stroke="none" stroke-width="1"/><path id="esmh148q94xj7" d="M28.200000,82.700000C25.700000,83.400000,23,83.200000,20.600000,82C22.700000,80.200000,24.500000,78.100000,26,75.800000C22.600000,77.100000,18.800000,76.800000,15.700000,74.800000C20.200000,73.700000,24,70.700000,26.100000,66.500000C28.600000,61.600000,31.800000,51.900000,34.500000,46.900000C41.300000,34.200000,50.100000,29.200000,63.700000,29.200000C76.300000,28.500000,88.100000,35.500000,93.700000,47C96.400000,51.900000,99.600000,61.600000,102.100000,66.600000C104.200000,70.800000,108,73.800000,112.500000,74.900000C109.400000,76.800000,105.600000,77.200000,102.200000,75.900000C103.700000,78.300000,105.500000,80.400000,107.600000,82.100000C105.200000,83.300000,102.600000,83.500000,100,82.800000C100,82.800000,87.600000,103,64,103C40.400000,103,28.200000,82.700000,28.200000,82.700000Z" fill="none" stroke="rgb(68,57,46)" stroke-width="1.794800" stroke-linecap="round" stroke-linejoin="round"/><path id="esmh148q94xj8" d="M83.700000,34.700000L93.700000,26.800000C97.400000,23.900000,101.100000,25.300000,99.800000,31.200000C98.900000,35.100000,95.900000,48,95.900000,48M43.700000,34.400000L34.200000,27C30.500000,24.100000,26.800000,25.500000,28.100000,31.400000C29,35.300000,32.100000,48.100000,32.100000,48.100000" fill="none" stroke="rgb(68,57,46)" stroke-width="1.518900" stroke-linecap="round" stroke-linejoin="round"/><path id="esmh148q94xj9" d="M71.200000,79.800000C71.300000,84,68.300000,87.700000,64.200000,88.300000C60.100000,87.700000,57,84.100000,57.100000,79.800000L64.100000,75.600000L71.200000,79.800000Z" clip-rule="evenodd" fill="rgb(68,57,46)" fill-rule="evenodd" stroke="none" stroke-width="1"/><path id="esmh148q94xj10" d="M69.900000,84.800000C66.900000,81.600000,61.900000,81.400000,58.700000,84.500000C58.600000,84.600000,58.500000,84.700000,58.400000,84.800000L64.200000,87.400000L69.900000,84.800000Z" clip-rule="evenodd" fill="rgb(249,48,231)" fill-rule="evenodd" stroke="none" stroke-width="1"/><path id="esmh148q94xj11" d="M59.300000,84.500000C60.600000,83.200000,62.400000,82.500000,64.200000,82.600000C65.800000,82.500000,67.300000,83,68.600000,84" fill="none" stroke="rgb(68,57,46)" stroke-width="1.277200" stroke-linecap="round"/><path id="esmh148q94xj12" d="M63.700000,77.700000L64.700000,77.700000" fill="none" stroke="rgb(255,255,255)" stroke-width="4.864000" stroke-linecap="round" stroke-linejoin="round"/><path id="esmh148q94xj13" d="M82.500000,78.200000C80.900000,79.600000,78.900000,80.500000,76.800000,80.700000C74.700000,81,72.600000,80.800000,70.600000,80.100000C68.500000,79.600000,66.600000,78.500000,65,77C64.200000,76.100000,63.600000,75.100000,63.400000,73.900000C63.400000,73.300000,63.400000,72.800000,63.400000,72.200000L63.400000,70.700000C63.400000,70,63.900000,69.500000,64.500000,69.400000L64.500000,69.400000C65.200000,69.400000,65.700000,69.900000,65.700000,70.600000L65.700000,72C65.700000,72.400000,65.700000,72.900000,65.700000,73.300000C65.800000,74.100000,66.200000,74.900000,66.700000,75.500000C67.900000,76.900000,69.500000,78,71.300000,78.600000C74.900000,80.100000,79,79.600000,82.200000,77.400000C82.400000,77.200000,82.700000,77.200000,82.800000,77.400000C82.900000,77.600000,82.800000,77.900000,82.600000,78C82.500000,78.200000,82.500000,78.200000,82.500000,78.200000" clip-rule="evenodd" fill="rgb(68,57,46)" fill-rule="evenodd" stroke="none" stroke-width="1"/><path id="esmh148q94xj14" d="M47.300000,77.500000C48.800000,78.700000,50.600000,79.400000,52.500000,79.400000C54.400000,79.500000,56.300000,79.100000,58,78.400000C59.700000,77.800000,61.200000,76.700000,62.300000,75.300000C62.800000,74.700000,63,73.900000,63,73.100000L63,70C63,69.300000,63.500000,68.800000,64.200000,68.800000C64.900000,68.800000,65.400000,69.300000,65.400000,70L65.400000,73.100000C65.300000,74.400000,64.900000,75.500000,64.100000,76.500000C62.700000,78.200000,60.700000,79.500000,58.600000,80.100000C56.600000,80.800000,54.600000,81,52.500000,80.800000C50.400000,80.600000,48.400000,79.700000,46.800000,78.300000C46.700000,78.100000,46.700000,77.800000,46.900000,77.700000C47.100000,77.500000,47.300000,77.500000,47.300000,77.500000L47.300000,77.500000Z" clip-rule="evenodd" fill="rgb(68,57,46)" fill-rule="evenodd" stroke="none" stroke-width="1"/><path id="esmh148q94xj15" d="M71.200000,80.800000C70.800000,84.800000,67.400000,87.700000,63.500000,87.300000C60.100000,87,57.400000,84.200000,57.100000,80.800000" fill="none" stroke="rgb(68,57,46)" stroke-width="1.931400" stroke-linecap="round"/><path id="esmh148q94xj16" d="M54.800000,72.700000C50.200000,71.600000,45.400000,71.800000,40.800000,73.100000C36.200000,74.500000,32.200000,77.500000,29.400000,81.500000C32,77.300000,35.900000,74,40.500000,72.300000C45.200000,70.600000,50.100000,70.200000,55,71C55.500000,71.100000,55.800000,71.500000,55.700000,72C55.800000,72.400000,55.400000,72.700000,54.800000,72.700000L54.800000,72.700000L54.800000,72.700000ZM58.200000,69.900000C58,69.400000,58.100000,68.800000,58.500000,68.400000C60.100000,66.900000,62.200000,66.200000,64.300000,66.300000C66.300000,66.100000,68.400000,66.800000,69.800000,68.300000C70.200000,68.700000,70.300000,69.300000,70,69.900000C69.700000,70.600000,69.100000,71.100000,68.300000,71.100000C67.100000,71.100000,66,71.600000,65.300000,72.600000L65.100000,72.800000C64.500000,73.400000,63.500000,73.500000,62.900000,72.900000C62.900000,72.900000,62.800000,72.800000,62.800000,72.800000C62.800000,72.800000,62.100000,71.600000,59.800000,71.400000C59.100000,71.300000,58.400000,70.800000,58.200000,70.100000L58.200000,69.900000Z" clip-rule="evenodd" fill="rgb(68,57,46)" fill-rule="evenodd" stroke="none" stroke-width="1"/><path id="esmh148q94xj17" d="M73.200000,70.900000C78.100000,70.100000,83,70.500000,87.700000,72.200000C92.300000,73.900000,96.200000,77.200000,98.800000,81.400000C96,77.400000,92,74.500000,87.400000,73C82.900000,71.700000,78.100000,71.500000,73.500000,72.600000C73.100000,72.800000,72.600000,72.600000,72.400000,72.100000C72.200000,71.700000,72.400000,71.100000,72.900000,71C72.900000,71,73,71,73.200000,70.900000L73.200000,70.900000ZM55,74.800000C51.900000,74.400000,48.700000,75,45.900000,76.500000C43.200000,78.300000,41.400000,81.300000,41.100000,84.600000C41.200000,82.900000,41.700000,81.300000,42.300000,79.700000C43,78.100000,44,76.800000,45.300000,75.800000C48.200000,74,51.500000,73.100000,54.900000,73.100000C55.300000,73.100000,55.700000,73.400000,55.800000,73.800000C55.800000,73.800000,55.800000,73.800000,55.800000,73.900000C55.800000,74.300000,55.400000,74.700000,55,74.800000L55,74.800000Z" clip-rule="evenodd" fill="rgb(68,57,46)" fill-rule="evenodd" stroke="none" stroke-width="1"/><path id="esmh148q94xj18" d="M73.300000,73.100000C76.700000,73,80,73.900000,82.900000,75.800000C84.200000,76.800000,85.300000,78.200000,85.900000,79.700000C86.600000,81.200000,87,82.900000,87.100000,84.600000C86.700000,81.300000,84.900000,78.300000,82.300000,76.500000C79.500000,75.100000,76.300000,74.500000,73.200000,74.800000C72.700000,74.800000,72.300000,74.400000,72.300000,73.900000C72.300000,73.400000,72.600000,73,73.100000,73L73.100000,73L73.300000,73.100000Z" clip-rule="evenodd" fill="rgb(68,57,46)" fill-rule="evenodd" stroke="none" stroke-width="1"/><g id="esmh148q94xj19"><path id="esmh148q94xj20" d="M87.500000,44.800000C94.400000,44.800000,100,50.500000,100,57.600000C100,64.700000,94.400000,70.400000,87.500000,70.400000C80.600000,70.400000,75,64.700000,75,57.600000C75,50.500000,80.600000,44.800000,87.500000,44.800000" clip-rule="evenodd" fill="rgb(255,255,255)" fill-rule="evenodd" stroke="none" stroke-width="1"/><path id="esmh148q94xj21" d="M87.500000,44.800000C94.400000,44.800000,100,50.500000,100,57.600000C100,64.700000,94.400000,70.400000,87.500000,70.400000C80.600000,70.400000,75,64.700000,75,57.600000C75,50.500000,80.600000,44.800000,87.500000,44.800000Z" fill="none" stroke="rgb(68,57,46)" stroke-width="1.518900"/><path id="esmh148q94xj22" d="M87.600000,49.900000C91.800000,49.900000,95.300000,53.400000,95.300000,57.800000C95.300000,62.200000,91.900000,65.700000,87.600000,65.700000C83.400000,65.700000,79.900000,62.200000,79.900000,57.800000C79.900000,53.400000,83.400000,49.900000,87.600000,49.900000" clip-rule="evenodd" fill="rgb(68,57,46)" fill-rule="evenodd" stroke="none" stroke-width="1"/><path id="esmh148q94xj23" d="M87.600000,49.900000C91.800000,49.900000,95.300000,53.400000,95.300000,57.800000C95.300000,62.200000,91.900000,65.700000,87.600000,65.700000C83.400000,65.700000,79.900000,62.200000,79.900000,57.800000C79.900000,53.400000,83.400000,49.900000,87.600000,49.900000Z" fill="none" stroke="rgb(249,48,231)" stroke-width="1.558800"/><path id="esmh148q94xj24" d="M85,49.800000C86.400000,48.400000,88.700000,48.400000,90.100000,49.800000C91.500000,51.200000,91.500000,53.600000,90.100000,55C88.700000,56.400000,86.400000,56.400000,85,55C83.600000,53.500000,83.600000,51.200000,85,49.800000" clip-rule="evenodd" fill="rgb(255,255,255)" fill-rule="evenodd" stroke="none" stroke-width="1"/></g><g id="esmh148q94xj25"><path id="esmh148q94xj26" d="M40.700000,44.800000C47.600000,44.800000,53.200000,50.500000,53.200000,57.600000C53.200000,64.700000,47.600000,70.400000,40.700000,70.400000C33.800000,70.400000,28.200000,64.700000,28.200000,57.600000C28.200000,50.500000,33.800000,44.800000,40.700000,44.800000" clip-rule="evenodd" fill="rgb(255,255,255)" fill-rule="evenodd" stroke="none" stroke-width="1"/><path id="esmh148q94xj27" d="M40.700000,44.800000C47.600000,44.800000,53.200000,50.500000,53.200000,57.600000C53.200000,64.700000,47.600000,70.400000,40.700000,70.400000C33.800000,70.400000,28.200000,64.700000,28.200000,57.600000C28.200000,50.500000,33.800000,44.800000,40.700000,44.800000Z" fill="none" stroke="rgb(68,57,46)" stroke-width="1.518900"/><path id="esmh148q94xj28" d="M40.700000,49.300000C44.900000,49.300000,48.400000,52.800000,48.400000,57.200000C48.400000,61.600000,45,65,40.700000,65C36.400000,65,33,61.500000,33,57.100000C33,52.700000,36.500000,49.300000,40.700000,49.300000" clip-rule="evenodd" fill="rgb(68,57,46)" fill-rule="evenodd" stroke="none" stroke-width="1"/><path id="esmh148q94xj29" d="M40.700000,49.300000C44.900000,49.300000,48.400000,52.800000,48.400000,57.200000C48.400000,61.600000,45,65,40.700000,65C36.400000,65,33,61.500000,33,57.100000C33,52.700000,36.500000,49.300000,40.700000,49.300000Z" fill="none" stroke="rgb(249,48,231)" stroke-width="1.558800"/><path id="esmh148q94xj30" d="M38.100000,49.200000C39.500000,47.800000,41.800000,47.800000,43.200000,49.200000C44.600000,50.600000,44.600000,53,43.200000,54.400000C41.800000,55.800000,39.500000,55.800000,38.100000,54.400000C36.700000,52.900000,36.700000,50.600000,38.100000,49.200000" clip-rule="evenodd" fill="rgb(255,255,255)" fill-rule="evenodd" stroke="none" stroke-width="1"/></g></g><path id="esmh148q94xj31" d="M40.700000,44.800000C47.600000,44.800000,53.200000,50.500000,53.200000,57.600000C53.200000,64.700000,47.600000,70.400000,40.700000,70.400000C33.800000,70.400000,28.200000,64.700000,28.200000,57.600000C28.200000,50.500000,33.800000,44.800000,40.700000,44.800000Z" opacity="0" fill="rgb(234,186,92)" stroke="rgb(68,57,46)" stroke-width="1.500000"/><path id="esmh148q94xj32" d="M87.500000,44.800000C94.400000,44.800000,100,50.500000,100,57.600000C100,64.700000,94.400000,70.400000,87.500000,70.400000C80.600000,70.400000,75,64.700000,75,57.600000C75,50.500000,80.600000,44.800000,87.500000,44.800000Z" opacity="0" fill="rgb(234,186,92)" stroke="rgb(68,57,46)" stroke-width="1.500000"/><script><![CDATA[!function(t,n){"object"==typeof exports&&"undefined"!=typeof module?module.exports=n():"function"==typeof define&&define.amd?define(n):(t=t||self).__SVGATOR_PLAYER__=n()}(this,(function(){"use strict";function t(n){return(t="function"==typeof Symbol&&"symbol"==typeof Symbol.iterator?function(t){return typeof t}:function(t){return t&&"function"==typeof Symbol&&t.constructor===Symbol&&t!==Symbol.prototype?"symbol":typeof t})(n)}function n(t,n){if(!(t instanceof n))throw new TypeError("Cannot call a class as a function")}function r(t,n){for(var r=0;r<n.length;r++){var e=n[r];e.enumerable=e.enumerable||!1,e.configurable=!0,"value"in e&&(e.writable=!0),Object.defineProperty(t,e.key,e)}}function e(t,n,e){return n&&r(t.prototype,n),e&&r(t,e),t}var i=1e-5,u=Math.abs;function o(t){return t}function a(t,n,r){var e=1-r;return 3*r*e*(t*e+n*r)+r*r*r}function l(){var t=arguments.length>0&&void 0!==arguments[0]?arguments[0]:0,n=arguments.length>1&&void 0!==arguments[1]?arguments[1]:0,r=arguments.length>2&&void 0!==arguments[2]?arguments[2]:1,e=arguments.length>3&&void 0!==arguments[3]?arguments[3]:1;return t<0||t>1||r<0||r>1?null:u(t-n)<=i&&u(r-e)<=i?o:function(o){if(o<=0)return t>0?o*n/t:0===n&&r>0?o*e/r:0;if(o>=1)return r<1?1+(o-1)*(e-1)/(r-1):1===r&&t<1?1+(o-1)*(n-1)/(t-1):1;for(var l,f=0,s=1;f<s;){var c=a(t,r,l=(f+s)/2);if(u(o-c)<i)break;c<o?f=l:s=l}return a(n,e,l)}}function f(){return 1}function s(t){return 1===t?1:0}function c(){var t=arguments.length>0&&void 0!==arguments[0]?arguments[0]:1,n=arguments.length>1&&void 0!==arguments[1]?arguments[1]:0;if(1===t){if(0===n)return s;if(1===n)return f}var r=1/t;return function(t){return t>=1?1:(t+=n*r)-t%r}}function v(t){var n=arguments.length>1&&void 0!==arguments[1]?arguments[1]:2;if(Number.isInteger(t))return t;var r=Math.pow(10,n);return Math.round(t*r)/r}var h=Math.PI/180;function y(t,n,r){return t>=.5?r:n}function d(t,n,r){return 0===t||n===r?n:t*(r-n)+n}function g(t,n,r){var e=d(t,n,r);return e<=0?0:e}function m(t,n,r){return 0===t?n:1===t?r:{x:d(t,n.x,r.x),y:d(t,n.y,r.y)}}function p(t,n,r){return 0===t?n:1===t?r:{x:g(t,n.x,r.x),y:g(t,n.y,r.y)}}function b(t,n,r){var e=function(t,n,r){return Math.round(d(t,n,r))}(t,n,r);return e<=0?0:e>=255?255:e}function w(t,n,r){return 0===t?n:1===t?r:{r:b(t,n.r,r.r),g:b(t,n.g,r.g),b:b(t,n.b,r.b),a:d(t,null==n.a?1:n.a,null==r.a?1:r.a)}}function A(t,n,r){if(0===t)return n;if(1===t)return r;var e=n.length;if(e!==r.length)return y(t,n,r);for(var i=[],u=0;u<e;u++)i.push(w(t,n[u],r[u]));return i}function x(t,n,r){var e=n.length;if(e!==r.length)return y(t,n,r);for(var i=new Array(e),u=0;u<e;u++)i[u]=d(t,n[u],r[u]);return i}function k(t,n){for(var r=[],e=0;e<t;e++)r.push(n);return r}function S(t,n){if(--n<=0)return t;var r=(t=Object.assign([],t)).length;do{for(var e=0;e<r;e++)t.push(t[e])}while(--n>0);return t}var _=6,M=/\.0+$/g;function I(t){return Number.isInteger(t)?t+"":t.toFixed(_).replace(M,"")}function E(t){var n=arguments.length>1&&void 0!==arguments[1]?arguments[1]:" ";return t&&t.length?t.map(I).join(n):""}function F(t){return I(t.x)+","+I(t.y)}function B(t){return t?null==t.a||t.a>=1?"rgb("+t.r+","+t.g+","+t.b+")":"rgba("+t.r+","+t.g+","+t.b+","+t.a+")":"transparent"}var j={f:null,i:p,u:function(t,n){return function(r){var e=n(r);t.setAttribute("rx",I(e.x)),t.setAttribute("ry",I(e.y))}}},q={f:null,i:function(t,n,r){return 0===t?n:1===t?r:{width:g(t,n.width,r.width),height:g(t,n.height,r.height)}},u:function(t,n){return function(r){var e=n(r);t.setAttribute("width",I(e.width)),t.setAttribute("height",I(e.height))}}},P=Math.sin,O=Math.cos,z=Math.acos,L=Math.asin,C=Math.tan,R=Math.atan2,T=Math.PI/180,V=180/Math.PI,D=Math.sqrt,N=function(){function t(){var r=arguments.length>0&&void 0!==arguments[0]?arguments[0]:1,e=arguments.length>1&&void 0!==arguments[1]?arguments[1]:0,i=arguments.length>2&&void 0!==arguments[2]?arguments[2]:0,u=arguments.length>3&&void 0!==arguments[3]?arguments[3]:1,o=arguments.length>4&&void 0!==arguments[4]?arguments[4]:0,a=arguments.length>5&&void 0!==arguments[5]?arguments[5]:0;n(this,t),this.m=[r,e,i,u,o,a],this.i=null,this.w=null,this.s=null}return e(t,[{key:"point",value:function(t,n){var r=this.m;return{x:r[0]*t+r[2]*n+r[4],y:r[1]*t+r[3]*n+r[5]}}},{key:"translateSelf",value:function(){var t=arguments.length>0&&void 0!==arguments[0]?arguments[0]:0,n=arguments.length>1&&void 0!==arguments[1]?arguments[1]:0;if(!t&&!n)return this;var r=this.m;return r[4]+=r[0]*t+r[2]*n,r[5]+=r[1]*t+r[3]*n,this.w=this.s=this.i=null,this}},{key:"rotateSelf",value:function(){var t=arguments.length>0&&void 0!==arguments[0]?arguments[0]:0;if(t%=360){var n=P(t*=T),r=O(t),e=this.m,i=e[0],u=e[1];e[0]=i*r+e[2]*n,e[1]=u*r+e[3]*n,e[2]=e[2]*r-i*n,e[3]=e[3]*r-u*n,this.w=this.s=this.i=null}return this}},{key:"scaleSelf",value:function(){var t=arguments.length>0&&void 0!==arguments[0]?arguments[0]:1,n=arguments.length>1&&void 0!==arguments[1]?arguments[1]:1;if(1!==t||1!==n){var r=this.m;r[0]*=t,r[1]*=t,r[2]*=n,r[3]*=n,this.w=this.s=this.i=null}return this}},{key:"skewSelf",value:function(t,n){if(n%=360,(t%=360)||n){var r=this.m,e=r[0],i=r[1],u=r[2],o=r[3];t&&(t=C(t*T),r[2]+=e*t,r[3]+=i*t),n&&(n=C(n*T),r[0]+=u*n,r[1]+=o*n),this.w=this.s=this.i=null}return this}},{key:"resetSelf",value:function(){var t=arguments.length>0&&void 0!==arguments[0]?arguments[0]:1,n=arguments.length>1&&void 0!==arguments[1]?arguments[1]:0,r=arguments.length>2&&void 0!==arguments[2]?arguments[2]:0,e=arguments.length>3&&void 0!==arguments[3]?arguments[3]:1,i=arguments.length>4&&void 0!==arguments[4]?arguments[4]:0,u=arguments.length>5&&void 0!==arguments[5]?arguments[5]:0,o=this.m;return o[0]=t,o[1]=n,o[2]=r,o[3]=e,o[4]=i,o[5]=u,this.w=this.s=this.i=null,this}},{key:"recomposeSelf",value:function(){var t=arguments.length>0&&void 0!==arguments[0]?arguments[0]:null,n=arguments.length>1&&void 0!==arguments[1]?arguments[1]:null,r=arguments.length>2&&void 0!==arguments[2]?arguments[2]:null,e=arguments.length>3&&void 0!==arguments[3]?arguments[3]:null,i=arguments.length>4&&void 0!==arguments[4]?arguments[4]:null;return this.isIdentity||this.resetSelf(),t&&(t.x||t.y)&&this.translateSelf(t.x,t.y),n&&this.rotateSelf(n),r&&(r.x&&this.skewSelf(r.x,0),r.y&&this.skewSelf(0,r.y)),!e||1===e.x&&1===e.y||this.scaleSelf(e.x,e.y),i&&(i.x||i.y)&&this.translateSelf(i.x,i.y),this}},{key:"decompose",value:function(){var t=arguments.length>0&&void 0!==arguments[0]?arguments[0]:0,n=arguments.length>1&&void 0!==arguments[1]?arguments[1]:0,r=this.m,e=r[0]*r[0]+r[1]*r[1],i=[[r[0],r[1]],[r[2],r[3]]],u=D(e);if(0===u)return{origin:{x:r[4],y:r[5]},translate:{x:t,y:n},scale:{x:0,y:0},skew:{x:0,y:0},rotate:0};i[0][0]/=u,i[0][1]/=u;var o=r[0]*r[3]-r[1]*r[2]<0;o&&(u=-u);var a=i[0][0]*i[1][0]+i[0][1]*i[1][1];i[1][0]-=i[0][0]*a,i[1][1]-=i[0][1]*a;var l=D(i[1][0]*i[1][0]+i[1][1]*i[1][1]);if(0===l)return{origin:{x:r[4],y:r[5]},translate:{x:t,y:n},scale:{x:u,y:0},skew:{x:0,y:0},rotate:0};i[1][0]/=l,i[1][1]/=l,a/=l;var f=0;return i[1][1]<0?(f=z(i[1][1])*V,i[0][1]<0&&(f=360-f)):f=L(i[0][1])*V,o&&(f=-f),a=R(a,D(i[0][0]*i[0][0]+i[0][1]*i[0][1]))*V,{origin:{x:r[4],y:r[5]},translate:{x:t,y:n},scale:{x:u,y:l},skew:{x:a,y:0},rotate:f}}},{key:"toString",value:function(){return null===this.s&&(this.s="matrix("+this.m.map($).join(" ")+")"),this.s}},{key:"determinant",get:function(){var t=this.m;return t[0]*t[3]-t[1]*t[2]}},{key:"isIdentity",get:function(){if(null===this.i){var t=this.m;this.i=1===t[0]&&0===t[1]&&0===t[2]&&1===t[3]&&0===t[4]&&0===t[5]}return this.i}}]),t}(),G=/\.0+$/;function $(t){return Number.isInteger(t)?t:t.toFixed(14).replace(G,"")}Object.freeze({M:2,L:2,Z:0,H:1,V:1,C:6,Q:4,T:2,S:4,A:7});function H(t,n,r){return t+(n-t)*r}function Q(t,n,r){var e=arguments.length>3&&void 0!==arguments[3]&&arguments[3],i={x:H(t.x,n.x,r),y:H(t.y,n.y,r)};return e&&(i.a=function(t,n){return Math.atan2(n.y-t.y,n.x-t.x)}(t,n)),i}function U(t,n,r,e){var i=1-e;return i*i*t+2*i*e*n+e*e*r}function Y(t,n,r,e){return 2*(1-e)*(n-t)+2*e*(r-n)}function Z(t,n,r,e){var i=arguments.length>4&&void 0!==arguments[4]&&arguments[4],u={x:U(t.x,n.x,r.x,e),y:U(t.y,n.y,r.y,e)};return i&&(u.a=function(t,n,r,e){return Math.atan2(Y(t.y,n.y,r.y,e),Y(t.x,n.x,r.x,e))}(t,n,r,e)),u}function J(t,n,r,e,i){var u=i*i;return i*u*(e-t+3*(n-r))+3*u*(t+r-2*n)+3*i*(n-t)+t}function K(t,n,r,e,i){var u=1-i;return 3*(u*u*(n-t)+2*u*i*(r-n)+i*i*(e-r))}function W(t,n,r,e,i){var u=arguments.length>5&&void 0!==arguments[5]&&arguments[5],o={x:J(t.x,n.x,r.x,e.x,i),y:J(t.y,n.y,r.y,e.y,i)};return u&&(o.a=function(t,n,r,e,i){return Math.atan2(K(t.y,n.y,r.y,e.y,i),K(t.x,n.x,r.x,e.x,i))}(t,n,r,e,i)),o}function X(t,n,r){var e,i=arguments.length>3&&void 0!==arguments[3]&&arguments[3];if(nt(n)){if(null!=(e=r).start&&!nt(e))return Z(n,r.start,r,t,i)}else if(nt(r)){if(n.end)return Z(n,n.end,r,t,i)}else{if(n.end)return r.start?W(n,n.end,r.start,r,t,i):Z(n,n.end,r,t,i);if(r.start)return Z(n,r.start,r,t,i)}return Q(n,r,t,i)}function tt(t,n,r){var e=X(t,n,r,!0);return e.a=function(t){return arguments.length>1&&void 0!==arguments[1]&&arguments[1]?t+Math.PI:t}(e.a)/h,e}function nt(t){return!t.type||"corner"===t.type}var rt=new N;var et={f:function(t){return t?t.join(" "):""},i:function(n,r,e){if(0===n)return r;if(1===n)return e;var i=r.length;if(i!==e.length)return y(n,r,e);for(var u,o=new Array(i),a=0;a<i;a++){if((u=t(r[a]))!==t(e[a]))return y(n,r,e);if("number"===u)o[a]=d(n,r[a],e[a]);else{if(r[a]!==e[a])return y(n,r,e);o[a]=r[a]}}return o}},it={f:null,i:x,u:function(t,n){return function(r){var e=n(r);t.setAttribute("x1",I(e[0])),t.setAttribute("y1",I(e[1])),t.setAttribute("x2",I(e[2])),t.setAttribute("y2",I(e[3]))}}},ut={f:I,i:d},ot={f:I,i:function(t,n,r){var e=d(t,n,r);return e<=0?0:e>=1?1:e}},at={f:E,i:function(t,n,r){var e,i,u,o=n.length,a=r.length;if(o!==a)if(0===o)n=k(o=a,0);else if(0===a)a=o,r=k(o,0);else{var l=(u=(e=o)*(i=a)/function(t,n){for(var r;n;)r=n,n=t%n,t=r;return t||1}(e,i))<0?-u:u;n=S(n,Math.floor(l/o)),r=S(r,Math.floor(l/a)),o=a=l}for(var f=[],s=0;s<o;s++)f.push(v(g(t,n[s],r[s]),6));return f}};function lt(t,n,r,e,i,u,o,a){return n=function(t,n,r){for(var e,i,u,o=t.length-1,a={},l=0;l<=o;l++)(e=t[l]).e&&(e.e=n(e.e)),e.v&&"g"===(i=e.v).t&&i.r&&(u=r.getElementById(i.r))&&(a[i.r]=u.querySelectorAll("stop"));return a}(t,e,a),function(e){var i,u=r(e,t,ft);return u?"c"===u.t?B(u.v):"g"===u.t?(n[u.r]&&function(t,n){for(var r=0,e=t.length;r<e;r++)t[r].setAttribute("stop-color",B(n[r]))}(n[u.r],u.v),(i=u.r)?"url(#"+i+")":"none"):"none":"none"}}function ft(t,n,r){if(0===t)return n;if(1===t)return r;if(n&&r){var e=n.t;if(e===r.t)switch(n.t){case"c":return{t:e,v:w(t,n.v,r.v)};case"g":if(n.r===r.r)return{t:e,v:A(t,n.v,r.v),r:n.r}}}return y(t,n,r)}var st={blur:p,brightness:g,contrast:g,"drop-shadow":function(t,n,r){return 0===t?n:1===t?r:{blur:p(t,n.blur,r.blur),offset:m(t,n.offset,r.offset),color:w(t,n.color,r.color)}},grayscale:g,"hue-rotate":d,invert:g,opacity:g,saturate:g,sepia:g};function ct(t,n,r){if(0===t)return n;if(1===t)return r;var e=n.length;if(e!==r.length)return y(t,n,r);for(var i,u=[],o=0;o<e;o++){if(n[o].type!==r[o].type)return n;if(!(i=st[n[o].type]))return y(t,n,r);u.push({type:n.type,value:i(t,n[o].value,r[o].value)})}return u}var vt={blur:function(t){return t?function(n){t.setAttribute("stdDeviation",F(n))}:null},brightness:function(t,n,r){return(t=yt(r,n))?function(n){n=I(n),t.map((function(t){return t.setAttribute("slope",n)}))}:null},contrast:function(t,n,r){return(t=yt(r,n))?function(n){var r=I((1-n)/2);n=I(n),t.map((function(t){t.setAttribute("slope",n),t.setAttribute("intercept",r)}))}:null},"drop-shadow":function(t,n,r){var e=r.getElementById(n+"-blur");if(!e)return null;var i=r.getElementById(n+"-offset");if(!i)return null;var u=r.getElementById(n+"-flood");return u?function(t){e.setAttribute("stdDeviation",F(t.blur)),i.setAttribute("dx",I(t.offset.x)),i.setAttribute("dy",I(t.offset.y)),u.setAttribute("flood-color",B(t.color))}:null},grayscale:function(t){return t?function(n){t.setAttribute("values",E(function(t){return[.2126+.7874*(t=1-t),.7152-.7152*t,.0722-.0722*t,0,0,.2126-.2126*t,.7152+.2848*t,.0722-.0722*t,0,0,.2126-.2126*t,.7152-.7152*t,.0722+.9278*t,0,0,0,0,0,1,0]}(n)))}:null},"hue-rotate":function(t){return t?function(n){return t.setAttribute("values",I(n))}:null},invert:function(t,n,r){return(t=yt(r,n))?function(n){n=I(n)+" "+I(1-n),t.map((function(t){return t.setAttribute("tableValues",n)}))}:null},opacity:function(t,n,r){return(t=r.getElementById(n+"-A"))?function(n){return t.setAttribute("tableValues","0 "+I(n))}:null},saturate:function(t){return t?function(n){return t.setAttribute("values",I(n))}:null},sepia:function(t){return t?function(n){return t.setAttribute("values",E(function(t){return[.393+.607*(t=1-t),.769-.769*t,.189-.189*t,0,0,.349-.349*t,.686+.314*t,.168-.168*t,0,0,.272-.272*t,.534-.534*t,.131+.869*t,0,0,0,0,0,1,0]}(n)))}:null}};var ht=["R","G","B"];function yt(t,n){var r=ht.map((function(r){return t.getElementById(n+"-"+r)||null}));return-1!==r.indexOf(null)?null:r}var dt={fill:lt,"fill-opacity":ot,stroke:lt,"stroke-opacity":ot,"stroke-width":ut,"stroke-dashoffset":{f:I,i:d},"stroke-dasharray":at,opacity:ot,transform:function(n,r,e,i){if(!(n=function(n,r){if(!n||"object"!==t(n))return null;var e=!1;for(var i in n)n.hasOwnProperty(i)&&(n[i]&&n[i].length?(n[i].forEach((function(t){t.e&&(t.e=r(t.e))})),e=!0):delete n[i]);return e?n:null}(n,i)))return null;var u=function(t,i,u){var o=arguments.length>3&&void 0!==arguments[3]?arguments[3]:null;return n[t]?e(i,n[t],u):r&&r[t]?r[t]:o};return r&&r.a&&n.o?function(t){var r=e(t,n.o,tt);return rt.recomposeSelf(r,u("r",t,d,0)+r.a,u("k",t,m),u("s",t,m),u("t",t,m)).toString()}:function(t){return rt.recomposeSelf(u("o",t,X,null),u("r",t,d,0),u("k",t,m),u("s",t,m),u("t",t,m)).toString()}},"#filter":function(t,n,r,e,i,u,o,a){if(!n.items||!t||!t.length)return null;var l=function(t,n){var r=(t=t.map((function(t){return t&&vt[t[0]]?(n.getElementById(t[1]),vt[t[0]](n.getElementById(t[1]),t[1],n)):null}))).length;return function(n){for(var e=0;e<r;e++)t[e]&&t[e](n[e].value)}}(n.items,a);return l?(t=function(t,n){return t.map((function(t){return t.e=n(t.e),t}))}(t,e),function(n){l(r(n,t,ct))}):null},"#line":it,points:{f:E,i:x},d:et,r:ut,"#size":q,"#radius":j,_:function(t,n){if(Array.isArray(t))for(var r=0;r<t.length;r++)this[t[r]]=n;else this[t]=n}},gt=function(){function t(r){n(this,t),this.list=r,this.length=r.length}return e(t,[{key:"setAttribute",value:function(t,n){for(var r=this.list,e=0;e<this.length;e++)r[e].setAttribute(t,n)}},{key:"removeAttribute",value:function(t){for(var n=this.list,r=0;r<this.length;r++)n[r].removeAttribute(t)}},{key:"style",value:function(t,n){for(var r=this.list,e=0;e<this.length;e++)r[e].style[t]=n}}]),t}(),mt=/-./g,pt=function(t,n){return n.toUpperCase()};function bt(t){return"function"==typeof t?t:y}function wt(t){return t?"function"==typeof t?t:Array.isArray(t)?function(t){var n=arguments.length>1&&void 0!==arguments[1]?arguments[1]:o;if(!Array.isArray(t))return n;switch(t.length){case 1:return c(t[0])||n;case 2:return c(t[0],t[1])||n;case 4:return l(t[0],t[1],t[2],t[3])||n}return n}(t,null):function(t,n){var r=arguments.length>2&&void 0!==arguments[2]?arguments[2]:o;switch(t){case"linear":return o;case"steps":return c(n.steps||1,n.jump||0)||r;case"bezier":case"cubic-bezier":return l(n.x1||0,n.y1||0,n.x2||0,n.y2||0)||r}return r}(t.type,t.value,null):null}function At(t,n,r){var e=arguments.length>3&&void 0!==arguments[3]&&arguments[3],i=n.length-1;if(t<=n[0].t)return e?[0,0,n[0].v]:n[0].v;if(t>=n[i].t)return e?[i,1,n[i].v]:n[i].v;var u,o=n[0],a=null;for(u=1;u<=i;u++){if(!(t>n[u].t)){a=n[u];break}o=n[u]}return null==a?e?[i,1,n[i].v]:n[i].v:o.t===a.t?e?[u,1,a.v]:a.v:(t=(t-o.t)/(a.t-o.t),o.e&&(t=o.e(t)),e?[u,t,r(t,o.v,a.v)]:r(t,o.v,a.v))}function xt(t,n){var r=arguments.length>2&&void 0!==arguments[2]?arguments[2]:null;return t&&t.length?"function"!=typeof n?null:("function"!=typeof r&&(r=null),function(e){var i=At(e,t,n);return null!=i&&r&&(i=r(i)),i}):null}function kt(t,n){return t.t-n.t}function St(n,r,e,i,u){var o,a="@"===e[0],l="#"===e[0],f=dt[e],s=y;switch(a?(o=e.substr(1),e=o.replace(mt,pt)):l&&(e=e.substr(1)),t(f)){case"function":if(s=f(i,u,At,wt,e,a,r,n),l)return s;break;case"string":s=xt(i,bt(f));break;case"object":if((s=xt(i,bt(f.i),f.f))&&"function"==typeof f.u)return f.u(r,s,e,a,n)}return s?function(t,n,r){if(arguments.length>3&&void 0!==arguments[3]&&arguments[3])return t instanceof gt?function(e){return t.style(n,r(e))}:function(e){return t.style[n]=r(e)};if(Array.isArray(n)){var e=n.length;return function(i){var u=r(i);if(null==u)for(var o=0;o<e;o++)t[o].removeAttribute(n);else for(var a=0;a<e;a++)t[a].setAttribute(n,u)}}return function(e){var i=r(e);null==i?t.removeAttribute(n):t.setAttribute(n,i)}}(r,e,s,a):null}function _t(n,r,e,i){if(!i||"object"!==t(i))return null;var u=null,o=null;return Array.isArray(i)?o=function(t){if(!t||!t.length)return null;for(var n=0;n<t.length;n++)t[n].e&&(t[n].e=wt(t[n].e));return t.sort(kt)}(i):(o=i.keys,u=i.data||null),o?St(n,r,e,o,u):null}function Mt(t,n,r){if(!r)return null;var e=[];for(var i in r)if(r.hasOwnProperty(i)){var u=_t(t,n,i,r[i]);u&&e.push(u)}return e.length?e:null}function It(t,n){if(!n.duration||n.duration<0)return null;var r=function(t,n){if(!n)return null;var r=[];if(Array.isArray(n))for(var e=n.length,i=0;i<e;i++){var u=n[i];if(2===u.length){var o=null;if("string"==typeof u[0])o=t.getElementById(u[0]);else if(Array.isArray(u[0])){o=[];for(var a=0;a<u[0].length;a++)if("string"==typeof u[0][a]){var l=t.getElementById(u[0][a]);l&&o.push(l)}o=o.length?1===o.length?o[0]:new gt(o):null}if(o){var f=Mt(t,o,u[1]);f&&(r=r.concat(f))}}}else for(var s in n)if(n.hasOwnProperty(s)){var c=t.getElementById(s);if(c){var v=Mt(t,c,n[s]);v&&(r=r.concat(v))}}return r.length?r:null}(t,n.elements);return r?function(t,n){var r=arguments.length>2&&void 0!==arguments[2]?arguments[2]:1/0,e=arguments.length>3&&void 0!==arguments[3]?arguments[3]:1,i=arguments.length>4&&void 0!==arguments[4]&&arguments[4],u=arguments.length>5&&void 0!==arguments[5]?arguments[5]:1,o=t.length,a=e>0?n:0;i&&r%2==0&&(a=n-a);var l=null;return function(f,s){var c=f%n,v=1+(f-c)/n;s*=e,i&&v%2==0&&(s=-s);var h=!1;if(v>r)c=a,h=!0,-1===u&&(c=e>0?0:n);else if(s<0&&(c=n-c),c===l)return!1;l=c;for(var y=0;y<o;y++)t[y](c);return h}}(r,n.duration,n.iterations||1/0,n.direction||1,!!n.alternate,n.fill||1):null}var Et=function(){function t(r){var e=arguments.length>1&&void 0!==arguments[1]?arguments[1]:{};n(this,t),this._id=0,this._running=!1,this._animations=r,this.direction=e.direction||1,this.speed=e.speed||1,this.fps=e.fps||100,this.offset=e.offset||0}return e(t,[{key:"_start",value:function(){var t=this,n=arguments.length>0&&void 0!==arguments[0]?arguments[0]:0,r=-1/0,e=null,i={},u=function u(o){t._running=!0,null==e&&(e=o);var a=Math.round((o-e+n)*t.speed),l=t.fps?1e3/t.fps:0;if(a>r+l){t.offset=a,r=a;for(var f=t._animations,s=f.length,c=0,v=0;v<s;v++)i[v]?c++:(i[v]=f[v](a,t.direction),i[v]&&c++);if(c===s)return void t._stop()}t._id=window.requestAnimationFrame(u)};this._id=window.requestAnimationFrame(u)}},{key:"_stop",value:function(){this._id&&window.cancelAnimationFrame(this._id),this._running=!1}},{key:"play",value:function(){this._running||this._start(this.offset)}},{key:"stop",value:function(){this._stop(),this.offset=0;var t=this.direction,n=this._animations;requestAnimationFrame((function(){for(var r=0;r<n.length;r++)n[r](0,t)}))}},{key:"restart",value:function(){this._stop(),this.offset=0,this._start()}},{key:"pause",value:function(){this._stop()}},{key:"reverse",value:function(){this.direction=-this.direction}}],[{key:"build",value:function(n){if(!(n=function(t){if(!t||!t.root||!Array.isArray(t.animations))return null;var n=window.document.getElementById(t.root);if(!n)return null;var r=t.animations.map((function(t){return It(n,t)})).filter((function(t){return!!t}));return r.length?{element:n,animations:r,options:t.options||void 0}:null}(n)))return null;var r=n.element,e=n.options||{},i=new t(n.animations,n.options);return function(t,n,r){var e=arguments.length>3&&void 0!==arguments[3]?arguments[3]:null;if("click"===r){return void n.addEventListener("click",(function r(){n.removeEventListener("click",r),t.play()}))}if("hover"===r)return n.addEventListener("mouseenter",(function(){return t.play()})),void n.addEventListener("mouseleave","freeze"===e?function(){return t.pause()}:function(){return t.stop()});t.play()}(i,r,e.start,e.hover),i}}]),t}();return function(){for(var t=0,n=["ms","moz","webkit","o"],r=0;r<n.length&&!window.requestAnimationFrame;++r)window.requestAnimationFrame=window[n[r]+"RequestAnimationFrame"],window.cancelAnimationFrame=window[n[r]+"CancelAnimationFrame"]||window[n[r]+"CancelRequestAnimationFrame"];window.requestAnimationFrame||(window.requestAnimationFrame=function(n){var r=Date.now(),e=Math.max(0,16-(r-t)),i=window.setTimeout((function(){n(r+e)}),e);return t=r+e,i},window.cancelAnimationFrame=window.clearTimeout)}(),Et}));
__SVGATOR_PLAYER__.build({"root":"esmh148q94xj1","animations":[{"duration":3000,"direction":1,"iterations":0,"fill":1,"alternate":false,"elements":{"esmh148q94xj2":{"transform":{"data":{"o":{"x":63.9,"y":64,"type":"corner"},"t":{"x":-63.9,"y":-64}},"keys":{"s":[{"t":0,"v":{"x":0,"y":0},"e":[0.39,0.575,0.565,1]},{"t":300,"v":{"x":1,"y":1},"e":[0.39,0.575,0.565,1]}]}}},"esmh148q94xj3":{"transform":{"data":{"o":{"x":63.9,"y":64,"type":"corner"},"t":{"x":-63.9,"y":-64}},"keys":{"s":[{"t":250,"v":{"x":0,"y":0},"e":[0.42,0,0.58,1]},{"t":600,"v":{"x":1,"y":1},"e":[0.42,0,0.58,1]}]}}},"esmh148q94xj31":{"opacity":[{"t":850,"v":0,"e":[1,1]},{"t":950,"v":1,"e":[1,1]},{"t":1050,"v":0,"e":[1,1]},{"t":1150,"v":1,"e":[1,1]},{"t":1250,"v":0,"e":[1,1]}]},"esmh148q94xj32":{"opacity":[{"t":850,"v":0,"e":[1,1]},{"t":950,"v":1,"e":[1,1]},{"t":1050,"v":0,"e":[1,1]},{"t":1150,"v":1,"e":[1,1]},{"t":1250,"v":0,"e":[1,1]}]}}}],"options":{"start":"load","hover":"freeze"}})]]></script></svg>