<?xml version="1.0" encoding="utf-8"?>
<!-- Generator: Adobe Illustrator 24.0.2, SVG Export Plug-In . SVG Version: 6.00 Build 0)  -->
<svg version="1.1" id="Layer_1" xmlns="http://www.w3.org/2000/svg" xmlns:xlink="http://www.w3.org/1999/xlink" x="0px" y="0px"
	 viewBox="0 0 128 128" style="enable-background:new 0 0 128 128;" xml:space="preserve">
<style type="text/css">
	.st0{fill-rule:evenodd;clip-rule:evenodd;fill:#FFD9FF;}
	.st1{fill-rule:evenodd;clip-rule:evenodd;fill:#FFE888;}
	.st2{fill-rule:evenodd;clip-rule:evenodd;fill:#EABA5C;}
	.st3{fill:none;stroke:#44392E;stroke-width:1.7948;stroke-linecap:round;stroke-linejoin:round;}
	.st4{fill:none;stroke:#44392E;stroke-width:1.5189;stroke-linecap:round;stroke-linejoin:round;}
	.st5{fill-rule:evenodd;clip-rule:evenodd;fill:#FFFFFF;}
	.st6{fill:none;stroke:#44392E;stroke-width:1.5189;}
	.st7{fill-rule:evenodd;clip-rule:evenodd;fill:#44392E;}
	.st8{fill:none;stroke:#F930E7;stroke-width:1.5588;}
	.st9{fill-rule:evenodd;clip-rule:evenodd;fill:#F930E7;}
	.st10{fill:none;stroke:#44392E;stroke-width:1.2772;stroke-linecap:round;}
	.st11{fill:none;stroke:#FFFFFF;stroke-width:4.864;stroke-linecap:round;stroke-linejoin:round;}
	.st12{fill:none;stroke:#44392E;stroke-width:1.9314;stroke-linecap:round;}
</style>
<path id="Fill-1_2_" class="st0" d="M64,0.3c35.3,0,64,28.5,64,63.7s-28.7,63.7-64,63.7S0,99.2,0,64S28.7,0.3,64,0.3"/>
<g>
	<path id="Fill-3_2_" class="st1" d="M87.4,96.3c4.5-4.2,8.6-8.7,12.4-13.6c2.5,0.7,5.2,0.5,7.6-0.7c-2.1-1.8-3.9-3.9-5.4-6.2
		c3.4,1.3,7.2,1,10.3-1c0,0-9.8-5.6-11.2-10.1c-5.2-16.7-4.8-18.2-4.8-18.2c3-8.1,5.4-17.3,3-20.4c-3-3.9-6.6,2.2-15.7,8.5
		c0,0-5.4-5.3-20-5.3c-6.8,0.4-13.3,2.2-19.4,5.4c-4.1-3.1-6.8-6-10.1-7.9c-5-3.1-7.4-0.3-5.5,6.2c0.8,2.6,1.9,8.4,3,13.5
		c0.8,3.7,0,2.8-3,14.2c-1,2.8-2.4,5.4-4,7.8c-2.2,3.1-5.5,5.4-9.1,6.2c3.1,2,6.9,2.3,10.3,1c-1.5,2.4-3.3,4.5-5.4,6.2
		c2.4,1.2,5,1.4,7.6,0.7c2.5,5.6,6.8,10.1,12.1,13c0,0,6.1,7.4,23.6,7.4C79.5,103.1,87.4,96.3,87.4,96.3"/>
	<path id="Fill-5_2_" class="st2" d="M49.6,32c0,0-17.8,17.3-15.4,40.8c2.6,25.9,29.5,30.3,29.5,30.3c-14.4-0.2-27.8-7.9-35.5-20.3
		c0,0-5.1,1.9-7.6-0.7c0,0,4.6-3.1,5.4-6.2c-3.4,1.4-7.3,1.1-10.3-1c4.4-1.2,8.2-4.2,10.4-8.3C31.9,56.5,32.1,39.9,49.6,32"/>
	<path id="Fill-7_2_" class="st2" d="M86.6,37.9c0,0,3.5-3.1,7.6-6.2c3-2.4,4.6-2.5,5.4,0.2l-3.7,16.2l-3.4-2.3L89.6,41L86.6,37.9z
		 M41.5,37.9c0,0-3.5-3.1-7.6-6.2c-3-2.4-4.6-2.5-5.4,0.2l3.7,16l3.5-2.2l2.8-4.7L41.5,37.9z"/>
	<path id="Stroke-9_1_" class="st3" d="M28.2,82.7c-2.5,0.7-5.2,0.5-7.6-0.7c2.1-1.8,3.9-3.9,5.4-6.2c-3.4,1.3-7.2,1-10.3-1
		c4.5-1.1,8.3-4.1,10.4-8.3c2.5-4.9,5.7-14.6,8.4-19.6c6.8-12.7,15.6-17.7,29.2-17.7c12.6-0.7,24.4,6.3,30,17.8
		c2.7,4.9,5.9,14.6,8.4,19.6c2.1,4.2,5.9,7.2,10.4,8.3c-3.1,1.9-6.9,2.3-10.3,1c1.5,2.4,3.3,4.5,5.4,6.2c-2.4,1.2-5,1.4-7.6,0.7
		c0,0-12.4,20.2-36,20.2S28.2,82.7,28.2,82.7z"/>
	<path id="Stroke-11_1_" class="st4" d="M83.7,34.7l10-7.9c3.7-2.9,7.4-1.5,6.1,4.4c-0.9,3.9-3.9,16.8-3.9,16.8 M43.7,34.4L34.2,27
		c-3.7-2.9-7.4-1.5-6.1,4.4c0.9,3.9,4,16.7,4,16.7"/>
	<path id="Fill-13_2_" class="st5" d="M40.7,44.8c6.9,0,12.5,5.7,12.5,12.8c0,7.1-5.6,12.8-12.5,12.8c-6.9,0-12.5-5.7-12.5-12.8
		C28.2,50.5,33.8,44.8,40.7,44.8"/>
	<path id="Stroke-15_1_" class="st6" d="M40.7,44.8c6.9,0,12.5,5.7,12.5,12.8c0,7.1-5.6,12.8-12.5,12.8c-6.9,0-12.5-5.7-12.5-12.8
		C28.2,50.5,33.8,44.8,40.7,44.8z"/>
	<path id="Fill-17_1_" class="st7" d="M40.7,49.3c4.2,0,7.7,3.5,7.7,7.9S45,65,40.7,65s-7.7-3.5-7.7-7.9S36.5,49.3,40.7,49.3"/>
	<path id="Stroke-19_1_" class="st8" d="M40.7,49.3c4.2,0,7.7,3.5,7.7,7.9S45,65,40.7,65s-7.7-3.5-7.7-7.9S36.5,49.3,40.7,49.3z"/>
	<path id="Fill-21_1_" class="st5" d="M38.1,49.2c1.4-1.4,3.7-1.4,5.1,0c1.4,1.4,1.4,3.8,0,5.2c-1.4,1.4-3.7,1.4-5.1,0
		C36.7,52.9,36.7,50.6,38.1,49.2"/>
	<path id="Fill-23_1_" class="st5" d="M87.5,44.8c6.9,0,12.5,5.7,12.5,12.8c0,7.1-5.6,12.8-12.5,12.8c-6.9,0-12.5-5.7-12.5-12.8
		C75,50.5,80.6,44.8,87.5,44.8"/>
	<path id="Stroke-25_1_" class="st6" d="M87.5,44.8c6.9,0,12.5,5.7,12.5,12.8c0,7.1-5.6,12.8-12.5,12.8c-6.9,0-12.5-5.7-12.5-12.8
		C75,50.5,80.6,44.8,87.5,44.8z"/>
	<path id="Fill-27_1_" class="st7" d="M87.6,49.9c4.2,0,7.7,3.5,7.7,7.9s-3.4,7.9-7.7,7.9c-4.2,0-7.7-3.5-7.7-7.9
		S83.4,49.9,87.6,49.9"/>
	<path id="Stroke-29_1_" class="st8" d="M87.6,49.9c4.2,0,7.7,3.5,7.7,7.9s-3.4,7.9-7.7,7.9c-4.2,0-7.7-3.5-7.7-7.9
		S83.4,49.9,87.6,49.9z"/>
	<path id="Fill-31_1_" class="st5" d="M85,49.8c1.4-1.4,3.7-1.4,5.1,0c1.4,1.4,1.4,3.8,0,5.2c-1.4,1.4-3.7,1.4-5.1,0
		C83.6,53.5,83.6,51.2,85,49.8"/>
	<path id="Fill-33_1_" class="st7" d="M71.2,79.8c0.1,4.2-2.9,7.9-7,8.5c-4.1-0.6-7.2-4.2-7.1-8.5l7-4.2L71.2,79.8z"/>
	<path id="Fill-35_1_" class="st9" d="M69.9,84.8c-3-3.2-8-3.4-11.2-0.3c-0.1,0.1-0.2,0.2-0.3,0.3l5.8,2.6L69.9,84.8z"/>
	<path id="Stroke-37_1_" class="st10" d="M59.3,84.5c1.3-1.3,3.1-2,4.9-1.9c1.6-0.1,3.1,0.4,4.4,1.4"/>
	<path id="Stroke-39_1_" class="st11" d="M63.7,77.7h1"/>
	<path id="Fill-41_1_" class="st7" d="M82.5,78.2c-1.6,1.4-3.6,2.3-5.7,2.5c-2.1,0.3-4.2,0.1-6.2-0.6c-2.1-0.5-4-1.6-5.6-3.1
		c-0.8-0.9-1.4-1.9-1.6-3.1c0-0.6,0-1.1,0-1.7v-1.5c0-0.7,0.5-1.2,1.1-1.3h0c0.7,0,1.2,0.5,1.2,1.2V72c0,0.4,0,0.9,0,1.3
		c0.1,0.8,0.5,1.6,1,2.2c1.2,1.4,2.8,2.5,4.6,3.1c3.6,1.5,7.7,1,10.9-1.2c0.2-0.2,0.5-0.2,0.6,0c0.1,0.2,0,0.5-0.2,0.6
		C82.5,78.2,82.5,78.2,82.5,78.2"/>
	<path id="Fill-43_1_" class="st7" d="M47.3,77.5c1.5,1.2,3.3,1.9,5.2,1.9c1.9,0.1,3.8-0.3,5.5-1c1.7-0.6,3.2-1.7,4.3-3.1
		c0.5-0.6,0.7-1.4,0.7-2.2V70c0-0.7,0.5-1.2,1.2-1.2c0.7,0,1.2,0.5,1.2,1.2v3.1c-0.1,1.3-0.5,2.4-1.3,3.4c-1.4,1.7-3.4,3-5.5,3.6
		c-2,0.7-4,0.9-6.1,0.7c-2.1-0.2-4.1-1.1-5.7-2.5c-0.1-0.2-0.1-0.5,0.1-0.6C47.1,77.5,47.3,77.5,47.3,77.5L47.3,77.5z"/>
	<path id="Stroke-45_1_" class="st12" d="M71.2,80.8c-0.4,4-3.8,6.9-7.7,6.5c-3.4-0.3-6.1-3.1-6.4-6.5"/>
	<path id="Fill-47_1_" class="st7" d="M54.8,72.7c-4.6-1.1-9.4-0.9-14,0.4c-4.6,1.4-8.6,4.4-11.4,8.4c2.6-4.2,6.5-7.5,11.1-9.2
		c4.7-1.7,9.6-2.1,14.5-1.3c0.5,0.1,0.8,0.5,0.7,1C55.8,72.4,55.4,72.7,54.8,72.7L54.8,72.7L54.8,72.7z M58.2,69.9
		c-0.2-0.5-0.1-1.1,0.3-1.5c1.6-1.5,3.7-2.2,5.8-2.1c2-0.2,4.1,0.5,5.5,2c0.4,0.4,0.5,1,0.2,1.6c-0.3,0.7-0.9,1.2-1.7,1.2
		c-1.2,0-2.3,0.5-3,1.5l-0.2,0.2c-0.6,0.6-1.6,0.7-2.2,0.1c0,0-0.1-0.1-0.1-0.1c0,0-0.7-1.2-3-1.4c-0.7-0.1-1.4-0.6-1.6-1.3
		L58.2,69.9z"/>
	<path id="Fill-49_1_" class="st7" d="M73.2,70.9c4.9-0.8,9.8-0.4,14.5,1.3c4.6,1.7,8.5,5,11.1,9.2c-2.8-4-6.8-6.9-11.4-8.4
		c-4.5-1.3-9.3-1.5-13.9-0.4c-0.4,0.2-0.9,0-1.1-0.5c-0.2-0.4,0-1,0.5-1.1C72.9,71,73,71,73.2,70.9L73.2,70.9z M55,74.8
		c-3.1-0.4-6.3,0.2-9.1,1.7c-2.7,1.8-4.5,4.8-4.8,8.1c0.1-1.7,0.6-3.3,1.2-4.9c0.7-1.6,1.7-2.9,3-3.9c2.9-1.8,6.2-2.7,9.6-2.7
		c0.4,0,0.8,0.3,0.9,0.7c0,0,0,0,0,0.1C55.8,74.3,55.4,74.7,55,74.8L55,74.8z"/>
	<path id="Fill-51_1_" class="st7" d="M73.3,73.1c3.4-0.1,6.7,0.8,9.6,2.7c1.3,1,2.4,2.4,3,3.9c0.7,1.5,1.1,3.2,1.2,4.9
		c-0.4-3.3-2.2-6.3-4.8-8.1c-2.8-1.4-6-2-9.1-1.7c-0.5,0-0.9-0.4-0.9-0.9c0-0.5,0.3-0.9,0.8-0.9h0L73.3,73.1z"/>
</g>
</svg>
