<?xml version="1.0" encoding="UTF-8"?>
<svg width="45px" height="45px" viewBox="0 0 45 45" version="1.1" xmlns="http://www.w3.org/2000/svg" xmlns:xlink="http://www.w3.org/1999/xlink">
    <!-- Generator: Sketch 52.5 (67469) - http://www.bohemiancoding.com/sketch -->
    <title>Group 53</title>
    <desc>Created with Sketch.</desc>
    <g id="Page-2" stroke="none" stroke-width="1" fill="none" fill-rule="evenodd">
        <g id="Automate_Execute" transform="translate(-938.000000, -125.000000)">
            <g id="Group-7" transform="translate(135.000000, 120.000000)">
                <g id="Group-2-Copy-6" transform="translate(798.000000, 0.000000)">
                    <g id="Group-53" transform="translate(5.000000, 5.000000)">
                        <path d="M22.5,0 C34.9264286,0 45,10.0196341 45,22.3792683 C45,34.7389024 34.9264286,44.7585366 22.5,44.7585366 C10.0735714,44.7585366 0,34.7389024 0,22.3792683 C0,10.0196341 10.0735714,0 22.5,0" id="Fill-1" fill="#FFD9FF"></path>
                        <path d="M30.9961071,35.3416829 C32.5786071,33.8775366 34.0368214,32.2805854 35.3568214,30.5661951 C36.2418214,30.8186341 37.18575,30.7330244 38.0150357,30.3258293 C37.2736071,29.6969268 36.63075,28.9571707 36.1078929,28.1307073 C37.3036071,28.6004634 38.6461071,28.4753415 39.7389643,27.7904634 C39.7389643,27.7904634 36.2793214,25.8137561 35.7864643,24.2233902 C33.9543214,18.351439 34.0936071,17.8246098 34.0936071,17.8246098 C35.1650357,14.9819268 35.9996786,11.7331463 35.1650357,10.6685122 C34.0936071,9.30753659 32.8400357,11.4477805 29.6568214,13.6429024 C29.6568214,13.6429024 27.75075,11.7880244 22.62825,11.7880244 C20.2550357,11.9131463 17.9353929,12.5563171 15.8246786,13.6758293 C14.3675357,12.5782683 13.4246786,11.5685122 12.2686071,10.8880244 C10.5103929,9.79046341 9.67467857,10.7892439 10.32825,13.0831463 C10.5961071,14.0050976 11.00325,16.0355854 11.3996786,17.846561 C11.6889643,19.1416829 11.3996786,18.8453415 10.32825,22.8294878 C9.96503571,23.796439 9.49789286,24.7205854 8.93539286,25.5832683 C8.15646429,26.6874146 7.01539286,27.4666829 5.72110714,27.7783902 C6.81503571,28.4643659 8.15753571,28.5905854 9.35325,28.1197317 C8.83039286,28.9461951 8.18646429,29.6870488 7.44717857,30.3148537 C8.27432143,30.7220488 9.21825,30.8076585 10.10325,30.5563171 C10.99575,32.5132683 12.4903929,34.1179024 14.3568214,35.1221707 C14.3568214,35.1221707 16.4996786,37.7124146 22.6711071,37.7124146 C28.2318214,37.7124146 30.9961071,35.3416829 30.9961071,35.3416829" id="Fill-3" fill="#FFE888"></path>
                        <path d="M17.7105,12.7205122 C17.7105,12.7205122 11.4640714,18.7900244 12.2890714,27.0557561 C13.1997857,36.1545366 22.6712143,37.7130732 22.6712143,37.7130732 C17.5990714,37.6351463 12.9040714,34.9505122 10.1783571,30.5668537 C10.1783571,30.5668537 8.37835714,31.2253902 7.52121429,30.3253902 C7.52121429,30.3253902 9.13907143,29.2278293 9.42835714,28.1302683 C8.23692857,28.6373415 6.87835714,28.511122 5.79621429,27.7900244 C7.353,27.3707561 8.67514286,26.3214878 9.4605,24.8814878 C11.4962143,21.3473415 11.5497857,15.4973415 17.7105,12.7205122" id="Fill-5" fill="#EABA5C"></path>
                        <path d="M30.72825,14.795122 C30.72825,14.795122 31.9711071,13.697561 33.3853929,12.6 C34.4568214,11.754878 35.00325,11.7329268 35.2818214,12.6768293 L33.9650357,18.3731707 L32.7639643,17.5609756 L31.77825,15.8926829 L30.72825,14.795122 Z M14.8496786,14.795122 C14.8496786,14.795122 13.6078929,13.697561 12.1925357,12.6 C11.1211071,11.754878 10.5746786,11.7329268 10.2961071,12.6768293 L11.6139643,18.3182927 L12.8568214,17.5609756 L13.8425357,15.8926829 L14.8496786,14.795122 Z" id="Fill-7" fill="#EABA5C"></path>
                        <path d="M10.1785714,30.5666341 C9.28714286,30.8234634 8.33357143,30.7378537 7.5,30.3251707 C8.24035714,29.6973659 8.88428571,28.9565122 9.40714286,28.1300488 C8.21035714,28.6009024 6.86892857,28.4757805 5.775,27.7909024 C7.35321429,27.4166341 8.69142857,26.3530976 9.43928571,24.8812683 C10.3071429,23.147122 11.4535714,19.7337073 12.3857143,17.999561 C14.7642857,13.5434634 17.8714286,11.7884634 22.65,11.7884634 C27.0739286,11.5316341 31.2246429,13.9890732 33.2142857,18.0434634 C34.1464286,19.7776098 35.2928571,23.1910244 36.1607143,24.9251707 C36.9085714,26.397 38.2467857,27.4605366 39.825,27.8348049 C38.7310714,28.5185854 37.3896429,28.6437073 36.1928571,28.1739512 C36.7167857,29.0004146 37.3596429,29.7412683 38.1,30.3690732 C37.2717857,30.7762683 36.3278571,30.8629756 35.4428571,30.6105366 C35.4428571,30.6105366 31.0714286,37.7128537 22.7892857,37.7128537 C14.5071429,37.7128537 10.1785714,30.5666341 10.1785714,30.5666341 Z" id="Stroke-9" stroke="#44392E" stroke-width="0.631" stroke-linecap="round" stroke-linejoin="round"></path>
                        <path d="M29.6996786,13.6868049 L33.2139643,10.899 C34.4996786,9.87826829 35.8068214,10.3611951 35.3568214,12.4575366 C35.02575,13.8404634 33.9746786,18.3733902 33.9746786,18.3733902 M15.65325,13.5550976 L12.3114643,10.9758293 C11.0246786,9.95509756 9.71753571,10.4380244 10.1686071,12.5343659 C10.4996786,13.9172927 11.5603929,18.4172927 11.5603929,18.4172927" id="Stroke-11" stroke="#44392E" stroke-width="0.534" stroke-linecap="round" stroke-linejoin="round"></path>
                        <path d="M14.5715357,17.2319268 C16.99725,17.2319268 18.9643929,19.2459512 18.9643929,21.7319268 C18.9643929,24.2168049 16.99725,26.2319268 14.5715357,26.2319268 C12.14475,26.2319268 10.1786786,24.2168049 10.1786786,21.7319268 C10.1786786,19.2459512 12.14475,17.2319268 14.5715357,17.2319268" id="Fill-13" fill="#FFFFFF"></path>
                        <path d="M14.5715357,17.2319268 C16.99725,17.2319268 18.9643929,19.2459512 18.9643929,21.7319268 C18.9643929,24.2168049 16.99725,26.2319268 14.5715357,26.2319268 C12.14475,26.2319268 10.1786786,24.2168049 10.1786786,21.7319268 C10.1786786,19.2459512 12.14475,17.2319268 14.5715357,17.2319268 Z" id="Stroke-15" stroke="#44392E" stroke-width="0.534"></path>
                        <path d="M14.5929643,18.8011098 C16.0843929,18.8011098 17.2929643,20.0391585 17.2929643,21.5669634 C17.2929643,23.0947683 16.0843929,24.3328171 14.5929643,24.3328171 C13.1015357,24.3328171 11.8929643,23.0947683 11.8929643,21.5669634 C11.8929643,20.0391585 13.1015357,18.8011098 14.5929643,18.8011098" id="Fill-17" fill="#44392E"></path>
                        <path d="M14.5929643,18.8011098 C16.0843929,18.8011098 17.2929643,20.0391585 17.2929643,21.5669634 C17.2929643,23.0947683 16.0843929,24.3328171 14.5929643,24.3328171 C13.1015357,24.3328171 11.8929643,23.0947683 11.8929643,21.5669634 C11.8929643,20.0391585 13.1015357,18.8011098 14.5929643,18.8011098 Z" id="Stroke-19" stroke="#F930E7" stroke-width="0.548"></path>
                        <path d="M13.6648929,18.760939 C14.15775,18.2549634 14.9591786,18.2549634 15.4531071,18.7598415 C15.9470357,19.2647195 15.9470357,20.0856951 15.4541786,20.5916707 C14.96025,21.0976463 14.1598929,21.0976463 13.6659643,20.5927683 C13.1720357,20.0867927 13.1720357,19.2669146 13.6648929,18.760939" id="Fill-21" fill="#FFFFFF"></path>
                        <path d="M31.0389643,17.2319268 C33.46575,17.2319268 35.4328929,19.2459512 35.4328929,21.7319268 C35.4328929,24.2168049 33.46575,26.2319268 31.0389643,26.2319268 C28.61325,26.2319268 26.6461071,24.2168049 26.6461071,21.7319268 C26.6461071,19.2459512 28.61325,17.2319268 31.0389643,17.2319268" id="Fill-23" fill="#FFFFFF"></path>
                        <path d="M31.0389643,17.2319268 C33.46575,17.2319268 35.4328929,19.2459512 35.4328929,21.7319268 C35.4328929,24.2168049 33.46575,26.2319268 31.0389643,26.2319268 C28.61325,26.2319268 26.6461071,24.2168049 26.6461071,21.7319268 C26.6461071,19.2459512 28.61325,17.2319268 31.0389643,17.2319268 Z" id="Stroke-25" stroke="#44392E" stroke-width="0.534"></path>
                        <path d="M31.0714286,19.0095366 C32.5628571,19.0095366 33.7714286,20.2475854 33.7714286,21.7753902 C33.7714286,23.3031951 32.5628571,24.5423415 31.0714286,24.5423415 C29.58,24.5423415 28.3714286,23.3031951 28.3714286,21.7753902 C28.3714286,20.2475854 29.58,19.0095366 31.0714286,19.0095366" id="Fill-27" fill="#44392E"></path>
                        <path d="M31.0714286,19.0095366 C32.5628571,19.0095366 33.7714286,20.2475854 33.7714286,21.7753902 C33.7714286,23.3031951 32.5628571,24.5423415 31.0714286,24.5423415 C29.58,24.5423415 28.3714286,23.3031951 28.3714286,21.7753902 C28.3714286,20.2475854 29.58,19.0095366 31.0714286,19.0095366 Z" id="Stroke-29" stroke="#F930E7" stroke-width="0.548"></path>
                        <path d="M30.1486071,18.9725488 C30.6425357,18.4665732 31.4428929,18.4665732 31.9368214,18.9725488 C32.43075,19.4774268 32.43075,20.2973049 31.9378929,20.8032805 C31.4439643,21.3092561 30.6436071,21.3092561 30.1496786,20.804378 C29.65575,20.2984024 29.6546786,19.4785244 30.1486071,18.9725488" id="Fill-31" fill="#FFFFFF"></path>
                        <path d="M25.31775,29.5248293 C25.34775,31.0142195 24.2848929,32.292878 22.84275,32.4992195 C21.3941786,32.3027561 20.32275,31.0208049 20.3570357,29.5248293 L22.8213214,28.0420244 L25.31775,29.5248293 Z" id="Fill-33" fill="#44392E"></path>
                        <path d="M24.8353929,31.2804878 C23.7736071,30.1412195 22.0100357,30.0995122 20.8968214,31.1882927 C20.8668214,31.2179268 20.8368214,31.2497561 20.8068214,31.2804878 L22.8425357,32.1914634 L24.8353929,31.2804878 Z" id="Fill-35" fill="#F930E7"></path>
                        <path d="M21.1178571,31.1925732 C21.5732143,30.7272073 22.2010714,30.4835488 22.8428571,30.523061 C23.3925,30.5033049 23.9314286,30.6723293 24.375,31.0059878" id="Stroke-37" stroke="#44392E" stroke-width="0.449" stroke-linecap="round"></path>
                        <path d="M22.6606071,28.8109756 L23.0248929,28.8109756" id="Stroke-39" stroke="#FFFFFF" stroke-width="1.71" stroke-linecap="round" stroke-linejoin="round"></path>
                        <path d="M29.2602857,28.9641951 C28.6881429,29.4526098 27.9874286,29.7577317 27.246,29.8433415 C26.5088571,29.9333415 25.7588571,29.862 25.0495714,29.6337073 C24.3124286,29.447122 23.6331429,29.0706585 23.0781429,28.5361463 C22.7888571,28.2332195 22.5885,27.8523659 22.4995714,27.4385854 C22.4877857,27.2377317 22.4877857,27.0357805 22.4995714,26.8360244 L22.4995714,26.297122 C22.4877857,26.0611463 22.6645714,25.8602927 22.896,25.847122 L22.8970714,25.847122 C23.1295714,25.8405366 23.3235,26.0260244 23.3352857,26.2641951 L23.3352857,26.802 C23.3192143,26.9589512 23.3192143,27.117 23.3352857,27.2739512 C23.3781429,27.5659024 23.5045714,27.837 23.7006429,28.0532195 C24.1399286,28.5537073 24.696,28.9312683 25.3174286,29.1507805 C26.5849286,29.6622439 28.0152857,29.5107805 29.1531429,28.7457805 C29.2185,28.6876098 29.3138571,28.6876098 29.3781429,28.7457805 C29.4156429,28.8215122 29.3835,28.9137073 29.3085,28.9499268 C29.2935,28.9576098 29.2774286,28.9630976 29.2602857,28.9641951" id="Fill-41" fill="#44392E"></path>
                        <path d="M16.9178571,28.7338171 C17.4342857,29.1585732 18.0771429,29.3912561 18.7392857,29.3934512 C19.4025,29.4143049 20.0635714,29.2946707 20.6785714,29.0411341 C21.2710714,28.8260122 21.7939286,28.4451585 22.1892857,27.9435732 C22.3489286,27.7207683 22.4346429,27.4518659 22.4357143,27.1752805 L22.4357143,26.0777195 C22.4303571,25.8417439 22.6114286,25.6452805 22.8428571,25.6397927 C23.0732143,25.6452805 23.2596429,25.8307683 23.2714286,26.0667439 L23.2714286,27.1643049 C23.2435714,27.6055244 23.0785714,28.0247927 22.8,28.3606463 C22.2921429,28.9686951 21.6214286,29.4110122 20.8714286,29.6338171 C20.1803571,29.8643049 19.4517857,29.9455244 18.7285714,29.8752805 C17.9871429,29.811622 17.2864286,29.4999146 16.7357143,28.9862561 C16.6864286,28.9182073 16.7003571,28.821622 16.7667857,28.7711341 C16.8171429,28.7327195 16.8867857,28.7305244 16.9392857,28.7667439 L16.9178571,28.7338171 Z" id="Fill-43" fill="#44392E"></path>
                        <path d="M25.31775,29.8752805 C25.19025,31.2757683 23.9795357,32.3052805 22.6123929,32.1746707 C21.4220357,32.0605244 20.4781071,31.0946707 20.36775,29.8752805" id="Stroke-45" stroke="#44392E" stroke-width="0.679" stroke-linecap="round"></path>
                        <path d="M19.5535714,27.022061 C17.9325,26.6455976 16.245,26.6949878 14.6464286,27.1647439 C13.035,27.669622 11.6303571,28.7024268 10.65,30.1062073 C11.5682143,28.6179146 12.9385714,27.4797439 14.55,26.8684024 C16.1871429,26.2866951 17.94,26.1308415 19.65,26.4184024 C19.8139286,26.446939 19.9264286,26.6005976 19.9071429,26.769622 C19.8867857,26.932061 19.7410714,27.0462073 19.5825,27.0253537 L19.5642857,27.022061 L19.5535714,27.022061 Z M20.7428571,26.0562073 C20.6775,25.8685244 20.7235714,25.6588902 20.8607143,25.5184024 C21.4125,24.997061 22.1475,24.7281585 22.8964286,24.772061 C23.6121429,24.699622 24.3235714,24.9564512 24.8357143,25.4745 C24.9642857,25.6259634 24.9964286,25.8388902 24.9214286,26.0232805 C24.8207143,26.2680366 24.5914286,26.4304756 24.3321429,26.4403537 C23.91,26.4271829 23.5082143,26.6280366 23.2607143,26.9781585 L23.1964286,27.0549878 C22.9917857,27.2821829 22.6457143,27.2964512 22.4239286,27.0879146 C22.4132143,27.076939 22.4025,27.0659634 22.3928571,27.0549878 C22.3928571,27.0549878 22.1571429,26.626939 21.3214286,26.5610854 C21.0621429,26.5314512 20.8414286,26.3525488 20.7535714,26.1001098 L20.7428571,26.0562073 Z" id="Fill-47" fill="#44392E"></path>
                        <path d="M25.9926429,26.418622 C27.7037143,26.131061 29.4555,26.2869146 31.0926429,26.868622 C32.7062143,27.4777683 34.0776429,28.615939 34.9926429,30.1053293 C34.0165714,28.6982561 32.6108571,27.6632561 30.9962143,27.1649634 C29.403,26.6952073 27.7176429,26.6458171 26.1008571,27.0222805 C25.9465714,27.0848415 25.7719286,27.0080122 25.7097857,26.851061 C25.6487143,26.6930122 25.7237143,26.5141098 25.878,26.4504512 C25.9112143,26.438378 25.9465714,26.4306951 25.9819286,26.4295976 L25.9926429,26.418622 Z M19.6069286,27.7675244 C18.5033571,27.6424024 17.388,27.8443537 16.3926429,28.3503293 C15.4455,28.9956951 14.823,30.0350854 14.6890714,31.1930122 C14.7415714,30.6025244 14.8862143,30.0241098 15.1176429,29.4808171 C15.3565714,28.9353293 15.7251429,28.4589878 16.1890714,28.0967927 C17.2069286,27.4602073 18.3822857,27.1364268 19.5747857,27.1649634 C19.728,27.1528902 19.8619286,27.2692317 19.8747857,27.4272805 C19.8747857,27.4349634 19.8747857,27.4426463 19.8747857,27.4492317 C19.8812143,27.616061 19.758,27.7565488 19.5962143,27.7675244 L19.6069286,27.7675244 Z" id="Fill-49" fill="#44392E"></path>
                        <path d="M26.046,27.1646341 C27.2385,27.1382927 28.4138571,27.4620732 29.4317143,28.097561 C29.901,28.4553659 30.2695714,28.9317073 30.5031429,29.4804878 C30.7345714,30.0237805 30.8802857,30.6021951 30.9327857,31.1926829 C30.7999286,30.0347561 30.1752857,28.9953659 29.2292143,28.35 C28.2338571,27.8429268 27.1185,27.6409756 26.0149286,27.7682927 C25.8435,27.7628049 25.7085,27.6146341 25.7138571,27.4390244 C25.7085,27.2754878 25.8327857,27.1382927 25.9924286,27.1317073 L26.0031429,27.1317073 L26.046,27.1646341 Z" id="Fill-51" fill="#44392E"></path>
                    </g>
                </g>
            </g>
        </g>
    </g>
</svg>