<?xml version="1.0" encoding="UTF-8"?>
<svg width="45px" height="46px" viewBox="0 0 45 46" version="1.1" xmlns="http://www.w3.org/2000/svg" xmlns:xlink="http://www.w3.org/1999/xlink">
    <!-- Generator: Sketch 52.5 (67469) - http://www.bohemiancoding.com/sketch -->
    <title>Group 10</title>
    <desc>Created with Sketch.</desc>
    <defs>
        <polygon id="path-1" points="1.45871501e-05 0.0312170385 44.9823551 0.0312170385 44.9823551 45.0912779 1.45871501e-05 45.0912779"></polygon>
    </defs>
    <g id="Page-2" stroke="none" stroke-width="1" fill="none" fill-rule="evenodd">
        <g id="Automate_Execute" transform="translate(-554.000000, -195.000000)">
            <g id="Group-7" transform="translate(135.000000, 120.000000)">
                <g id="Group-2-Copy" transform="translate(414.000000, 70.000000)">
                    <g id="Group-10" transform="translate(5.000000, 5.000000)">
                        <g id="Group-3" transform="translate(0.000000, 0.060061)">
                            <mask id="mask-2" fill="white">
                                <use xlink:href="#path-1"></use>
                            </mask>
                            <g id="Clip-2"></g>
                            <path d="M0.140111562,19.6094483 C1.68161258,9.6532211 8.74506085,2.90559432 18.3582657,0.40120284 C20.9626065,-0.27726572 25.2298479,0.179488844 25.4126775,0.2073286 C37.9533469,2.1179574 46.2536105,12.8968722 44.8221907,25.4179168 C43.4270081,37.6212231 31.6509736,46.6465071 19.4452028,44.8670446 C9.7278499,43.4502292 2.30723124,36.3994686 0.349229209,26.7411724 C0.227920892,26.1428458 -0.22627789,22.7480385 0.140111562,19.6094483" id="Fill-1" fill="#0A0819" mask="url(#mask-2)"></path>
                        </g>
                        <path d="M24.4548803,20.7735335 C25.4839473,20.7735335 26.3183185,21.6078134 26.3183185,22.6369716 C26.3183185,23.6660385 25.4839473,24.5003185 24.4548803,24.5003185 L19.6180649,24.5003185 C14.933501,24.5003185 11.1358844,20.7027018 11.1358844,16.0181379 C11.1358844,11.333574 14.933501,7.5359574 19.6180649,7.5359574 L32.0920101,7.5359574 C33.1210771,7.5359574 33.955357,8.37023732 33.955357,9.39930426 C33.955357,10.4284625 33.1210771,11.2627424 32.0920101,11.2627424 L19.6180649,11.2627424 C16.9917262,11.2627424 14.8626694,13.3917992 14.8626694,16.0181379 C14.8626694,18.6444767 16.9917262,20.7735335 19.6180649,20.7735335 L24.4548803,20.7735335 Z" id="Fill-4" fill="#FFFFFF"></path>
                        <path d="M20.6363702,24.5002819 C19.607212,24.5002819 18.772932,23.666002 18.772932,22.6369351 C18.772932,21.6078682 19.607212,20.773497 20.6363702,20.773497 L25.4731856,20.773497 C30.1578408,20.773497 33.9553661,24.5711136 33.9553661,29.2557688 C33.9553661,33.9403327 30.1578408,37.737858 25.4731856,37.737858 L12.9993316,37.737858 C11.9701734,37.737858 11.1358935,36.9036694 11.1358935,35.8745112 C11.1358935,34.8454442 11.9701734,34.011073 12.9993316,34.011073 L25.4731856,34.011073 C28.0995243,34.011073 30.2285811,31.8820162 30.2285811,29.2557688 C30.2285811,26.6293387 28.0995243,24.5002819 25.4731856,24.5002819 L20.6363702,24.5002819 Z" id="Fill-6" fill="#FFFFFF"></path>
                        <polygon id="Fill-8" fill="#FFFFFF" opacity="0.500813802" points="14.4716805 36.986285 11.4423499 34.8155142 30.4956968 8.22553448 33.5251187 10.396214"></polygon>
                    </g>
                </g>
            </g>
        </g>
    </g>
</svg>