<?xml version="1.0" encoding="UTF-8"?>
<svg width="45px" height="46px" viewBox="0 0 45 46" version="1.1" xmlns="http://www.w3.org/2000/svg" xmlns:xlink="http://www.w3.org/1999/xlink">
    <!-- Generator: Sketch 52.5 (67469) - http://www.bohemiancoding.com/sketch -->
    <title>Group 10</title>
    <desc>Created with Sketch.</desc>
    <defs>
        <polygon id="path-1" points="0 0.0362354125 44.9637827 0.0362354125 44.9637827 45 0 45"></polygon>
    </defs>
    <g id="Page-2" stroke="none" stroke-width="1" fill="none" fill-rule="evenodd">
        <g id="Automate_Execute" transform="translate(-746.000000, -125.000000)">
            <g id="Group-7" transform="translate(135.000000, 120.000000)">
                <g id="Group-2-Copy-4" transform="translate(606.000000, 0.000000)">
                    <g id="Group-10" transform="translate(5.000000, 5.000000)">
                        <g id="Group-3" transform="translate(0.000000, 0.054326)">
                            <mask id="mask-2" fill="white">
                                <use xlink:href="#path-1"></use>
                            </mask>
                            <g id="Clip-2"></g>
                            <path d="M22.4818913,0.0362354125 C34.8983602,0.0362354125 44.9637827,10.1016579 44.9637827,22.5181268 C44.9637827,34.9345956 34.8983602,45.0000181 22.4818913,45.0000181 C10.0655131,45.0000181 0,34.9345956 0,22.5181268 C0,10.1016579 10.0655131,0.0362354125 22.4818913,0.0362354125" id="Fill-1" fill="#2775CA" mask="url(#mask-2)"></path>
                        </g>
                        <path d="M18.2625664,38.2092736 C18.2625664,38.7344245 17.8370131,39.0332173 17.3480795,38.8792032 C10.5392264,36.6972012 5.62272736,30.3320101 5.62272736,22.7988109 C5.62272736,15.2837203 10.5392264,8.90947485 17.3571338,6.72738229 C17.8641761,6.57345875 18.2716207,6.87225151 18.2716207,7.39740241 L18.2716207,8.71027968 C18.2716207,9.06339839 18.0090453,9.46178873 17.6740352,9.5885493 C12.2776569,11.5714467 8.43862274,16.7505211 8.43862274,22.7988109 C8.43862274,28.8561549 12.2867113,34.0261751 17.6740352,35.9909638 C18.0090453,36.1176338 18.2716207,36.5161147 18.2716207,36.8692334 L18.2716207,38.2092736 L18.2625664,38.2092736 Z" id="Fill-4" fill="#FFFFFF"></path>
                        <path d="M23.8853119,33.3380644 C23.8853119,33.7274004 23.5684105,34.0443018 23.1790744,34.0443018 L21.7756539,34.0443018 C21.3863179,34.0443018 21.0694165,33.7274004 21.0694165,33.3380644 L21.0694165,31.1288089 C18,30.703165 16.5060362,29.0010423 16.0985915,26.6469175 C16.0261569,26.2394728 16.3430584,25.8954085 16.750503,25.8954085 L18.3531187,25.8954085 C18.6881288,25.8954085 18.9688129,26.1398753 19.0412475,26.4567767 C19.3400402,27.8420885 20.1458753,28.9194628 22.6086519,28.9194628 C24.4195171,28.9194628 25.7142857,27.8963239 25.7142857,26.3933964 C25.7142857,24.8813239 24.9627767,24.3017565 22.2917505,23.8671489 C18.3531187,23.3420885 16.4969819,22.146827 16.4969819,19.0683561 C16.4969819,16.6962133 18.3078471,14.8310221 21.0784708,14.4506499 L21.0784708,12.2686479 C21.0784708,11.8793119 21.3953722,11.5624105 21.7847082,11.5624105 L23.1881288,11.5624105 C23.5774648,11.5624105 23.8943662,11.8793119 23.8943662,12.2686479 L23.8943662,14.4959215 C26.1579477,14.9033662 27.5975855,16.1801167 28.0774648,18.325992 C28.168008,18.7334366 27.8511066,19.0956097 27.4255533,19.0956097 L25.9496982,19.0956097 C25.6327968,19.0956097 25.3702213,18.8872696 25.2796781,18.5885674 C24.8722334,17.2394728 23.9124748,16.6418873 22.2193159,16.6418873 C20.3541247,16.6418873 19.3943662,17.5382656 19.3943662,18.8058712 C19.3943662,20.1368571 19.9376258,20.8068773 22.7987928,21.2143219 C26.6649899,21.7393823 28.665996,22.8441006 28.665996,26.1307304 C28.665996,28.62067 26.8008048,30.6489296 23.9034205,31.1016459 L23.9034205,33.3471187 L23.8853119,33.3471187 L23.8853119,33.3380644 Z" id="Fill-6" fill="#FFFFFF"></path>
                        <path d="M27.6066036,38.8702213 C27.0995614,39.0241449 26.6921167,38.7253521 26.6921167,38.2002012 L26.6921167,36.8873239 C26.6921167,36.4979879 26.9184748,36.1358149 27.2897022,36.0090543 C32.6679718,34.0442656 36.5251147,28.8561368 36.5251147,22.8169014 C36.5251147,16.7595573 32.6770262,11.5895372 27.2897022,9.62474849 C26.9547827,9.49798793 26.6921167,9.09959759 26.6921167,8.74647887 L26.6921167,7.43360161 C26.6921167,6.9084507 27.1177606,6.60965795 27.6066036,6.76358149 C34.4246016,8.90945674 39.3411006,15.2837022 39.3411006,22.7987928 C39.3411006,30.331992 34.4246016,36.6971831 27.6066036,38.8702213" id="Fill-8" fill="#FFFFFF"></path>
                    </g>
                </g>
            </g>
        </g>
    </g>
</svg>