<?xml version="1.0" encoding="utf-8"?>
<!-- Generator: Adobe Illustrator 24.0.2, SVG Export Plug-In . SVG Version: 6.00 Build 0)  -->
<svg version="1.1" id="Layer_1" xmlns="http://www.w3.org/2000/svg" xmlns:xlink="http://www.w3.org/1999/xlink" x="0px" y="0px"
	 viewBox="0 0 128 128" style="enable-background:new 0 0 128 128;" xml:space="preserve">
<style type="text/css">
	.st0{fill:#2775CA;}
	.st1{fill-rule:evenodd;clip-rule:evenodd;fill:#FFFFFF;}
	
		.st2{fill-rule:evenodd;clip-rule:evenodd;fill:none;stroke:#FFFFFF;stroke-width:8;stroke-linecap:round;stroke-linejoin:round;stroke-miterlimit:10;}
</style>
<circle class="st0" cx="64" cy="64" r="64"/>
<g>
	<path id="Fill-6_1_" class="st1" d="M68.2,95.2c0,1.2-0.9,2.1-2.1,2.1h-4.2c-1.2,0-2.1-0.9-2.1-2.1v-6.6
		c-9.1-1.3-13.5-6.3-14.7-13.3c-0.2-1.2,0.7-2.2,1.9-2.2h4.8c1,0,1.8,0.7,2,1.7c0.9,4.1,3.3,7.3,10.6,7.3c5.4,0,9.2-3,9.2-7.5
		c0-4.5-2.2-6.2-10.2-7.5c-11.7-1.6-17.2-5.1-17.2-14.2c0-7,5.4-12.6,13.6-13.7v-6.5c0-1.2,0.9-2.1,2.1-2.1h4.2
		c1.2,0,2.1,0.9,2.1,2.1v6.6c6.7,1.2,11,5,12.4,11.4c0.3,1.2-0.7,2.3-1.9,2.3h-4.4c-0.9,0-1.7-0.6-2-1.5c-1.2-4-4.1-5.8-9.1-5.8
		c-5.5,0-8.4,2.7-8.4,6.4c0,3.9,1.6,5.9,10.1,7.1c11.5,1.6,17.4,4.8,17.4,14.6c0,7.4-5.5,13.4-14.1,14.7L68.2,95.2L68.2,95.2
		L68.2,95.2z"/>
</g>
<path id="Fill-8_2_" class="st2" d="M80,107c17.5-6.4,30-23.3,30-43c0-19.7-12.5-36.6-30-43"/>
<path id="Fill-8_1_" class="st2" d="M48,107c-17.5-6.4-30-23.3-30-43c0-19.7,12.5-36.6,30-43"/>
</svg>
