<?xml version="1.0" encoding="UTF-8"?>
<svg width="45px" height="46px" viewBox="0 0 45 46" version="1.1" xmlns="http://www.w3.org/2000/svg" xmlns:xlink="http://www.w3.org/1999/xlink">
    <!-- Generator: Sketch 52.5 (67469) - http://www.bohemiancoding.com/sketch -->
    <title>Group 8</title>
    <desc>Created with Sketch.</desc>
    <defs>
        <polygon id="path-1" points="0 0.0312170385 44.9823362 0.0312170385 44.9823362 45.0912744 0 45.0912744"></polygon>
    </defs>
    <g id="Page-2" stroke="none" stroke-width="1" fill="none" fill-rule="evenodd">
        <g id="Automate_Execute" transform="translate(-554.000000, -125.000000)">
            <g id="Group-7" transform="translate(135.000000, 120.000000)">
                <g id="Group-2" transform="translate(414.000000, 0.000000)">
                    <g id="Group-8" transform="translate(5.000000, 5.000000)">
                        <g id="Group-3" transform="translate(0.000000, 0.060061)">
                            <mask id="mask-2" fill="white">
                                <use xlink:href="#path-1"></use>
                            </mask>
                            <g id="Clip-2"></g>
                            <path d="M19.7529554,25.5672018 L19.7529554,36.2044533 L25.2805619,36.2044533 L25.2805619,25.5677495 C26.000288,25.5096055 26.644071,25.4636927 27.2866673,25.4044533 C29.6791521,25.1841998 32.0601359,24.9005081 34.334142,24.0596562 C34.8526004,23.8678813 35.3540811,23.6376785 35.7622759,23.2555892 C36.270785,22.7796663 36.2738884,22.3169787 35.7735943,21.8377698 C35.3690507,21.4502039 34.8649229,21.2241085 34.3486552,21.0283174 C32.5816065,20.3581552 30.7325903,20.0571207 28.8680568,19.8415223 C27.6849128,19.7046968 26.4965659,19.6128712 25.3293043,19.5026075 L25.3293043,16.1625669 L32.8642941,16.1625669 L32.8642941,11.1566136 L12.1178337,11.1566136 L12.1178337,16.2039158 L19.6832191,16.2039158 L19.6832191,19.5190375 C18.0562819,19.6454574 16.4630264,19.7411166 14.8886653,19.9970598 C13.0867485,20.2899706 11.2715051,20.565356 9.65661663,21.4905487 C8.53170791,22.1349706 8.53508519,22.8996968 9.62932454,23.5755183 C10.5347099,24.1345953 11.5538276,24.4015832 12.5759574,24.6459341 C14.8931379,25.1998083 17.2605213,25.383642 19.7529554,25.5672018 M0.140075051,19.6094939 C1.68157606,9.65317546 8.74502434,2.90563996 18.3582292,0.401157201 C20.96257,-0.277311359 25.2298114,0.179443205 25.412641,0.207282961 C37.9533103,2.11791176 46.2536653,12.8968266 44.8221542,25.4178712 C43.4270629,37.6212688 31.6509371,46.6465527 19.4451663,44.866999 C9.72781339,43.4502748 2.30719473,36.3995142 0.349192698,26.7411268 C0.227884381,26.1428915 -0.226314402,22.7479929 0.140075051,19.6094939" id="Fill-1" fill="#53AE94" mask="url(#mask-2)"></path>
                        </g>
                        <path d="M19.7278631,20.0236582 C17.4775892,20.0756866 15.3720822,20.3051592 13.289212,20.7369037 C12.4074675,20.919642 11.5272748,21.1295811 10.741646,21.5919037 C9.92470892,22.0726643 9.93447566,22.6107475 10.757072,23.0984452 C11.3653479,23.4590842 12.0391613,23.6561531 12.7224675,23.8120558 C17.1537353,24.8233235 21.6483499,24.8496116 26.1527312,24.6292667 C28.3760781,24.5204635 30.5886542,24.2811329 32.743999,23.6763256 C33.3229746,23.5138509 33.8979341,23.3318428 34.3922039,22.9775933 C34.9656116,22.566569 34.9698103,22.1334554 34.4128327,21.715859 C34.0283702,21.4276034 33.5822039,21.2521673 33.1268185,21.117715 C30.6394959,20.3832931 28.084354,20.1173093 25.5034716,20.0411836 C25.4399422,20.0392667 25.3746785,20.0984148 25.226717,20.1686988 L25.226717,23.7603012 C23.3551552,23.827573 21.5747799,23.8678266 19.7279544,23.7275325 C19.7278631,22.4559402 19.7278631,21.2883134 19.7278631,20.0236582 M19.7529645,25.6272992 C17.2605304,25.4436481 14.8930558,25.2598144 12.5761491,24.7060314 C11.553928,24.4616805 10.5349016,24.1946014 9.62951623,23.6355243 C8.5351856,22.9597941 8.53189959,22.195068 9.65680832,21.550646 C11.2716968,20.6254533 13.0869402,20.3501592 14.888857,20.0571572 C16.4632181,19.801214 18.0565649,19.7055548 19.6834108,19.5791349 L19.6834108,16.2640132 L12.1180254,16.2640132 L12.1180254,11.216711 L32.8644858,11.216711 L32.8644858,16.2226643 L25.3294959,16.2226643 L25.3294959,19.5627049 C26.4967576,19.6729686 27.6851045,19.7647941 28.8682485,19.9016197 C30.7325994,20.1173093 32.5817982,20.4182525 34.3488469,21.0884148 C34.8651146,21.2842059 35.3691511,21.5103012 35.773786,21.8978671 C36.2740801,22.3770761 36.2709767,22.8397637 35.7624675,23.3155953 C35.3542728,23.6977759 34.8527921,23.9278874 34.3342424,24.1197535 C32.060145,24.9606055 29.6791613,25.2442059 27.286859,25.4644594 C26.6442627,25.5236988 26.0004797,25.5696116 25.2807535,25.6277556 L25.2807535,36.2645507 L19.7531471,36.2645507 C19.7529645,32.73593 19.7529645,29.2237394 19.7529645,25.6272992" id="Fill-4" fill="#FDFEFD"></path>
                        <path d="M19.7278631,20.0236582 L19.7278631,23.7274412 C21.5747799,23.8678266 23.3550639,23.8274817 25.2266258,23.7602099 L25.2266258,20.1686075 C25.3745872,20.0983235 25.4398509,20.0391755 25.5033803,20.0410923 C28.0842627,20.1172181 30.6394047,20.3832018 33.1267272,21.1176237 C33.5821126,21.2520761 34.0282789,21.4275122 34.4127414,21.7157677 C34.9697191,22.1333641 34.9656116,22.566569 34.3921126,22.977502 C33.8978428,23.3317515 33.3228834,23.5137596 32.7439077,23.6762343 C30.5885629,24.2810416 28.3759868,24.5203722 26.15264,24.6291755 C21.6482586,24.8495203 17.153644,24.8232323 12.7223763,23.8119645 C12.03907,23.6560619 11.3652566,23.4589929 10.7569807,23.098354 C9.93438438,22.6105649 9.92461765,22.0724817 10.7415548,21.5918124 C11.5271836,21.1294899 12.4074675,20.9195507 13.2891207,20.7368124 C15.3719909,20.3051592 17.4775892,20.0756866 19.7278631,20.0236582" id="Fill-6" fill="#53AE94"></path>
                    </g>
                </g>
            </g>
        </g>
    </g>
</svg>