<?xml version="1.0" encoding="utf-8"?>
<!-- Generator: Adobe Illustrator 26.2.1, SVG Export Plug-In . SVG Version: 6.00 Build 0)  -->
<svg version="1.1" id="Layer_1" xmlns="http://www.w3.org/2000/svg" xmlns:xlink="http://www.w3.org/1999/xlink" x="0px" y="0px"
	 viewBox="0 0 193 55" style="enable-background:new 0 0 193 55;" xml:space="preserve">
<style type="text/css">
	.st0{opacity:0.15;fill-rule:evenodd;clip-rule:evenodd;enable-background:new    ;}
	.st1{fill-rule:evenodd;clip-rule:evenodd;fill:#FFFFFF;}
</style>
<path class="st0" d="M0.6,27.5c0,14.8,12,26.8,26.8,26.8c14.8,0,26.8-12,26.8-26.8c0-14.8-12-26.8-26.8-26.8
	C12.6,0.7,0.6,12.7,0.6,27.5z M2.6,27.5c0-13.6,11.1-24.7,24.8-24.7s24.8,11.1,24.8,24.7S41,52.3,27.4,52.3S2.6,41.2,2.6,27.5z"/>
<path class="st1" d="M27.4,54.3c-14.8,0-26.8-12-26.8-26.8s12-26.8,26.8-26.8C34.8,0.7,42,3.8,47,9.2l-1.5,1.4
	c-4.7-5-11.3-7.9-18.1-7.9C13.7,2.7,2.6,13.8,2.6,27.5s11.1,24.8,24.8,24.8c6.8,0,13.4-2.9,18.1-7.9l1.5,1.4
	C42,51.2,34.8,54.3,27.4,54.3z"/>
<path class="st1" d="M36.8,28.8H26.3V12.7h2.1v14h8.4V28.8z"/>
<path class="st1" d="M64.7,39.7c0-2.5,1.8-4.1,4.1-4.1c1.4,0,2.4,0.7,3.1,1.6L71,37.6c-0.5-0.7-1.3-1.2-2.2-1.2c-1.7,0-3,1.3-3,3.2
	c0,1.9,1.3,3.2,3,3.2c0.9,0,1.8-0.5,2.2-1.2l0.9,0.5c-0.7,0.9-1.6,1.6-3.1,1.6C66.5,43.8,64.7,42.2,64.7,39.7z"/>
<path class="st1" d="M82.4,40h-4.7v3.7h-1v-8h1v3.4h4.7v-3.4h1v8h-1V40z"/>
<path class="st1" d="M89.8,40.5h1.6l2,3.2h1.2l-2.2-3.3c1.1-0.1,2.1-0.9,2.1-2.3c0-1.5-1-2.4-2.5-2.4h-3.2v8h1V40.5z M89.8,36.6h2.1
	c0.9,0,1.6,0.6,1.6,1.5s-0.7,1.5-1.6,1.5h-2.1V36.6z"/>
<path class="st1" d="M107.3,39.7c0-2.4-1.6-4.1-4-4.1c-2.4,0-4,1.8-4,4.1c0,2.4,1.6,4.1,4,4.1C105.7,43.9,107.3,42.1,107.3,39.7z
	 M100.4,39.7c0-1.9,1.1-3.2,2.9-3.2c1.8,0,2.9,1.4,2.9,3.2c0,1.9-1.2,3.2-2.9,3.2C101.6,43,100.4,41.6,100.4,39.7z"/>
<path class="st1" d="M113.5,37.3v6.4h-1v-8h1l4.6,6.3v-6.3h1v8h-1L113.5,37.3z"/>
<path class="st1" d="M132.1,39.7c0-2.4-1.6-4.1-4-4.1c-2.4,0-4,1.8-4,4.1c0,2.4,1.6,4.1,4,4.1C130.5,43.8,132.1,42.1,132.1,39.7z
	 M125.2,39.7c0-1.9,1.1-3.2,2.9-3.2c1.8,0,2.9,1.4,2.9,3.2c0,1.9-1.2,3.2-2.9,3.2C126.4,43,125.2,41.6,125.2,39.7z"/>
<path class="st1" d="M145.3,35.8h1l0,7.1l3.7,0v0.9l-4.7,0L145.3,35.8z"/>
<path class="st1" d="M162.3,39.7c0-2.4-1.6-4.1-4-4.1c-2.4,0-4,1.8-4,4.1c0,2.4,1.6,4.1,4,4.1C160.7,43.9,162.3,42.1,162.3,39.7z
	 M155.4,39.8c0-1.9,1.1-3.2,2.9-3.3c1.8,0,2.9,1.4,2.9,3.2c0,1.9-1.1,3.2-2.9,3.3C156.5,43,155.4,41.6,155.4,39.8z"/>
<path class="st1" d="M171.2,35.6c1.4,0,2.4,0.6,3.1,1.5l-0.8,0.5c-0.5-0.6-1.4-1.1-2.3-1.1c-1.8,0-3.1,1.3-3.1,3.3
	c0,1.9,1.3,3.3,3.1,3.3c1,0,1.8-0.5,2.1-0.9v-1.6l-2.7,0v-0.9l3.7,0l0,2.9c-0.7,0.8-1.8,1.4-3.1,1.4c-2.3,0-4.1-1.7-4.1-4.1
	C167.1,37.2,168.9,35.6,171.2,35.6z"/>
<path class="st1" d="M179.5,35.7h1l0,8h-1L179.5,35.7z"/>
<path class="st1" d="M185.7,39.7c0-2.5,1.8-4.1,4.1-4.1c1.4,0,2.4,0.7,3.1,1.6l-0.8,0.5c-0.5-0.7-1.3-1.2-2.2-1.2
	c-1.7,0-3,1.3-3,3.3c0,1.9,1.3,3.2,3.1,3.2c0.9,0,1.8-0.5,2.2-1.2l0.9,0.5c-0.7,0.9-1.6,1.6-3.1,1.6
	C187.5,43.8,185.7,42.1,185.7,39.7z"/>
<path class="st1" d="M76,23.8l2.2,5.2h2.1l-7-16.4h-1.7l-7,16.4h2.1l2.2-5.2H76z M73.3,17l2.1,5.1h-5.7l2.1-5.1
	c0.3-0.9,0.6-1.6,0.8-2.4C72.8,15.6,73.1,16.4,73.3,17z"/>
<path class="st1" d="M95.5,12.7v10.5c0,1.9-0.6,3.3-1.8,4.4c-1.2,1.1-2.9,1.6-5,1.6c-2.1,0-3.8-0.5-5-1.6C82.5,26.5,82,25,82,23.2
	V12.7H84v10.6c0,1.4,0.4,2.4,1.2,3.1c0.8,0.7,2,1.1,3.6,1.1c1.5,0,2.6-0.4,3.5-1.1c0.8-0.7,1.2-1.8,1.2-3.2V12.7H95.5z"/>
<path class="st1" d="M105.7,29h-2.1V14.3h-5.6v-1.7h13.3v1.7h-5.6L105.7,29L105.7,29z"/>
<path class="st1" d="M126.6,26.9c1.4-1.5,2.2-3.5,2.2-6.2c0-2.6-0.7-4.7-2.2-6.2c-1.4-1.5-3.4-2.2-6-2.2c-2.6,0-4.6,0.7-6.1,2.2
	s-2.1,3.5-2.1,6.2c0,2.7,0.7,4.7,2.1,6.2c1.4,1.5,3.4,2.2,6,2.2C123.1,29.2,125.1,28.4,126.6,26.9z M116.1,25.8
	c-1-1.1-1.5-2.8-1.5-5c0-2.2,0.5-3.8,1.5-5c1-1.1,2.5-1.7,4.5-1.7c2,0,3.4,0.6,4.4,1.7c1,1.1,1.5,2.8,1.5,5c0,2.2-0.5,3.9-1.5,5
	c-1,1.1-2.5,1.7-4.4,1.7C118.6,27.5,117.2,27,116.1,25.8z"/>
<path class="st1" d="M140.2,29l-6-14.4h-0.1c0.1,1.1,0.2,2.5,0.2,4.1V29h-1.9V12.7h3.1l5.6,13.4h0.1l5.7-13.4h3.1V29h-2.1V18.5
	c0-1.2,0.1-2.5,0.2-3.9h-0.1L141.9,29H140.2z"/>
<path class="st1" d="M163.8,23.8L166,29h2.1l-7-16.4h-1.7l-7,16.4h2.1l2.2-5.2H163.8z M161.1,17l2.1,5.1h-5.7l2.1-5.1
	c0.3-0.9,0.6-1.6,0.8-2.4C160.6,15.6,160.8,16.4,161.1,17z"/>
<path class="st1" d="M174.4,29h-2.1V14.3h-5.6v-1.7H180v1.7h-5.6L174.4,29L174.4,29z"/>
<path class="st1" d="M192.5,29h-9.9V12.7h9.9v1.7h-7.8v5.3h7.3v1.7h-7.3v6h7.8V29z"/>
</svg>
