<?xml version="1.0" encoding="utf-8"?>
<!-- Generator: Adobe Illustrator 26.2.1, SVG Export Plug-In . SVG Version: 6.00 Build 0)  -->
<svg version="1.1" id="Layer_1" xmlns="http://www.w3.org/2000/svg" xmlns:xlink="http://www.w3.org/1999/xlink" x="0px" y="0px"
	 viewBox="0 0 250 250" style="enable-background:new 0 0 250 250;" xml:space="preserve">
<style type="text/css">
	.st0{fill:#F04444;}
</style>
<g>
	<path class="st0" d="M27.1,28.3c21.8,0,42.2-0.1,62.8,0.1c1.7,0,3.9,1.8,4.9,3.4c15.6,30.7,30.9,61.6,46.3,92.4
		c0.7,1.3,1,3.5,0.5,4.9c-10.4,21.1-20.8,42.1-31.9,64.1C82.1,138,54.9,83.9,27.1,28.3z"/>
	<path class="st0" d="M176.3,28.7c24,0,47.7,0,72.2,0c-1.6,0.9-2.8,1.4-3.9,2.1c-12.3,6.4-19.1,16.5-19.3,30.4
		c-0.3,33-0.4,65.9,0,99c0.1,16.1,9,26.7,24.6,32.8c-25,0-49,0-73.5,0C176.3,138.1,176.3,83.6,176.3,28.7z"/>
	<path class="st0" d="M26.7,165.1c3.1,14.9,12.1,23.7,26.6,28.4c-14.7,4.7-23.5,13.5-26.6,28.2c-3.3-14.4-11.8-23.5-26.7-28.1
		C14.7,188.9,23.7,180.1,26.7,165.1z"/>
</g>
</svg>
