<svg width="193" height="55" viewBox="0 0 193 55" fill="none" xmlns="http://www.w3.org/2000/svg">
<path opacity="0.15" fill-rule="evenodd" clip-rule="evenodd" d="M0.563416 27.5067C0.563416 42.3031 12.5963 54.336 27.3927 54.336C42.189 54.336 54.222 42.3031 54.222 27.5067C54.222 12.7104 42.189 0.677444 27.3927 0.677444C12.5963 0.677444 0.563416 12.7104 0.563416 27.5067ZM2.64268 27.5067C2.64268 13.8573 13.7433 2.75671 27.3927 2.75671C41.0421 2.75671 52.1427 13.8573 52.1427 27.5067C52.1427 41.1561 41.0421 52.2567 27.3927 52.2567C13.7433 52.2567 2.64268 41.1561 2.64268 27.5067Z" fill="black"/>
<path fill-rule="evenodd" clip-rule="evenodd" d="M27.3927 54.3226C12.5963 54.3226 0.563416 42.2896 0.563416 27.4933C0.563416 12.697 12.5963 0.664032 27.3927 0.664032C34.8244 0.664032 41.9878 3.78964 47.0451 9.22928L45.5226 10.6445C40.8543 5.62074 34.2476 2.7433 27.3927 2.7433C13.7433 2.7433 2.64268 13.8439 2.64268 27.4933C2.64268 41.1427 13.7433 52.2433 27.3927 52.2433C34.2274 52.2433 40.8274 49.3726 45.4957 44.3689L47.0183 45.7909C41.961 51.2104 34.811 54.3226 27.3927 54.3226Z" fill="#0050FF"/>
<path fill-rule="evenodd" clip-rule="evenodd" d="M36.8299 28.7945H26.3128V12.6768H28.3921V26.7152H36.8299V28.7945Z" fill="#0050FF"/>
<path fill-rule="evenodd" clip-rule="evenodd" d="M64.6786 39.7073C64.6786 37.2525 66.4896 35.5756 68.7567 35.5756C70.2055 35.5756 71.1915 36.2598 71.8219 37.1585L70.9835 37.6281C70.5274 36.9573 69.7024 36.4677 68.7567 36.4677C67.0463 36.4677 65.7116 37.8092 65.7116 39.714C65.7116 41.6055 67.0396 42.9604 68.7567 42.9604C69.7024 42.9604 70.5274 42.4842 70.9835 41.8L71.8354 42.2695C71.1646 43.1817 70.2055 43.8525 68.7567 43.8525C66.4896 43.8457 64.6786 42.1622 64.6786 39.7073Z" fill="white"/>
<path fill-rule="evenodd" clip-rule="evenodd" d="M82.3658 40.036H77.6908V43.7049H76.6982V35.7098H77.6908V39.1506H82.3658V35.7098H83.3585V43.7049H82.3658V40.036Z" fill="white"/>
<path fill-rule="evenodd" clip-rule="evenodd" d="M89.8177 40.5256H91.414L93.4463 43.6982H94.6201L92.4671 40.4384C93.5536 40.3378 94.5396 39.5464 94.5396 38.111C94.5396 36.6354 93.5 35.7031 92.0378 35.7031H88.825V43.6982H89.8177V40.5256ZM89.8177 36.5951H91.9171C92.8628 36.5951 93.5134 37.2189 93.5134 38.1177C93.5134 39.0165 92.8628 39.6537 91.9171 39.6537H89.8177V36.5951Z" fill="white"/>
<path fill-rule="evenodd" clip-rule="evenodd" d="M107.317 39.7208C107.317 37.3598 105.714 35.5823 103.353 35.5823C100.979 35.5823 99.3823 37.3531 99.389 39.7208C99.389 42.075 100.979 43.8525 103.353 43.8525C105.714 43.8525 107.317 42.0817 107.317 39.7208ZM100.415 39.714C100.415 37.8427 101.555 36.4677 103.353 36.4677C105.137 36.4677 106.284 37.8494 106.291 39.714C106.291 41.572 105.137 42.9604 103.353 42.9604C101.555 42.9604 100.415 41.572 100.415 39.714Z" fill="white"/>
<path fill-rule="evenodd" clip-rule="evenodd" d="M113.461 37.2592V43.7049H112.468V35.7098H113.488L118.089 42.0281V35.7098H119.082V43.7049H118.123L113.461 37.2592Z" fill="white"/>
<path fill-rule="evenodd" clip-rule="evenodd" d="M132.141 39.714C132.141 37.3598 130.538 35.5823 128.177 35.5823C125.809 35.5823 124.213 37.3598 124.213 39.714C124.213 42.0683 125.802 43.8458 128.177 43.8458C130.531 43.8458 132.141 42.075 132.141 39.714ZM125.239 39.7208C125.239 37.8494 126.379 36.4744 128.177 36.4744C129.968 36.4744 131.115 37.8494 131.115 39.7208C131.115 41.5787 129.961 42.9671 128.177 42.9671C126.379 42.9671 125.239 41.5787 125.239 39.7208Z" fill="white"/>
<path fill-rule="evenodd" clip-rule="evenodd" d="M145.348 35.7701H146.34L146.354 42.8732L150.07 42.8665V43.7518L145.361 43.7586L145.348 35.7701Z" fill="white"/>
<path fill-rule="evenodd" clip-rule="evenodd" d="M162.263 39.7342C162.257 37.3732 160.647 35.6025 158.286 35.6092C155.918 35.6159 154.329 37.3933 154.329 39.7543C154.335 42.1153 155.932 43.886 158.306 43.8793C160.667 43.8726 162.27 42.0951 162.263 39.7342ZM155.362 39.7543C155.362 37.8829 156.495 36.5079 158.293 36.5012C160.077 36.4945 161.231 37.8695 161.237 39.7409C161.237 41.5988 160.09 42.9872 158.306 42.9939C156.509 43.0006 155.368 41.6122 155.362 39.7543Z" fill="white"/>
<path fill-rule="evenodd" clip-rule="evenodd" d="M171.184 35.589C172.599 35.589 173.579 36.2061 174.29 37.0781L173.498 37.5677C172.995 36.9238 172.143 36.4677 171.184 36.4677C169.434 36.4744 168.105 37.8159 168.112 39.7207C168.119 41.6122 169.447 42.9805 171.198 42.9738C172.157 42.9738 172.948 42.5043 173.337 42.1085V40.4787L170.594 40.4854V39.6L174.33 39.5933L174.337 42.4842C173.592 43.3092 172.505 43.8659 171.198 43.8659C168.924 43.8726 167.086 42.2092 167.079 39.7274C167.073 37.2457 168.904 35.589 171.184 35.589Z" fill="white"/>
<path fill-rule="evenodd" clip-rule="evenodd" d="M179.535 35.7031H180.527L180.541 43.6982H179.548L179.535 35.7031Z" fill="white"/>
<path fill-rule="evenodd" clip-rule="evenodd" d="M185.665 39.6939C185.659 37.239 187.47 35.5555 189.73 35.5488C191.179 35.5488 192.165 36.2262 192.802 37.125L191.963 37.5945C191.507 36.9238 190.676 36.4342 189.73 36.4342C188.02 36.4409 186.691 37.7823 186.691 39.6872C186.698 41.5787 188.026 42.9336 189.743 42.9268C190.689 42.9268 191.514 42.4439 191.97 41.7598L192.822 42.2226C192.151 43.1348 191.192 43.8055 189.743 43.8122C187.483 43.8189 185.672 42.1488 185.665 39.6939Z" fill="white"/>
<path fill-rule="evenodd" clip-rule="evenodd" d="M76.0476 23.7707L78.2543 28.9555H80.3805L73.4116 12.5896H71.6811L64.6786 28.9555H66.7646L68.9445 23.7707H76.0476ZM73.3445 17.0165L75.4037 22.0671H69.6689L71.7549 17.0165C72.0902 16.1579 72.3384 15.3732 72.5195 14.6622C72.8012 15.5945 73.0762 16.3793 73.3445 17.0165Z" fill="#0050FF"/>
<path fill-rule="evenodd" clip-rule="evenodd" d="M95.5256 12.6567V23.2006C95.5256 25.0585 94.9152 26.5207 93.6945 27.5805C92.4738 28.647 90.7969 29.1768 88.664 29.1768C86.5311 29.1768 84.8811 28.6402 83.714 27.5738C82.5469 26.5006 81.9634 25.0317 81.9634 23.1604V12.6567H84.0226V23.2945C84.0226 24.6561 84.425 25.6957 85.2366 26.4268C86.0415 27.1579 87.2287 27.5201 88.7982 27.5201C90.2939 27.5201 91.4408 27.1512 92.2524 26.4201C93.0573 25.689 93.4665 24.636 93.4665 23.2677V12.6567H95.5256Z" fill="#0050FF"/>
<path fill-rule="evenodd" clip-rule="evenodd" d="M105.741 28.9555H103.682V14.3402H98.0744V12.6567H111.355V14.3402H105.748V28.9555H105.741Z" fill="#0050FF"/>
<path fill-rule="evenodd" clip-rule="evenodd" d="M126.56 26.9366C127.996 25.4476 128.713 23.3951 128.713 20.786C128.713 18.1701 127.996 16.1177 126.56 14.622C125.132 13.1396 123.14 12.3951 120.598 12.3951C117.982 12.3951 115.963 13.1262 114.541 14.5884C113.119 16.0506 112.408 18.1031 112.408 20.7592C112.408 23.4354 113.119 25.5079 114.534 26.9768C115.956 28.4457 117.968 29.1768 120.577 29.1768C123.133 29.1768 125.125 28.4323 126.56 26.9366ZM116.13 25.8098C115.104 24.6695 114.595 22.9927 114.595 20.786C114.595 18.6061 115.104 16.9494 116.137 15.8092C117.157 14.6689 118.646 14.0988 120.611 14.0988C122.563 14.0988 124.038 14.6622 125.038 15.7957C126.037 16.9293 126.534 18.5927 126.534 20.786C126.534 23.0061 126.03 24.6829 125.031 25.8165C124.032 26.95 122.549 27.5201 120.584 27.5201C118.639 27.5201 117.15 26.95 116.13 25.8098Z" fill="#0050FF"/>
<path fill-rule="evenodd" clip-rule="evenodd" d="M140.223 28.9555L134.213 14.5079H134.12C134.234 15.6549 134.287 17.0098 134.287 18.586V28.9555H132.382V12.6567H135.488L141.102 26.0982H141.196L146.857 12.6567H149.935V28.9555H147.876V18.4518C147.876 17.2512 147.93 15.9366 148.044 14.528H147.95L141.893 28.9555H140.223Z" fill="#0050FF"/>
<path fill-rule="evenodd" clip-rule="evenodd" d="M163.806 23.7707L166.013 28.9555H168.139L161.17 12.5896H159.44L152.437 28.9555H154.523L156.703 23.7707H163.806ZM161.103 17.0165L163.162 22.0671H157.427L159.513 17.0165C159.849 16.1579 160.097 15.3732 160.278 14.6622C160.56 15.5945 160.835 16.3793 161.103 17.0165Z" fill="#0050FF"/>
<path fill-rule="evenodd" clip-rule="evenodd" d="M174.35 28.9555H172.291V14.3402H166.684V12.6567H179.964V14.3402H174.357V28.9555H174.35Z" fill="#0050FF"/>
<path fill-rule="evenodd" clip-rule="evenodd" d="M192.453 28.9555H182.58V12.6567H192.453V14.3402H184.639V19.5921H191.984V21.2622H184.639V27.2585H192.453V28.9555Z" fill="#0050FF"/>
</svg>
