<svg width="74" height="64" viewBox="0 0 74 64" fill="none" xmlns="http://www.w3.org/2000/svg">
<g clip-path="url(#clip0)">
<path d="M73.5202 47.289H66.6778V44.5858L73.5202 45.5151V47.289ZM42.0955 47.289H33.4791V44.5014L42.0955 46.3598V47.289ZM65.4951 47.2046L58.3992 46.1064L58.2303 43.4877L65.0727 44.4169L65.4951 47.2046ZM55.5271 45.5995L48.6846 44.5014L49.0225 42.1361L55.7805 43.0653L55.5271 45.5995ZM42.0955 43.4877L33.4791 42.1361V40.1087L42.0955 41.2913V43.4877ZM73.5202 43.4032L66.6778 42.5585V39.3484L73.5202 39.9397V43.4032ZM64.8193 42.305L49.1914 40.3621L49.5294 37.8278L64.3125 39.095L64.8193 42.305ZM42.0955 39.5173L33.4791 38.4192V36.3918L42.0955 37.152V39.5173ZM73.5202 39.0105L66.6778 38.4192V34.8712L73.5202 35.2091V39.0105ZM64.1435 38.1658L57.9769 37.6589C57.8924 36.6452 57.7234 35.547 57.6389 34.3644L63.6366 34.7023L64.1435 38.1658ZM55.696 37.4055L49.6138 36.8986L50.0362 33.942L56.0339 34.2799C55.8649 35.4625 55.7805 36.5607 55.696 37.4055ZM42.0955 36.2228L33.4791 35.4625V33.0973L42.0955 33.5196V36.2228ZM73.5202 34.7023L66.6778 34.3644V21.0174H73.5202V34.7023ZM63.5522 34.1954L57.5545 33.8575C57.3855 31.7456 57.1321 29.4649 56.9631 26.9306C56.6252 29.5493 56.2873 31.9146 56.1184 33.773L50.1207 33.4351L51.7257 21.0174H61.6093L63.5522 34.1954ZM47.4175 33.3507L33.4791 32.5904V14.0904H48.0933V20.7639H42.0955V27.0995H47.4175V33.3507Z" fill="white"/>
<path d="M0.618354 63.4237C0.449405 63.3392 0.449394 63.2548 0.449394 63.0013C0.449394 62.9169 0.533879 62.7479 0.618354 62.7479C0.702829 62.7479 0.787314 62.6634 0.787314 62.579C0.787314 62.4945 0.787314 62.41 0.787314 62.41V62.3255V62.2411C0.787314 62.1566 0.871769 62.1566 0.871769 62.0721C0.956244 61.9032 1.12519 61.6498 1.29414 61.5653C1.37862 61.4808 1.4631 61.4808 1.4631 61.3963C1.54758 61.3119 1.54759 61.3119 1.63206 61.2274C1.63206 61.1429 1.71652 61.1429 1.71652 61.0584C1.71652 60.9739 1.80102 60.9739 1.80102 60.8895C1.8855 60.805 1.96996 60.6361 2.05444 60.5516L2.13889 60.4671C2.22337 60.4671 2.2234 60.3826 2.2234 60.3826C2.2234 60.2137 2.30786 60.0447 2.47681 59.9603C2.47681 59.9603 2.47679 59.9603 2.56127 59.8758C2.81469 59.7913 2.98364 59.5379 2.98364 59.2845V59.0311C2.89917 59.1155 2.8147 59.2 2.73023 59.3689C2.64575 59.4534 2.56129 59.6223 2.47681 59.7913H2.39231C2.39231 59.7068 2.47681 59.6224 2.47681 59.5379C2.56129 59.3689 2.64575 59.2 2.73023 58.9465C2.73023 58.9465 2.81468 58.9466 2.81468 58.8621C2.98363 58.7776 3.15258 58.6086 3.23706 58.3552C3.32153 58.2707 3.40602 58.1863 3.40602 58.0173C3.49049 57.9329 3.49052 57.8484 3.49052 57.7639C3.49052 57.595 3.57499 57.426 3.74394 57.3416C3.82841 57.2571 3.91287 57.1726 3.99735 57.0881C4.08182 57.0036 4.16629 56.9191 4.25076 56.8347C4.33524 56.6657 4.4197 56.4968 4.50418 56.3278C4.67313 56.1589 4.7576 55.9899 4.92655 55.821C5.01103 55.7365 5.18 55.5676 5.26447 55.4831C5.34895 55.3986 5.34893 55.3142 5.34893 55.2297C5.4334 55.1452 5.51792 54.9762 5.60239 54.8918C5.68687 54.8073 5.68683 54.8073 5.7713 54.7228C5.85578 54.5539 6.02475 54.3849 6.10922 54.216C6.10922 54.1315 6.19371 54.047 6.27818 53.9626C6.36266 53.8781 6.36267 53.7091 6.44714 53.6246C6.53162 53.5402 6.53158 53.3712 6.61605 53.2867C6.70053 53.2022 6.78501 53.1178 6.78501 53.0333C6.86949 52.9488 6.95395 52.7799 7.03842 52.6109C7.20737 52.273 7.37636 51.9351 7.54531 51.5972C7.79873 51.1748 8.05214 50.7525 8.22109 50.4146C8.22109 50.3301 8.30555 50.3301 8.30555 50.2456C8.39002 50.1612 8.39003 50.0767 8.47451 49.9922C8.47451 49.9078 8.47454 49.9077 8.55901 49.9077C8.64349 49.9077 8.72792 49.9078 8.72792 49.7388C8.72792 49.6543 8.72795 49.5698 8.81243 49.4853C8.8969 49.3164 8.98137 49.1475 9.06584 48.9785C9.15032 48.894 9.23478 48.7251 9.31926 48.6406C9.31926 48.5561 9.40376 48.5562 9.40376 48.4717C9.48824 48.3872 9.5727 48.3027 9.65718 48.1338C9.65718 48.1338 9.65716 48.0493 9.74163 48.0493C9.82611 47.9648 9.82612 47.7959 9.91059 47.7114C9.91059 47.6269 9.99508 47.458 10.0796 47.3735C10.164 47.289 10.2485 47.2045 10.2485 47.1201C10.333 46.9511 10.4174 46.7822 10.4174 46.5287V46.4443C10.5864 46.1064 10.7553 45.684 10.8398 45.2616C10.9243 45.0082 11.0932 44.8392 11.2622 44.7548C11.4311 44.6703 11.5156 44.6703 11.6845 44.6703C11.6845 44.5858 11.769 44.5013 11.769 44.4169C11.8535 44.2479 11.8535 44.2479 11.938 44.2479C11.938 44.2479 12.0225 44.2479 12.0225 44.3324C12.1069 44.3324 12.1914 44.2479 12.1914 44.079C12.2759 43.6566 12.4449 43.3187 12.7828 43.0653C12.8672 42.9808 12.9517 42.8963 12.9517 42.8119C13.0361 42.6429 13.1206 42.474 13.2896 42.3895C13.2896 42.3895 13.2896 42.305 13.374 42.305C13.374 42.305 13.3741 42.2205 13.4585 42.2205C13.543 42.305 13.543 42.305 13.543 42.3895C13.7964 42.305 14.0499 42.2205 14.3033 41.9671C14.1343 41.9671 13.9654 41.8826 13.8809 41.7982C13.9654 41.7982 13.9654 41.7137 14.0499 41.7137C14.1344 41.6292 14.3033 41.5447 14.4723 41.5447C14.6412 41.5447 14.8102 41.3758 14.8946 41.2913C14.8946 41.1224 14.9791 40.9534 15.148 40.8689C15.148 40.7845 15.2325 40.7845 15.2325 40.7C15.317 40.6155 15.4015 40.5311 15.4015 40.4466L17.8513 40.9534C17.8513 41.0379 17.7667 41.1223 17.7667 41.2068C17.6823 41.2913 17.6823 41.3758 17.6823 41.5447H17.5133C17.5133 41.6292 17.5133 41.6292 17.5133 41.7137V41.7982C17.5133 41.8826 17.5134 41.8826 17.4289 41.9671C17.4289 41.9671 17.4289 41.9671 17.4289 42.0516C17.4289 42.136 17.4289 42.1361 17.4289 42.2205C17.5134 42.1361 17.5133 42.0516 17.5978 42.0516C17.6823 42.0516 17.6823 41.9671 17.6823 41.8826C17.6823 41.7981 17.7668 41.7982 17.8513 41.7137C17.9357 41.7137 17.9357 41.6292 18.0202 41.6292L18.1047 41.7137C18.0202 41.9671 17.9357 42.1361 17.7667 42.3895C17.6823 42.3895 17.6823 42.474 17.6823 42.5584C17.6823 42.5584 17.6823 42.6429 17.5978 42.6429C17.5133 42.7274 17.5134 42.8963 17.4289 42.9808C17.3444 43.0653 17.2599 43.2342 17.2599 43.3187C17.1754 43.0653 17.1754 42.8119 17.1754 42.5584C17.2599 42.3895 17.1754 42.1361 17.091 41.9671C16.922 42.2205 16.922 42.4739 17.0065 42.7274C17.0065 42.8118 17.0065 42.8963 17.0065 42.9808C16.922 42.9808 16.922 42.9808 16.8375 43.0653C16.7531 43.0653 16.7531 43.0653 16.6686 43.1497C16.6686 43.3187 16.6686 43.3187 16.753 43.4032C16.8375 43.4032 16.922 43.4877 17.0065 43.4032C17.091 43.6566 17.0065 43.8255 16.753 43.9945C16.6686 44.079 16.6686 44.1635 16.5841 44.2479C16.5841 44.3324 16.4996 44.4169 16.4996 44.5014C16.4151 44.5014 16.4151 44.5014 16.3307 44.5014C16.2462 44.5014 16.2462 44.5014 16.1618 44.5014C16.1618 44.8393 16.1618 45.0927 15.7394 45.0927C15.6549 45.0927 15.6549 45.0927 15.6549 45.0082C15.6549 45.0082 15.5704 45.0082 15.5704 44.9237C15.4859 45.0082 15.4859 45.0082 15.4859 45.0082C15.4859 45.0927 15.4015 45.0927 15.4015 45.1772C15.317 45.3461 15.2325 45.4306 15.148 45.4306H15.0635C14.9791 45.4306 14.9791 45.5151 14.8946 45.5151C14.7257 45.5995 14.5567 45.7685 14.4723 45.9374C14.4723 46.0219 14.3877 46.1909 14.2188 46.1909C14.1343 46.2753 14.1343 46.3598 14.1343 46.4443V46.5287C14.1343 46.5287 14.2188 46.5287 14.2188 46.4443C14.2188 46.4443 14.3033 46.4443 14.3033 46.3598C14.3878 46.4443 14.3878 46.5287 14.3878 46.5287C14.3878 46.6132 14.3033 46.6132 14.3033 46.6132C14.2188 46.6132 14.1344 46.6132 14.0499 46.6977C13.9654 46.7822 13.8809 46.7822 13.7964 46.7822C13.7119 46.8667 13.712 46.8666 13.712 46.8666C13.712 47.1201 13.6275 47.289 13.4585 47.458L13.2896 47.7114L13.2051 47.8804L12.9517 48.2182C12.7827 48.4716 12.6138 48.6406 12.4448 48.9785C12.2759 49.063 12.1914 49.2319 12.1914 49.4009V49.4853C12.1069 49.7388 11.938 49.9922 11.6845 50.2456V49.4853C11.6001 49.6543 11.6001 49.8232 11.6001 49.9077C11.6001 49.9922 11.6001 50.0767 11.6001 50.2456C11.1777 50.4146 11.0932 50.8369 11.0088 51.1748C11.0088 51.2593 11.0088 51.2593 10.9243 51.2593C10.7554 51.3438 10.6709 51.5128 10.6709 51.6817C10.6709 51.7662 10.6709 51.7662 10.6709 51.8507C10.6709 52.0196 10.6709 52.1041 10.5864 52.1886C10.5864 52.273 10.5864 52.442 10.5019 52.5265V52.6109C10.4175 52.6954 10.4174 52.6954 10.333 52.6954C10.2485 52.6954 10.2485 52.7799 10.164 52.7799C10.0795 52.9488 10.0795 53.0333 9.99505 53.2023C9.91057 53.0333 9.82612 52.8644 9.91059 52.6954C9.91059 52.5265 9.91061 52.3575 9.82614 52.2731C9.82614 52.3575 9.74163 52.3575 9.74163 52.442C9.74163 52.5264 9.74165 52.5265 9.65718 52.6109C9.65718 52.5265 9.65715 52.5265 9.57267 52.5265C9.57267 52.5265 9.57269 52.5265 9.48822 52.6109C9.40374 52.6954 9.40373 52.6954 9.31926 52.7799C9.40373 52.8644 9.4882 52.8643 9.57267 52.8643C9.65715 52.9488 9.65718 53.1178 9.65718 53.1178C9.82613 53.3712 9.65716 53.6247 9.31926 53.9626C9.23478 53.9626 9.23477 54.047 9.1503 54.047C8.98135 54.216 8.98135 54.216 8.72792 54.3004C8.8124 54.3004 8.89688 54.3849 8.89688 54.4694C8.89688 54.5539 8.8969 54.5539 8.81243 54.6383C8.64348 54.7228 8.55898 54.8073 8.47451 54.9762L8.39005 55.0607C8.30558 55.3141 8.13663 55.4831 7.96768 55.4831C7.8832 55.5676 7.79874 55.6521 7.71427 55.6521C7.54532 55.9055 7.29185 56.1589 7.03842 56.2433C7.03842 56.3278 6.95397 56.3278 6.95397 56.4123C6.95397 56.4968 6.86952 56.4968 6.86952 56.5813C6.86952 56.5813 6.86952 56.5812 6.86952 56.6657C6.86952 56.7502 6.78503 56.8347 6.70056 56.8347C6.61608 56.9191 6.61607 57.0036 6.5316 57.0881C6.44712 57.1726 6.36266 57.3415 6.27818 57.5105V57.595C6.19371 57.6794 6.1937 57.7639 6.10922 57.7639C6.02475 57.9329 5.8558 58.1018 5.68685 58.2708C5.68685 58.3552 5.60239 58.3552 5.60239 58.4397C5.51792 58.5242 5.43343 58.6086 5.43343 58.7776C5.26448 59.1155 5.01104 59.5379 4.67314 59.7913C4.58866 59.8758 4.58865 59.9602 4.50418 60.0447C4.50418 59.8758 4.41974 59.7913 4.33527 59.7913C4.25079 59.7913 4.25078 59.8758 4.16631 59.9603C4.08184 60.0447 3.91286 60.2137 3.82839 60.3826C3.74391 60.4671 3.65945 60.5516 3.57498 60.636C3.4905 60.805 3.32155 60.9739 3.1526 61.0584C2.98365 61.1429 2.73022 61.2274 2.56127 61.3963C2.30784 61.4808 2.13892 61.7342 2.2234 61.9877V62.0721V62.1566C2.2234 62.2411 2.22338 62.3256 2.30785 62.41C2.05443 62.4945 1.80101 62.6635 1.63206 62.8324L1.54756 62.9169C1.46308 62.9169 1.4631 63.0013 1.4631 63.0013C1.4631 63.0858 1.37862 63.1703 1.29414 63.1703C1.29414 63.1703 1.20969 63.1703 1.20969 63.0858C0.956264 63.0858 0.787325 63.1703 0.5339 63.2548C0.70285 63.4237 0.618354 63.4237 0.618354 63.4237ZM9.1503 52.9488C9.06582 53.0333 8.98136 53.1178 8.89688 53.2023C8.81241 53.2023 8.8124 53.2867 8.72792 53.2867C8.55897 53.3712 8.47453 53.4557 8.39005 53.5402C8.39005 53.6247 8.39006 53.7936 8.55901 54.047H8.64347C8.72794 54.047 8.89688 53.8781 8.89688 53.7936C8.98136 53.7936 9.06584 53.7936 9.06584 53.7091V53.6246C8.98137 53.5402 8.98136 53.5402 8.89688 53.5402C8.81241 53.4557 8.72794 53.4557 8.64347 53.4557V53.3712H9.06584V53.2867C9.06584 53.1178 9.15033 52.9488 9.2348 52.8643L9.1503 52.9488ZM10.9243 50.7525C10.7554 50.8369 10.5864 51.0059 10.5019 51.0904C10.4175 51.1749 10.333 51.3438 10.164 51.4283C10.2485 51.5973 10.2485 51.7662 10.0796 51.8507C9.9106 52.1041 9.99506 52.273 10.164 52.6109C10.2485 52.5265 10.2485 52.5265 10.333 52.5265C10.2485 52.3575 10.2485 52.1041 10.333 51.8507C10.4174 51.7662 10.5019 51.7662 10.5019 51.6817C10.4175 51.5128 10.5019 51.3438 10.5864 51.2593C10.7553 51.1749 10.9243 50.9214 10.9243 50.7525ZM8.13664 51.0059C8.13664 51.0059 8.13661 51.0904 8.05213 51.0904C8.05213 51.1749 8.05215 51.1748 7.96768 51.1748H8.05213C8.05213 51.1748 8.13664 51.1749 8.13664 51.0904C8.13664 51.0904 8.13662 51.0059 8.22109 51.0059C8.13662 51.0904 8.13664 51.0904 8.13664 51.0059ZM12.2759 48.3027C12.2759 48.3872 12.2759 48.3872 12.2759 48.4717C12.2759 48.5562 12.2759 48.6406 12.2759 48.8096C12.3604 48.7251 12.4448 48.6406 12.6138 48.5561H12.6983C12.5293 48.3872 12.4448 48.3027 12.2759 48.3027ZM16.2462 43.3187C15.9928 43.5721 15.8238 43.7411 15.6549 43.9945C15.5704 44.079 15.5704 44.079 15.5704 44.1634C15.5704 44.2479 15.6549 44.3324 15.7394 44.3324C15.7394 44.3324 15.7394 44.3324 15.8238 44.3324H15.9083V44.2479C15.9083 44.1635 15.8238 44.079 15.8238 43.9945H16.2462C16.1617 43.91 16.1618 43.8255 16.1618 43.7411C16.1618 43.6566 16.2462 43.6566 16.2462 43.5721C16.3307 43.4876 16.3307 43.4032 16.2462 43.3187ZM1.96993 60.4671L2.2234 60.2137C2.2234 60.2981 2.13888 60.4671 1.96993 60.4671ZM27.5659 59.3689C27.4814 59.031 27.4814 58.7776 27.4814 58.4397C27.3124 58.3552 27.1435 58.1018 27.2279 57.8484V57.426V57.3416C27.1435 56.8347 27.059 56.3278 27.059 55.821C27.059 55.7365 27.1435 55.652 27.1435 55.5676C27.1435 55.4831 27.1435 55.4831 27.059 55.3986C26.9745 55.4831 26.9745 55.5676 26.9745 55.6521C26.7211 55.3986 26.6366 55.0607 26.5522 54.7228C26.4677 54.3849 26.4677 54.1315 26.2987 53.7936C26.2987 53.7091 26.2987 53.6247 26.2987 53.5402C26.2987 53.4557 26.2987 53.2867 26.2987 53.2023C26.2987 53.1178 26.2142 52.9488 26.2142 52.8643C26.2142 52.7799 26.2143 52.7799 26.1298 52.6954C26.0453 52.442 25.9608 52.1886 25.9608 51.9351C25.9608 51.8507 25.8764 51.7662 25.8764 51.7662C25.8764 51.6817 25.7919 51.5972 25.7919 51.5128V51.0904C25.7919 51.0904 25.7919 51.0904 25.8764 51.0904H25.9608L26.0453 51.0059L25.9608 50.9214H25.7919C25.7919 50.9214 25.7919 51.0059 25.7074 51.0059C25.7074 50.9215 25.6229 50.9215 25.6229 50.837C25.5384 50.837 25.5385 50.7525 25.454 50.7525C25.454 50.668 25.454 50.668 25.454 50.5836C25.5385 50.4146 25.5384 50.3301 25.3695 50.2456C25.3695 50.2456 25.3695 50.2457 25.285 50.1612C25.2006 50.0767 25.2005 50.0767 25.1161 49.9922C25.0316 49.9078 25.0316 49.8233 24.9471 49.6543C24.9471 49.5698 24.9471 49.5698 24.9471 49.4853C24.8626 49.2319 24.7782 49.063 24.6937 48.8941C24.5247 48.7251 24.5248 48.4716 24.6092 48.2182C24.6092 48.1338 24.6092 48.0493 24.5247 47.9648C24.5247 47.8803 24.4403 47.7114 24.4403 47.6269C24.4403 47.5425 24.4403 47.5425 24.3558 47.458C24.3558 47.3735 24.2713 47.2045 24.2713 47.1201C24.2713 47.0356 24.1868 46.9511 24.1024 46.8666C23.9334 46.6132 23.8489 46.3598 23.8489 46.0219C23.8489 45.8529 23.7645 45.684 23.68 45.5151C23.5955 45.4306 23.5955 45.3461 23.5955 45.2616V45.1772C23.5111 45.0082 23.511 44.8392 23.511 44.7548V44.6703V44.5858C23.4266 44.3324 23.4266 44.1635 23.5955 43.91C23.5955 43.91 23.5955 43.8256 23.5955 43.6566C23.5955 43.5721 23.5955 43.5721 23.5955 43.4877C23.3421 43.4032 23.1732 43.0653 23.1732 42.8119V42.2205C23.1732 42.2205 23.1732 42.2206 23.1732 42.1361L24.7782 42.4739L24.4403 42.8119C24.5248 42.8119 24.6092 42.8119 24.6937 42.8119H24.7782C24.7782 42.8963 24.7782 42.9808 24.7782 43.0653C24.7782 43.2342 24.6937 43.4032 24.6092 43.5721C24.6092 43.5721 24.6937 43.5721 24.6937 43.4877V43.5721C24.6937 43.6566 24.6937 43.7411 24.6937 43.8256C24.6937 43.91 24.6092 43.9945 24.6092 44.079C24.5248 44.1635 24.5247 44.2479 24.5247 44.3324C24.6092 44.4169 24.6092 44.4169 24.6092 44.5014C24.6937 44.5858 24.6937 44.6703 24.8627 44.6703C24.9471 44.6703 24.9471 44.6703 25.0316 44.6703C25.0316 44.7548 24.9471 44.7548 24.9471 44.8392C25.0316 44.9237 25.0316 45.0082 25.1161 45.0927C25.2005 45.0927 25.2006 45.1772 25.285 45.1772C25.454 45.2616 25.5384 45.2616 25.5384 45.4306C25.5384 45.5995 25.5384 45.684 25.6229 45.8529C25.6229 46.0219 25.7074 46.1064 25.7074 46.2753C25.7074 46.3598 25.7074 46.4443 25.7074 46.5287C25.7074 46.6977 25.7074 46.9511 25.7074 47.1201C25.6229 47.2045 25.6229 47.289 25.6229 47.458C25.6229 47.5425 25.6229 47.5425 25.5384 47.6269C25.454 47.6269 25.454 47.7114 25.454 47.7114C25.454 47.8803 25.5384 47.9648 25.5384 47.9648C25.6229 47.9648 25.6229 47.8804 25.6229 47.8804C25.7074 47.7959 25.7074 47.7114 25.7074 47.7114C25.7074 47.7114 25.7074 47.6269 25.6229 47.6269C25.6229 47.5425 25.7074 47.458 25.7074 47.3735C25.7074 47.3735 25.7919 47.289 25.7919 47.2046C25.7919 47.3735 25.8763 47.5424 25.9608 47.7958C25.9608 47.9648 26.0453 48.0493 26.0453 48.2182C26.0453 48.3027 26.0453 48.4717 26.0453 48.5561C26.0453 48.6406 26.0453 48.7251 26.0453 48.8096C26.0453 48.894 26.0453 48.894 26.0453 48.9785C26.0453 48.9785 26.0453 48.9785 26.0453 49.063C26.1297 49.2319 26.2142 49.4009 26.2142 49.5699L26.2987 49.6543C26.2987 49.6543 26.2987 49.7388 26.3832 49.7388V49.8233C26.4677 49.9922 26.4677 50.2457 26.3832 50.4146H26.2987C26.2987 50.4146 26.2143 50.3301 26.1298 50.3301C26.0453 50.3301 26.0453 50.4146 25.9608 50.4991C25.9608 50.5835 26.0453 50.5836 26.0453 50.5836C26.1297 50.5836 26.1298 50.5835 26.2142 50.4991H26.2987C26.2143 50.5835 26.2143 50.7525 26.1298 50.9214C26.2143 51.0904 26.2142 51.0904 26.0453 51.3438C26.2987 51.5128 26.3832 51.8507 26.2142 52.1041H26.4676C26.3832 52.1886 26.2987 52.273 26.2987 52.3575C26.2987 52.442 26.3832 52.442 26.4676 52.6109V52.6954C26.4676 52.7799 26.3832 52.7799 26.3832 52.8643C26.4677 52.8643 26.5522 52.9489 26.5522 53.1178V55.0607C26.5522 55.0607 26.6366 54.9762 26.7211 54.9762C26.8056 54.9762 26.89 54.9762 26.89 55.0607C26.89 55.0607 26.9745 55.0607 26.9745 55.1452C26.9745 55.1452 27.059 55.2297 27.059 55.3141C27.059 55.3141 27.059 55.3986 27.1435 55.3986C27.059 55.3986 26.89 55.4831 26.8056 55.4831C26.8056 55.5676 26.8056 55.5676 26.7211 55.6521H26.9745C26.9745 55.821 26.9745 55.9055 27.059 55.9055H27.3124C27.3124 55.9899 27.3969 56.0744 27.3969 56.2433C27.4814 56.4968 27.5659 56.8347 27.5659 57.0881C27.4814 57.0036 27.3969 56.9192 27.3124 56.9192C27.2279 57.0037 27.1435 57.0881 27.1435 57.1726L27.059 57.257C27.3124 57.426 27.228 57.595 27.1435 57.8484C27.228 57.8484 27.3969 57.8484 27.4814 57.9328C27.3969 58.0173 27.3124 58.1018 27.3124 58.2708H27.5659C27.5659 58.4397 27.4814 58.6931 27.4814 58.8621L27.3969 58.9465C27.8193 59.2844 27.7348 59.3689 27.5659 59.3689ZM25.0316 45.0927V45.2616V45.3461H25.1161V45.2616C25.0316 45.1771 25.0316 45.0927 25.0316 45.0927ZM28.1571 58.0173C28.0727 57.9329 27.9038 57.8484 27.8193 57.7639C27.9038 57.6795 27.9038 57.6794 27.9882 57.595C28.0727 57.595 28.0727 57.5105 28.1571 57.426V58.0173ZM27.4814 53.7936C27.3969 53.7091 27.3124 53.7091 27.3124 53.7091C27.3124 53.7091 27.3124 53.6247 27.3969 53.5402C27.5659 53.6247 27.5658 53.6246 27.4814 53.7936ZM27.1435 53.5402C27.1435 53.3712 27.1435 53.3712 27.2279 53.2867L27.1435 53.3712C27.1435 53.4557 27.1435 53.4557 27.1435 53.5402ZM27.2279 53.2867C27.1435 53.0333 27.1434 53.0333 27.3124 52.9488C27.3969 53.0333 27.3969 53.0333 27.3969 53.1178C27.3969 53.2023 27.3124 53.2022 27.2279 53.2867ZM26.9745 51.2593C26.8901 51.1749 26.8056 51.0904 26.8056 51.0059C26.8056 51.0059 26.8055 50.9214 26.89 50.9214C27.059 50.9214 26.9745 51.0059 26.9745 51.0904C26.9745 51.1749 26.9745 51.1749 26.9745 51.2593ZM25.3695 44.2479C25.285 44.2479 25.285 44.1634 25.2005 44.1634C25.2005 44.1634 25.285 44.1635 25.3695 44.079C25.454 44.079 25.454 44.079 25.5384 44.1634V44.2479C25.5384 44.1635 25.454 44.2479 25.3695 44.2479ZM17.9357 41.8826C17.8512 41.7981 17.8512 41.7137 17.9357 41.5447C17.9357 41.4603 17.9357 41.3758 17.9357 41.2068C18.0202 41.2913 18.0202 41.2913 18.0202 41.2913L18.1047 41.2068H18.2736L18.1891 41.2913C18.0202 41.3758 17.9357 41.5448 17.9357 41.7137V41.8826ZM24.9471 40.7H24.6937C24.7782 40.6155 24.8626 40.4466 24.9471 40.4466C24.8626 40.3621 24.8627 40.1932 24.8627 40.0242C24.8627 39.8553 24.8626 39.6863 24.6937 39.6018C24.6092 39.6018 24.5248 39.6018 24.4403 39.6018C24.3558 39.6018 24.2713 39.6018 24.1869 39.6018C24.2713 39.6863 24.3558 39.7708 24.2713 40.0242C24.2713 40.0242 24.2713 40.0242 24.2713 40.1087C24.1868 40.1931 24.1868 40.3621 24.2713 40.4466C24.3558 40.4466 24.3558 40.4465 24.4403 40.3621C24.5248 40.4465 24.5247 40.4466 24.5247 40.4466C24.5247 40.4466 24.5248 40.531 24.4403 40.531L23.1732 40.3621C23.0887 40.1086 23.0042 39.8553 23.0042 39.6018C23.0042 39.5174 23.0042 39.3484 22.9197 39.2639C22.8353 39.0105 22.7508 38.757 22.6663 38.5036C22.6663 38.5036 22.6663 38.5036 22.6663 38.4192L24.4403 38.6726C24.4403 38.757 24.4403 38.8415 24.5247 38.926C24.5247 39.0105 24.6092 39.0105 24.6092 39.0949C24.6092 39.3484 24.6937 39.3484 24.8627 39.4329C24.8627 39.3484 24.8626 39.2639 24.9471 39.1795C24.8626 39.095 24.7782 39.095 24.7782 39.0105C24.7782 38.926 24.7782 38.926 24.8627 38.8415C25.0316 39.5173 25.1161 40.1931 24.9471 40.7ZM24.2713 38.8415C24.1868 38.8415 24.1868 38.8415 24.2713 38.8415C24.1868 39.0105 24.1868 39.1794 24.2713 39.2639C24.2713 39.2639 24.1869 39.2639 24.1869 39.3484C24.1024 39.3484 24.1024 39.4329 24.0179 39.4329H24.2713C24.2713 39.3484 24.3558 39.2639 24.2713 39.2639C24.2713 39.1794 24.2713 39.1794 24.2713 39.0949C24.2713 39.0105 24.2713 39.0105 24.2713 38.926V38.8415ZM24.6937 40.0242L24.4403 39.7707C24.5248 39.7707 24.6092 39.7708 24.6937 39.6863V40.0242ZM19.4562 39.8552H19.2873V39.2639C19.2873 39.2639 19.2028 39.2639 19.2028 39.1795V39.2639C19.2028 39.2639 19.2028 39.2639 19.2028 39.3484V39.8552L16.2462 39.3484V39.2639C16.2462 39.1794 16.3307 39.1794 16.3307 39.0949C16.3307 39.0105 16.4152 38.8415 16.5841 38.8415C16.7531 38.7571 16.8376 38.6726 17.0065 38.5036C17.1755 38.2502 17.3444 38.0812 17.4289 37.8278L20.6389 38.2502C20.6389 38.2502 20.5544 38.2502 20.5544 38.3347C20.5544 38.3347 20.5544 38.4192 20.47 38.4192H20.3855C20.301 38.4192 20.301 38.4192 20.2165 38.4192V38.6726C20.1321 38.757 20.0476 38.7571 19.9631 38.8415C20.0476 38.926 20.132 39.095 20.132 39.1795C20.0476 39.3484 19.9631 39.5173 19.8786 39.6863C19.7941 39.6018 19.7942 39.5173 19.7942 39.3484V39.2639V38.7571C19.7097 38.5881 19.7097 38.5037 19.7097 38.3347C19.5407 38.4192 19.5407 38.5881 19.6252 38.7571C19.6252 38.926 19.6252 39.0105 19.6252 39.1795C19.6252 39.3484 19.6252 39.4329 19.6252 39.6018C19.4563 39.5174 19.4562 39.6863 19.4562 39.8552C19.4562 39.7708 19.4562 39.8552 19.4562 39.8552ZM24.6937 37.4054L18.1047 36.5607C18.2736 36.3073 18.4425 36.1383 18.6115 35.9694C18.696 35.8849 18.7805 35.8004 18.7805 35.716C18.8649 35.716 18.8649 35.547 18.8649 35.4625C18.8649 35.3781 18.8649 35.3781 18.8649 35.2936C18.8649 35.2091 18.8649 35.2091 18.8649 35.1246L23.7645 35.547C23.849 35.7159 23.9334 35.8004 24.0179 35.8849C24.1024 35.8004 24.1024 35.8004 24.1024 35.716V35.6315V35.547L24.6937 35.6315V35.716C24.6937 35.8004 24.6092 35.8849 24.6092 35.9694C24.6092 36.0538 24.5247 36.1384 24.5247 36.2228C24.4403 36.3073 24.4403 36.3918 24.3558 36.4762C24.3558 36.5607 24.4403 36.6452 24.5247 36.6452C24.4403 36.6452 24.4403 36.6452 24.3558 36.6452H24.2713C24.5247 36.8986 24.6937 37.152 24.6937 37.4054ZM23.1732 36.2228L23.0887 36.3073C23.0887 36.3073 23.0887 36.3073 23.0887 36.3917C23.0887 36.4762 23.1732 36.5607 23.1732 36.5607C23.1732 36.4762 23.2576 36.4762 23.2576 36.3917C23.1731 36.3073 23.1732 36.2228 23.1732 36.2228ZM23.2576 35.9694L23.1732 36.0539C23.2576 36.0539 23.2576 36.0539 23.3421 36.0539H23.4266L23.3421 36.1383L23.2576 36.2228H23.3421C23.5111 36.2228 23.5955 36.1383 23.68 35.9694C23.68 35.8849 23.7645 35.8849 23.7645 35.8005C23.68 35.716 23.68 35.716 23.68 35.716C23.68 35.716 23.5955 35.716 23.5955 35.8005C23.5955 35.8005 23.5955 35.8004 23.5955 35.8849L23.2576 35.9694ZM24.9471 34.7022H24.6937C24.7782 34.6178 24.7782 34.5333 24.7782 34.4488C24.8626 34.5333 24.9471 34.6178 24.9471 34.7022ZM24.0179 34.6178L19.8786 34.2799V34.1954V34.111C19.8786 34.0265 19.9631 33.942 19.9631 33.8575C19.8786 33.6885 19.9631 33.6041 20.132 33.4351C20.301 33.3506 20.3855 33.1817 20.47 33.0127C20.5544 32.9283 20.6389 32.7593 20.7234 32.6749C20.7234 32.6749 20.7234 32.6748 20.7234 32.5904C20.7234 32.5059 20.8078 32.4214 20.7234 32.337L24.0179 32.5059C23.9334 32.5059 23.8489 32.5904 23.8489 32.7593V33.1817C23.9334 33.1817 23.9334 33.1817 24.0179 33.1817C24.1024 33.1817 24.1024 33.1817 24.1869 33.1817C24.2713 33.1817 24.3558 33.1817 24.4403 33.2662C24.4403 33.3507 24.3558 33.3507 24.2713 33.3507C24.2713 33.3507 24.1869 33.3506 24.1869 33.4351C24.1869 33.6041 24.0179 33.773 23.9334 33.8575C23.9334 33.8575 23.9334 33.8575 24.0179 33.942C24.1024 34.0265 24.1024 34.0265 24.1869 34.111C24.0179 34.2799 24.0179 34.4488 24.0179 34.6178ZM23.3421 33.773C23.3421 33.8575 23.3421 33.8575 23.3421 33.8575C23.3421 33.8575 23.4266 33.942 23.5955 33.942C23.4266 33.8575 23.3421 33.8575 23.3421 33.773ZM24.8627 34.1954C24.8627 34.1109 24.9471 34.0265 24.9471 34.0265C24.9471 33.942 24.9471 33.8575 25.1161 33.8575C25.1161 33.942 25.2005 33.942 25.1161 34.0265C25.1161 34.0265 25.0316 34.1109 24.8627 34.1954ZM24.1869 34.111L24.1024 33.8575L24.1869 33.773C24.2713 33.6886 24.3558 33.6041 24.5247 33.6041C24.5247 33.6041 24.5248 33.5196 24.6092 33.5196L24.6937 33.4351C24.6937 33.3506 24.6092 33.2662 24.6092 33.2662C24.5248 33.1817 24.4403 33.0972 24.4403 32.9283H24.6937C24.7782 32.9283 24.8626 32.9283 24.9471 32.8438V32.9283C24.8626 33.0128 24.8627 33.0972 24.8627 33.1817C24.9471 33.1817 25.0316 33.1817 25.0316 33.2662C25.0316 33.2662 25.0316 33.3506 25.0316 33.4351H24.9471C24.9471 33.4351 24.9471 33.4351 24.8627 33.4351C24.8627 33.5196 24.8627 33.6041 24.8627 33.6041C24.8627 33.6886 24.8627 33.773 24.8627 33.773C24.8627 33.8575 24.6937 33.942 24.6092 33.942C24.5248 33.942 24.5248 33.942 24.4403 33.942C24.4403 34.0265 24.3558 34.0265 24.3558 34.111C24.2713 34.0265 24.2713 34.111 24.1869 34.111ZM24.8627 32.168C24.8627 32.0835 24.7782 32.0835 24.7782 32.0835C24.7782 31.9991 24.6937 31.9991 24.6937 31.9146C24.6092 31.9146 24.6092 31.9991 24.5247 32.0835C24.5247 32.0835 24.5248 32.168 24.4403 32.168H24.3558L24.2713 32.0835C24.2713 31.9991 24.1869 31.9991 24.1869 31.9146C24.1869 31.9146 24.1024 31.9146 24.1024 31.9991C24.0179 32.0836 23.9334 32.0835 23.8489 32.0835V32.168L20.8923 31.9991C20.9768 31.8301 21.0613 31.7456 21.1457 31.6612C21.1457 31.6612 21.2302 31.5767 21.2302 31.4922C21.2302 31.4077 21.2302 31.4077 21.3147 31.3232C21.3992 31.2388 21.4837 31.1543 21.4837 31.0698C21.5681 31.0698 21.5681 31.0698 21.5681 31.0698V30.9854C21.4836 30.8164 21.4836 30.6475 21.5681 30.563C21.6526 30.4785 21.6526 30.3096 21.6526 30.1406C21.6526 30.0562 21.6526 29.9717 21.6526 29.8872C21.6526 29.7183 21.6526 29.5493 21.6526 29.3803V28.5356C21.4837 27.9443 21.3992 27.2685 21.3147 26.6771C21.3147 26.4237 21.2302 26.2548 21.1457 26.0013C21.1457 25.8324 21.0613 25.6634 21.0613 25.579C20.9768 24.9876 20.8923 24.3963 20.8079 23.8895C20.8079 23.805 20.8078 23.7205 20.7234 23.5516C20.7234 23.3827 20.6389 23.1292 20.6389 22.9603C20.47 22.6224 20.3855 22.2845 20.3855 21.9466V21.5242C20.3855 21.5242 20.3855 21.5242 20.3855 21.4397C20.3855 21.3553 20.3855 21.3552 20.3855 21.2708C20.301 21.1863 20.301 21.0173 20.301 20.8484C20.301 20.7639 20.301 20.6794 20.301 20.6794V20.595C20.132 20.3416 20.1321 20.0037 20.2165 19.7502V19.6657C20.2165 19.6657 20.132 19.5812 20.132 19.4968C20.132 19.4123 20.0476 19.4123 20.0476 19.3279C20.1321 19.2434 20.132 19.1589 20.132 18.9899C20.132 18.821 20.132 18.7365 20.301 18.652C20.132 18.5675 19.9631 18.3986 20.0476 18.2296C20.0476 18.2296 20.0476 18.2297 20.0476 18.1452C20.0476 17.9762 19.9631 17.8073 19.9631 17.7228V17.4694C19.8786 16.7091 19.7941 15.9488 19.8786 15.1886C19.8786 15.0196 19.8786 14.8507 19.8786 14.5972C19.8786 14.3438 19.8786 14.0904 19.8786 13.837C19.8786 13.5836 19.8786 13.3301 19.8786 13.0767C19.8786 13.0767 19.8786 12.9922 19.7942 12.9922L19.7097 12.9077C19.6252 13.5835 19.5407 14.3438 19.5407 15.0196C19.4563 14.8507 19.4562 14.7662 19.4562 14.5972C19.4562 14.5128 19.4562 14.5127 19.4562 14.4283C19.3718 14.2593 19.3718 14.0059 19.3718 13.837V12.7388H19.2028C19.1184 12.9077 19.1184 13.0767 19.1184 13.3301C19.0339 13.2456 18.9494 13.2456 18.9494 13.1611C18.9494 12.9922 18.9494 12.8233 18.9494 12.5699C18.9494 12.4009 18.9494 12.232 18.9494 11.9785C18.9494 11.7251 18.9494 11.5562 18.8649 11.3027C18.7804 11.0493 18.8649 10.8803 18.7805 10.6269C18.7805 10.1201 18.7804 9.69772 18.8649 9.19087V9.02191C18.7804 8.76848 18.696 8.51504 18.7805 8.26161C18.7805 8.17714 18.7805 8.09265 18.7805 8.09265C18.7805 7.9237 18.7805 7.75478 18.7805 7.58583C18.7805 7.3324 18.7805 7.16346 18.7805 6.91004C18.7805 6.74109 18.696 6.57214 18.6115 6.48766C18.6115 6.23424 18.527 6.0653 18.4425 5.81187C18.3581 5.55845 18.3581 5.38946 18.2736 5.13603C18.1892 4.88261 18.3581 4.62923 18.696 4.54475L18.7805 4.46024C18.8649 4.37577 18.9494 4.29133 18.9494 4.12238C18.8649 4.0379 18.8649 3.95338 18.7805 3.86891C18.8649 3.78444 18.9494 3.69997 19.1184 3.6155C19.0339 3.86892 18.9494 4.03786 19.2028 4.29128C19.2028 4.29128 19.2028 4.20683 19.2873 4.20683C19.2873 4.12236 19.2873 4.12238 19.3718 4.12238V3.78446H19.4562C19.5407 3.95341 19.5407 4.03788 19.3718 4.20683C19.4563 4.2913 19.5407 4.3758 19.6252 4.54475C19.7097 4.46028 19.7942 4.29133 19.7942 4.12238C19.7942 4.0379 19.7941 3.86893 19.8786 3.78446C19.9631 3.86893 19.9631 3.86891 20.0476 3.86891C20.1321 3.86891 20.132 3.86894 20.132 3.95342C20.2165 4.03789 20.3855 4.03787 20.5544 4.03787C21.1457 4.12234 21.6526 4.12236 21.9905 4.20683H22.075C22.075 4.20683 22.075 4.20683 22.1595 4.20683C22.2439 4.2913 22.4129 4.37579 22.5818 4.37579C22.6663 4.37579 22.6663 4.37579 22.7508 4.37579C22.8353 4.37579 22.9197 4.46024 23.0887 4.46024C23.3421 4.54472 23.5955 4.6292 23.8489 4.6292C24.0179 4.6292 24.1024 4.54475 24.2713 4.54475C24.4403 4.46028 24.6092 4.46024 24.7782 4.46024C24.8626 4.46024 24.9471 4.46026 25.0316 4.37579C25.0316 4.62921 25.0316 4.6292 24.6937 4.6292V4.71366C24.6937 4.71366 24.6937 4.71369 24.6092 4.79816C24.6092 4.79816 24.5247 4.79814 24.5247 4.88262H24.6092C24.6937 4.88262 24.7782 4.79816 24.9471 4.79816C25.1161 4.79816 25.3695 4.88263 25.454 5.05158C25.5385 5.13605 25.5384 5.13604 25.5384 5.30499C25.5384 5.47394 25.5384 5.55842 25.5384 5.72737C25.5384 5.81184 25.5384 5.89633 25.5384 5.89633V5.98078C25.6229 6.23421 25.5384 6.57211 25.3695 6.82553C25.454 6.82553 25.454 6.82553 25.5384 6.82553C25.5384 6.82553 25.5384 6.82553 25.6229 6.82553C25.6229 6.91001 25.6229 6.91002 25.6229 6.99449C25.6229 7.07897 25.6229 7.16346 25.6229 7.33241H25.3695V7.41687C25.3695 7.58581 25.454 7.67031 25.6229 7.75479C25.7074 7.75479 25.7074 7.75477 25.7074 7.83924V7.92375C25.6229 8.00822 25.5385 8.0082 25.454 8.0082H25.3695H25.285H25.2005C25.1161 8.09267 24.9471 8.17717 24.9471 8.34612L24.8627 8.43057C24.7782 8.43057 24.7782 8.51506 24.7782 8.59953H24.8627C24.8627 8.51506 25.0316 8.43057 25.1161 8.43057C25.2005 8.43057 25.2006 8.43057 25.285 8.43057C25.3695 8.43057 25.3695 8.43057 25.454 8.43057C25.5385 8.43057 25.5384 8.51503 25.5384 8.51503C25.5384 8.5995 25.5384 8.68402 25.5384 8.76849V8.85295V9.02191C25.6229 9.27533 25.6229 9.52873 25.7919 9.78215C25.7919 9.86663 25.7919 10.0356 25.7074 10.1201C25.6229 10.2045 25.6229 10.289 25.6229 10.3735C25.6229 10.5424 25.5384 10.7114 25.5384 10.7959C25.6229 10.7959 25.6229 10.8804 25.7074 10.8804C25.7919 10.8804 25.7919 10.8803 25.8764 10.9648C25.9608 11.2182 25.9608 11.3872 25.7074 11.4716C25.6229 11.5561 25.6229 11.6406 25.6229 11.7251C25.6229 11.7251 25.6229 11.8096 25.7074 11.8096C25.8764 11.894 25.8764 12.1474 25.8764 12.3164V12.4009H26.1298C26.1298 12.4854 26.1298 12.4854 26.1298 12.4854C26.1298 12.5698 26.1297 12.5698 26.0453 12.6543C26.0453 12.6543 25.9608 12.5699 25.8764 12.5699C25.7919 12.5699 25.7919 12.5698 25.7074 12.4854V12.5699C25.7074 12.6543 25.7919 12.6543 25.7919 12.6543C25.8763 12.7388 25.9608 12.7388 25.8764 12.9077C25.7919 12.9922 25.7919 13.1612 25.7074 13.2457C25.7074 13.2457 25.7074 13.3301 25.7074 13.4146C25.6229 13.4146 25.5384 13.4991 25.5384 13.668C25.5384 13.837 25.5384 13.9215 25.6229 14.0904C25.7074 14.1749 25.7074 14.2594 25.7074 14.5128H25.6229C25.5384 14.5128 25.454 14.5128 25.454 14.5128C25.285 14.5128 25.1161 14.5128 24.9471 14.5972C24.8626 14.5972 24.7782 14.6817 24.6937 14.6817V13.9214C24.6092 13.9214 24.4403 13.9214 24.3558 14.0059V14.3438C24.3558 14.3438 24.3558 14.3438 24.2713 14.3438C24.2713 14.3438 24.2713 14.3438 24.1869 14.3438V14.2594V13.9214H24.1024C24.0179 13.9214 24.0179 13.9214 24.0179 14.0059C23.9334 14.0904 23.9334 14.0904 23.8489 14.0904V13.9214C23.7645 13.9214 23.7645 13.9214 23.68 13.9214H23.5955C23.4266 13.9214 23.3421 13.9214 23.3421 14.0059C23.2576 14.0904 23.3421 14.0904 23.3421 14.2594H23.511H23.5955C23.68 14.2594 23.68 14.3438 23.68 14.4283C23.68 14.5127 23.5955 14.5972 23.5955 14.5972C23.5955 14.6817 23.5955 14.7662 23.511 14.7662H23.5955H23.68C23.68 14.9351 23.68 15.0196 23.5955 15.1886C23.5111 15.273 23.511 15.2731 23.511 15.3575C23.5955 15.5265 23.68 15.6954 23.5955 15.8644C23.5955 15.8644 23.5955 15.9488 23.5955 16.0333H23.511C23.511 16.0333 23.4266 16.1178 23.3421 16.1178L23.511 16.2023L23.68 16.2867C23.68 16.3712 23.68 16.4557 23.5955 16.5401C23.7645 16.5401 23.9334 16.6246 24.0179 16.7091H24.1024C24.1024 16.7936 24.1024 16.7936 24.1024 16.8781V16.9625C24.0179 17.047 24.0179 17.1315 24.0179 17.216C24.0179 17.3005 24.0179 17.3004 24.0179 17.3849C23.9334 17.3849 23.8489 17.3849 23.8489 17.4694C23.9334 17.4694 24.0179 17.5539 24.1024 17.5539V17.6384C24.1024 17.7228 24.1024 17.8073 24.0179 17.8073C23.9334 17.8917 23.9334 17.8918 23.9334 18.0607H23.5955C23.5955 18.1452 23.68 18.2297 23.68 18.3141L23.4266 18.5676H23.511C23.5955 18.5676 23.68 18.652 23.68 18.7365C23.7645 18.7365 23.7645 18.821 23.7645 18.821C23.7645 18.9054 23.68 18.9055 23.5955 18.9055C23.5955 19.1589 23.5111 19.1589 23.3421 19.2433C23.3421 19.2433 23.3421 19.2433 23.2576 19.2433C23.1731 19.3278 23.1731 19.3279 23.0887 19.3279C23.1731 19.3279 23.3421 19.4123 23.3421 19.4968C23.3421 19.4968 23.4266 19.4968 23.4266 19.5813C23.4266 19.5813 23.4266 19.6657 23.3421 19.6657C23.2576 19.6657 23.1732 19.6658 23.1732 19.7502C23.1732 19.7502 23.1731 19.8347 23.2576 19.9191V20.0036C23.1731 20.0036 23.0887 20.0881 23.0042 20.1726C23.0042 20.2571 22.9197 20.2571 22.9197 20.2571C22.9197 20.1726 22.9197 20.1726 22.9197 20.0881C22.9197 20.0036 22.9197 20.0036 22.9197 19.9191V19.4968C22.6663 19.5812 22.5818 19.6657 22.4974 19.9191C22.4974 19.5812 22.4973 19.2433 22.5818 19.0744C22.6663 18.9899 22.6663 18.9054 22.6663 18.821C22.6663 18.7365 22.6663 18.7365 22.5818 18.7365C22.4973 18.7365 22.4129 18.652 22.4129 18.5676V18.4831C22.2439 18.5676 22.2439 18.7365 22.3284 18.9055C22.4129 18.99 22.4129 19.1589 22.3284 19.2433L22.2439 19.3279C22.3284 19.4123 22.4129 19.5813 22.4129 19.7502C22.4129 19.8347 22.4129 19.9192 22.4129 20.0036C22.4129 20.0881 22.5818 20.0881 22.7508 20.0881C22.5818 20.1726 22.4973 20.2571 22.4129 20.426C22.4129 20.426 22.4974 20.426 22.4974 20.5105C22.4974 20.5105 22.5818 20.5105 22.5818 20.595C22.6663 20.595 22.6663 20.595 22.6663 20.595C22.7508 20.595 22.7508 20.595 22.8352 20.6794C22.8352 20.6794 22.9197 20.595 23.0042 20.595C23.0887 20.595 23.0887 20.5949 23.1732 20.5105C23.1732 20.5105 23.2576 20.5105 23.2576 20.426C23.2576 20.426 23.2576 20.3415 23.3421 20.3415C23.5111 20.426 23.4266 20.426 23.4266 20.5105V20.595H23.1732V20.6794C23.2576 20.7639 23.3421 20.8484 23.4266 20.8484H23.511C23.511 20.7639 23.5111 20.6795 23.5955 20.595C23.68 20.595 23.7645 20.6794 23.8489 20.6794C23.8489 20.6794 23.8489 20.595 23.9334 20.595C24.0179 20.595 24.0179 20.595 24.0179 20.6794V20.7639C24.0179 20.8484 24.0179 20.9328 23.9334 20.9328C23.8489 20.9328 23.68 21.0174 23.5955 21.0174C23.5955 21.0174 23.511 21.0173 23.511 21.1018C23.4266 21.1863 23.4266 21.3553 23.4266 21.4397C23.511 21.4397 23.511 21.5242 23.511 21.5242C23.511 21.5242 23.511 21.6086 23.4266 21.6086C23.3421 21.6086 23.3421 21.6931 23.3421 21.6931L23.4266 21.9466C23.3421 21.9466 23.3421 21.9466 23.2576 21.8621C23.1731 21.8621 23.1731 21.8621 23.0887 21.7776C23.0887 21.9465 23.0887 22.1155 23.0042 22.2C23.0042 22.2844 22.9197 22.3689 22.9197 22.4534C22.9197 22.5379 23.0042 22.5379 23.0042 22.6223C23.0042 22.6223 23.0887 22.7068 23.0887 22.7913C23.0887 22.7068 23.1732 22.6223 23.1732 22.6223C23.1732 22.7068 23.2576 22.7068 23.2576 22.7913C23.1731 22.8758 23.0042 22.9602 22.9197 23.0447L22.8352 23.1292V22.7913H22.6663C22.5818 22.8758 22.5818 23.0448 22.5818 23.1292C22.6663 23.2137 22.6663 23.2982 22.8352 23.3826C22.8352 23.3826 22.7508 23.3826 22.7508 23.4671C22.6663 23.4671 22.6663 23.5516 22.5818 23.5516C22.8352 23.6361 23.0887 23.7205 23.1732 23.974C23.2576 23.974 23.2576 23.8895 23.3421 23.805C23.4266 23.7205 23.5111 23.6361 23.5955 23.6361C23.5955 23.7205 23.5955 23.7205 23.511 23.805C23.511 23.8895 23.511 23.8895 23.4266 23.974C23.511 23.974 23.5111 24.0584 23.5955 24.0584C23.68 24.0584 23.68 24.0584 23.7645 23.974C23.849 23.8895 23.9334 23.8895 24.0179 23.8895C24.0179 23.7205 24.0179 23.5516 24.0179 23.3826C24.0179 23.2982 24.0179 23.2137 24.0179 23.1292V23.0447C24.0179 22.9602 24.0179 22.9602 24.0179 22.8758C24.1024 22.9602 24.1024 23.0447 24.1024 23.2137C24.1024 23.3826 24.0179 23.6361 23.9334 23.805V23.8895C23.9334 23.9739 23.849 23.974 23.7645 24.0584H23.68C23.7645 24.1429 23.8489 24.2274 23.9334 24.2274C24.0179 24.2274 24.1024 24.1429 24.2713 24.0584V24.1429C24.3558 24.3118 24.2713 24.4808 24.1869 24.6498C24.1869 24.5653 24.1869 24.5653 24.1869 24.5653C24.1869 24.4808 24.1868 24.4808 24.1024 24.3963C24.1024 24.3963 24.1024 24.3963 24.0179 24.3963C23.9334 24.3963 23.9334 24.4808 23.8489 24.4808C23.8489 24.5653 23.7645 24.5653 23.68 24.6498C23.68 24.5653 23.5955 24.5653 23.511 24.4808C23.511 24.4808 23.4266 24.4808 23.4266 24.3963C23.4266 24.3963 23.4266 24.4808 23.3421 24.4808C23.3421 24.4808 23.3421 24.5653 23.2576 24.5653C23.3421 24.5653 23.4266 24.6498 23.511 24.6498C23.4266 24.6498 23.4266 24.7342 23.3421 24.7342L23.2576 24.8187V25.2411C23.2576 25.3256 23.3421 25.3256 23.3421 25.3256C23.4266 25.3256 23.4266 25.2411 23.4266 25.2411C23.4266 25.1566 23.4266 25.0721 23.511 25.0721C23.511 25.0721 23.5111 25.0721 23.5955 25.0721C23.5111 25.1566 23.511 25.2411 23.511 25.3256C23.511 25.41 23.5955 25.41 23.5955 25.41C23.68 25.41 23.68 25.41 23.7645 25.3256C23.7645 25.2411 23.7645 25.1566 23.68 25.0721C23.68 24.9877 23.68 24.9032 23.5955 24.8187H23.68C23.7645 24.9032 23.7645 24.9032 23.8489 24.9032H23.9334C24.0179 24.9032 24.0179 24.9032 24.1024 24.9032H24.1869C24.2713 24.9877 24.1869 25.0721 24.1869 25.1566C24.1869 25.2411 24.1024 25.3255 24.1869 25.41C24.1869 25.4945 24.2713 25.4945 24.3558 25.4945C24.6092 25.2411 24.8627 24.9877 25.0316 24.6498C25.1161 24.9032 25.1161 25.0721 24.9471 25.1566C25.0316 25.2411 25.0316 25.2411 25.1161 25.2411C25.2005 25.2411 25.2006 25.2411 25.285 25.1566C25.3695 24.9876 25.454 24.9032 25.5384 24.8187C25.6229 24.7342 25.6229 24.7342 25.7074 24.6498C25.7074 24.6498 25.7074 24.5653 25.6229 24.5653C25.454 24.4808 25.454 24.2274 25.5384 24.0584C25.6229 24.0584 25.6229 24.1429 25.7074 24.1429C25.7919 24.1429 25.7919 24.2274 25.8764 24.2274C25.9608 24.2274 25.9608 24.1429 25.9608 24.1429V24.0584C26.1298 23.8895 26.2143 23.7205 26.2987 23.5516C26.3832 23.4671 26.4677 23.2982 26.5522 23.2137C26.5522 23.1292 26.6366 23.1292 26.6366 23.1292C26.7211 23.0448 26.8056 23.0447 26.7211 22.8758C26.8901 22.8758 27.059 22.7913 27.059 22.6223C27.1435 22.3689 27.228 22.2 27.3969 22.031C27.3969 22.031 27.3969 22.031 27.4814 21.9466C27.5658 21.9466 27.5658 21.8621 27.6503 21.8621C27.7348 21.5242 27.9037 21.2708 28.1571 21.0174L28.2417 20.9328C28.2417 20.9328 28.2416 20.8484 28.3261 20.8484L28.4106 20.7639C28.5796 20.6794 28.7485 20.5105 28.833 20.3415C28.9175 20.257 28.9174 20.1726 29.0019 20.0881C29.0019 20.0036 29.0864 19.9192 29.0864 19.8347C29.0864 19.7502 29.0864 19.6657 29.1709 19.5813C29.2553 19.4968 29.2553 19.3278 29.4243 19.2433C29.5932 19.0744 29.6777 18.9055 29.6777 18.7365C29.6777 18.5676 29.7622 18.4831 29.8466 18.3986C29.9311 18.3141 29.9312 18.3141 29.9312 18.2296L29.8466 18.1452C29.5087 18.4831 29.2554 18.821 29.0864 19.2433C29.0019 19.1589 28.9174 19.0744 28.9174 18.9899V19.0744C28.833 19.2433 28.833 19.2434 28.9174 19.3279L29.0019 19.4123C29.0864 19.4968 29.0864 19.5812 29.0864 19.6657H29.3398C29.2553 19.6657 29.1709 19.6658 29.0864 19.7502C29.0019 19.9192 28.9174 20.1726 28.7485 20.2571C28.664 20.3415 28.5795 20.426 28.4951 20.595V20.3415C28.664 20.0881 28.833 19.8347 28.9174 19.4968C29.0019 19.4123 29.1709 19.2434 29.1709 19.1589C29.2553 18.9055 29.3398 18.6521 29.5932 18.4831C29.8467 18.3142 30.0156 17.9762 30.0156 17.7228C30.0156 17.5539 30.1001 17.3849 30.269 17.3004V17.3849H30.3535C30.5225 16.9625 30.5224 16.9625 30.6914 16.8781H30.7759C30.6914 16.6246 30.8603 16.4557 31.1138 16.3712C31.0293 16.2023 31.1138 15.9488 31.1983 15.7799C31.2827 15.6954 31.3672 15.611 31.5361 15.5265C31.6206 15.442 31.7051 15.442 31.7896 15.3575C31.8741 15.2731 31.9585 15.1041 31.9585 15.0196C32.043 14.8507 32.1275 14.6817 32.212 14.5128C32.3809 14.3438 32.4654 14.0904 32.5499 13.9214C32.6343 13.7525 32.6343 13.5835 32.7188 13.4991C32.8033 13.4146 32.8877 13.3301 32.9722 13.2457C33.0567 13.1612 33.1412 13.0767 33.2256 12.9922V12.9077C33.2256 12.8233 33.2256 12.8232 33.2256 12.7388C33.3946 12.6543 33.4791 12.4853 33.4791 12.3164C33.4791 12.2319 33.5635 12.1475 33.648 12.063C33.7325 11.894 33.817 11.7251 33.817 11.4716C33.817 11.3872 33.817 11.3872 33.9015 11.3027C33.986 11.2183 34.0704 11.0493 34.1549 10.9648C34.2394 10.8803 34.3238 10.7959 34.4083 10.6269C34.4083 10.6269 34.4083 10.5424 34.4928 10.5424C34.4928 10.3735 34.4928 10.289 34.5773 10.2045H34.6617C34.6617 10.0356 34.7462 9.86665 34.8307 9.6977C34.9152 9.52875 34.9996 9.35982 34.9996 9.19087C34.9996 9.10639 35.0841 8.9374 35.1686 8.9374C35.2531 8.9374 35.3375 8.93743 35.3375 9.02191C35.3375 9.02191 35.422 9.02189 35.422 9.10636C35.422 9.02189 35.422 8.93742 35.5065 8.85295C35.5065 8.684 35.591 8.51504 35.591 8.26161C35.6755 8.17714 35.7599 8.09267 35.7599 8.0082L35.8444 7.92375C35.8444 7.83927 35.8444 7.83924 35.9288 7.83924C35.9288 7.83924 35.9289 7.75479 36.0134 7.75479C36.1823 7.41689 36.3512 7.16346 36.6046 6.91004C36.6891 6.82556 36.6891 6.82553 36.6891 6.82553C36.6891 6.65658 36.7736 6.57214 36.8581 6.48766C36.9426 6.40319 36.9425 6.40318 37.027 6.3187C37.027 6.3187 37.1115 6.31872 37.1115 6.23425C37.196 6.23425 37.196 6.23422 37.196 6.14974C37.196 6.06527 37.196 5.9808 37.2805 5.89633C37.2805 5.81185 37.2805 5.81184 37.3649 5.72737C37.5339 5.55842 37.7028 5.22055 37.6183 4.96712C37.6183 4.88265 37.7028 4.79813 37.7873 4.71366C37.7873 4.71366 37.8718 4.6292 37.9563 4.6292C38.1252 4.54473 38.2097 4.37576 38.2097 4.29128C38.2097 4.29128 38.2942 4.2913 38.3786 4.20683C38.4631 4.20683 38.5476 4.12238 38.6321 4.12238L38.7165 4.03787C38.801 3.78445 38.9699 3.53105 39.1389 3.27763C39.1389 3.19315 39.2234 3.10867 39.2234 3.10867C39.2234 3.10867 39.2234 3.10867 39.3078 3.10867L39.4768 2.93971C39.4768 2.85523 39.5613 2.68626 39.5613 2.60179C39.6457 2.51731 39.6458 2.34839 39.6458 2.26392L39.8147 2.09496C39.9837 2.01048 40.1526 1.92601 40.2371 1.67258C40.2371 1.58811 40.3216 1.50364 40.3216 1.41917C40.3216 1.33469 40.406 1.16575 40.4905 1.16575C40.575 1.16575 40.6595 1.16572 40.7439 1.08125C40.8284 0.912299 41.0818 0.74336 41.3353 0.827835C41.5042 0.827835 41.5887 0.827855 41.7576 0.74338C41.8421 0.74338 42.011 0.658875 42.0955 0.658875C42.18 0.658875 42.2645 0.74338 42.349 0.74338L42.4334 0.827835C42.7713 1.08126 43.1937 1.25022 43.6161 1.41917C43.7006 1.50364 43.785 1.50362 43.8695 1.50362C43.954 1.50362 44.1229 1.50363 44.2074 1.67258C44.2919 1.75706 44.2919 1.84155 44.2919 2.0105C44.2919 2.09498 44.2919 2.17944 44.3763 2.26392C44.5453 2.34839 44.6298 2.51734 44.7143 2.68629C44.7143 2.85524 44.7987 3.02417 44.8832 3.19312C44.8832 3.19312 44.9677 3.27761 44.9677 3.36208L45.0521 3.44654C45.1366 3.53101 45.1366 3.53102 45.1366 3.6155C45.1366 3.69997 45.1366 3.69998 45.1366 3.78446C45.1366 3.86893 45.1366 4.03787 45.2211 4.03787C45.1366 4.12234 45.1366 4.20681 45.0521 4.29128C44.9676 4.37576 44.9677 4.37577 44.8832 4.46024C44.7987 4.46024 44.7143 4.62918 44.7143 4.71366C44.7143 4.79813 44.7142 4.79814 44.6297 4.88262C44.4608 4.96709 44.2919 5.22055 44.2074 5.3895C44.1229 5.47397 44.0384 5.64289 43.954 5.72737V5.81187C43.954 5.89635 43.954 5.89631 43.8695 5.98078C43.785 6.23421 43.6161 6.40317 43.4471 6.57212C43.5316 6.65659 43.5316 6.74108 43.5316 6.74108C43.5316 6.74108 43.4471 6.74106 43.3626 6.82553C43.2782 7.24791 43.1937 7.58583 43.0248 8.0082C42.9403 8.09267 42.7713 8.17714 42.6868 8.26161C42.6024 8.34609 42.4334 8.43055 42.349 8.51503C42.2645 8.51503 42.2645 8.51503 42.18 8.51503C42.0955 8.51503 42.0955 8.51505 42.011 8.43057C42.0955 8.26162 42.18 8.17713 42.2645 8.09265C42.3489 8.00818 42.4334 7.83925 42.5179 7.58583C42.6024 7.50135 42.7713 7.50134 42.9403 7.41687C42.9403 7.16344 43.0248 6.99448 43.0248 6.82553C43.0248 6.74106 43.0247 6.65659 43.1092 6.57212C43.0247 6.48764 42.9403 6.40316 42.8558 6.40316H42.7713C42.6024 6.48763 42.5179 6.57213 42.5179 6.74108V6.82553V6.91004C42.5179 6.91004 42.5179 6.91004 42.4334 6.91004C42.3489 6.91004 42.349 6.99452 42.349 7.079C42.349 7.24795 42.2645 7.41688 42.18 7.58583C42.18 7.58583 42.18 7.67028 42.0955 7.67028V7.75479C42.011 7.92374 42.011 8.0927 42.011 8.34612V8.43057V8.51503L41.9266 8.59953C41.8421 9.02191 41.8421 9.19083 42.2645 9.35978C42.2645 9.52873 42.18 9.52874 42.0955 9.52874H42.011C41.9266 9.61321 41.8421 9.69771 41.7576 9.86666C41.7576 9.95113 41.8421 10.0356 41.8421 10.1201H41.7576H41.6731C41.5887 10.1201 41.5042 10.1201 41.4197 10.0356V9.95111C41.5042 9.86664 41.5887 9.69769 41.5042 9.52874V9.44428C41.6732 9.27533 41.7576 9.0219 41.5887 8.85295L41.5042 8.9374C41.3353 9.02188 41.0818 9.19085 40.9129 9.27532C40.8284 9.27532 40.8284 9.35978 40.7439 9.35978C40.7439 9.44425 40.6595 9.61322 40.6595 9.6977C40.6595 9.78217 40.6594 9.95114 40.575 10.0356C40.6594 10.0356 40.6595 10.0356 40.7439 9.95111L40.8284 9.86666C40.9129 9.86666 40.9129 9.86664 40.9973 9.95111C40.9973 10.0356 40.9129 10.0356 40.9129 10.0356C40.8284 10.0356 40.8284 10.0356 40.8284 10.1201C40.8284 10.1201 40.8284 10.2045 40.9129 10.2045C40.9974 10.2045 40.9974 10.1201 41.0818 10.1201C41.1663 10.1201 41.1663 10.1201 41.2508 10.0356C41.1663 10.289 41.1663 10.289 40.8284 10.3735V10.289C40.8284 10.2046 40.8284 10.1201 40.8284 10.0356C40.7439 10.2046 40.575 10.3735 40.406 10.3735C40.3215 10.458 40.1526 10.458 40.0681 10.5424C40.0681 10.6269 39.9836 10.7114 39.9836 10.7114C39.8147 10.7959 39.6457 10.8803 39.5613 10.9648C39.4768 11.0493 39.3923 11.0493 39.3078 11.1338C39.2234 11.2183 39.1389 11.3027 39.0544 11.4716C39.0544 11.4716 39.0544 11.4717 39.0544 11.5562C39.0544 11.9785 38.801 12.3164 38.4631 12.5699C38.3786 12.6543 38.2942 12.8233 38.2097 12.9077C38.1252 12.9922 38.0407 12.9922 38.0407 13.0767C37.9562 13.3301 37.8718 13.4991 37.7873 13.7525L37.7029 13.837C37.6184 13.9215 37.6184 13.9214 37.5339 13.9214C37.3649 13.9214 37.196 14.0059 37.1115 14.1749C37.1115 14.2593 37.027 14.2593 36.9426 14.3438L36.8581 14.4283C36.7736 14.5127 36.7736 14.5972 36.6891 14.5972C36.4357 14.8507 36.2668 15.0196 36.0134 15.273V14.3438C36.0134 14.2593 36.0133 14.0904 36.1823 14.0059C36.0978 13.9214 36.0978 13.837 36.0134 13.7525C36.0978 13.668 36.0978 13.5835 36.1823 13.5835V13.4991C36.0133 13.4146 36.0134 13.2457 36.0134 12.9922V11.4716C36.0134 11.5561 36.0134 11.5561 36.0134 11.6406C35.9289 11.9785 35.9289 12.232 36.0134 12.5699C36.0134 12.6543 36.0134 12.8233 36.0134 12.9077C36.0134 12.9922 36.0134 13.1612 36.0134 13.2457C36.0134 13.4991 36.0133 13.837 35.9288 14.0904V14.2594C36.0133 14.4283 36.0134 14.5973 36.0134 14.6817C36.0134 14.7662 36.0134 14.9351 36.0134 15.0196C36.0978 15.3575 35.9289 15.7799 35.6754 16.0333C35.591 16.2023 35.5065 16.3712 35.422 16.4557C35.3375 16.5402 35.3375 16.6246 35.2531 16.7091V17.1315C35.3375 17.3849 35.3376 17.7228 35.1686 18.0607C35.1686 18.2297 35.0841 18.3986 35.0841 18.5676C35.0841 18.821 35.0841 19.0744 34.9996 19.3279C34.9152 19.4123 34.8307 19.4968 34.8307 19.5813C34.7462 19.7502 34.6617 19.8347 34.5773 20.0036C34.4928 20.0881 34.3238 20.2571 34.2393 20.426C34.1549 20.6794 33.9859 20.9329 33.817 21.1018H33.7325C33.7325 21.1018 33.7325 21.1018 33.648 21.1018C33.5635 21.2708 33.5636 21.4397 33.3101 21.4397C33.1412 21.5242 32.9722 21.6087 32.8033 21.6931C32.8033 21.6931 32.7188 21.7776 32.7188 21.8621C32.7188 21.9466 32.7188 21.9465 32.6344 22.031C32.5499 22.1155 32.4654 22.2 32.2964 22.2845H32.212H32.1275C32.043 22.2845 31.9585 22.2845 31.9585 22.3689C31.9585 22.4534 31.7896 22.4534 31.7896 22.4534C31.7051 22.4534 31.7051 22.4534 31.6206 22.4534C31.5362 22.4534 31.3672 22.5379 31.2827 22.5379C31.1983 22.6224 31.1138 22.6223 31.0293 22.6223C30.9448 22.6223 30.9449 22.6224 30.9449 22.5379C30.8604 22.5379 30.8604 22.6223 30.8604 22.6223V23.1292H30.9449C31.0293 23.1292 31.0293 23.1292 31.0293 23.2137C31.0293 23.2137 31.0293 23.2982 31.0293 23.3826L30.9449 23.2981C30.9449 23.2981 30.8604 23.2982 30.8604 23.2137C30.7759 23.2982 30.8604 23.3826 30.9449 23.4671L31.0293 23.5516C30.9448 23.6361 30.9448 23.6361 30.8604 23.6361C30.7759 23.6361 30.7759 23.6361 30.6914 23.5516C30.6914 23.5516 30.6069 23.5516 30.6069 23.4671C30.5225 23.5516 30.5225 23.636 30.5225 23.7205H30.6914C30.8603 23.9739 30.8604 24.3118 30.6069 24.5653C30.5225 24.4808 30.438 24.3963 30.3535 24.3118C30.269 24.3118 30.269 24.3963 30.269 24.3963V24.4808V24.5653H29.9312C29.8467 24.7342 29.8467 24.8187 29.7622 24.8187C29.6777 24.8187 29.5932 24.7342 29.4243 24.5653C29.4243 24.9032 29.5088 24.9877 30.1846 25.0721C30.269 25.3256 30.1001 25.579 29.9312 25.8324C29.8467 25.8324 29.8466 25.8324 29.8466 25.9169C29.8466 26.0858 29.8467 26.2548 29.6777 26.4237C29.5933 26.5082 29.5933 26.5927 29.5088 26.6771H28.4951C28.4106 26.6771 28.3261 26.7616 28.2417 26.7616C28.2417 26.8461 28.2416 26.8461 28.3261 27.015C28.4106 27.184 28.4106 27.184 28.2417 27.353C28.1572 27.184 28.0727 27.0151 27.9882 26.7616C28.0727 26.7616 28.0727 26.7616 28.1571 26.7616C28.2416 26.7616 28.2416 26.7616 28.3261 26.7616C28.2416 26.7616 28.2417 26.6771 28.2417 26.6771C28.2417 26.6771 28.2416 26.6771 28.1571 26.5927H28.0727C27.7348 26.7616 27.7348 26.7616 27.8193 27.184C27.7348 27.0995 27.7348 27.0995 27.6503 27.0995C27.6503 27.0995 27.6503 27.0995 27.6503 27.184C27.6503 27.184 27.6503 27.184 27.6503 27.2685C27.7348 27.3529 27.7348 27.6064 27.7348 27.6908V28.0288C27.7348 28.0288 27.8193 28.0287 27.8193 27.9443C27.8193 27.9443 27.9037 27.9443 27.9037 27.8598C27.9037 27.8598 27.9038 27.9443 27.9882 27.9443C28.0727 27.9443 28.0727 28.0288 28.0727 28.0288C27.9882 28.1132 27.9038 28.2822 27.8193 28.3666C27.8193 28.4511 27.7348 28.5356 27.7348 28.5356C27.5658 28.7045 27.3969 28.789 27.2279 28.958C27.1435 28.958 27.059 29.1269 27.059 29.2114C27.059 29.3803 27.059 29.5493 26.89 29.7183C26.89 29.8027 26.89 29.8027 26.89 29.8872C26.89 29.9717 26.89 30.0562 26.89 30.1406C26.8055 30.0562 26.8056 29.9717 26.7211 29.9717C26.6366 29.8872 26.5522 29.8872 26.5522 29.8027H26.6366C26.8056 29.7182 26.9745 29.6338 27.059 29.4648C26.9745 29.3804 26.89 29.3803 26.8056 29.3803C26.8056 29.2959 26.89 29.2114 26.89 29.1269C26.89 29.0424 26.9745 28.958 26.9745 28.8735C26.8901 29.0425 26.7211 29.2114 26.7211 29.2114C26.6366 29.2114 26.6366 29.2959 26.6366 29.2959L26.5522 29.3803C26.2987 29.3803 26.2987 29.3804 26.2987 29.7183C26.5522 29.7183 26.5522 29.7182 26.5522 29.9717C26.3832 30.0561 26.2142 30.1406 26.0453 30.2251C26.0453 30.3096 26.0453 30.394 25.9608 30.4785C25.8763 30.394 25.7919 30.394 25.7074 30.394V30.6475C25.7919 30.7319 25.7919 30.7319 25.7919 30.8164C25.7919 30.9009 25.7074 30.9009 25.6229 30.9009C25.7074 30.9853 25.7074 31.0699 25.7919 31.1543C25.8763 31.2388 25.8763 31.4077 25.9608 31.4922C25.9608 31.4922 25.9608 31.4922 25.8764 31.4922C25.7919 31.4922 25.7919 31.4078 25.7074 31.4078C25.7074 31.3233 25.6229 31.3233 25.5384 31.2388C25.5384 31.3233 25.5385 31.3233 25.454 31.4078C25.3695 31.4922 25.3695 31.5767 25.454 31.6612C25.454 31.6612 25.5384 31.6611 25.5384 31.7456C25.5384 31.7456 25.454 31.8301 25.285 31.8301C25.285 31.7457 25.285 31.7456 25.285 31.6612V31.5767C25.2006 31.5767 25.2005 31.5767 25.1161 31.5767C25.0316 31.5767 25.0316 31.5767 25.0316 31.5767C24.9471 31.6612 24.9471 31.8301 24.9471 31.9991C24.8626 31.7457 24.8627 31.9146 24.8627 32.168ZM24.4403 31.2388C24.5248 31.2388 24.5248 31.3232 24.6092 31.3232C24.6937 31.2388 24.6937 31.2388 24.6937 31.1543L24.6092 31.0698C24.5248 31.1543 24.4403 31.2388 24.4403 31.2388ZM28.833 26.0013C28.833 26.0013 28.7485 26.0013 28.833 26.0013C28.7485 26.0013 28.7485 26.0014 28.7485 26.0858C28.7485 26.0858 28.7485 26.1703 28.833 26.2548C28.9175 26.1703 28.9174 26.1703 28.9174 26.0858C28.9174 26.0858 28.9174 26.0013 29.0019 26.0013C29.0019 26.0013 29.0019 26.0013 28.9174 26.0013H28.833ZM28.2417 25.0721C28.2417 25.1566 28.2416 25.2411 28.1571 25.2411C28.1571 25.2411 28.0727 25.3255 28.0727 25.41C28.0727 25.579 28.1572 25.6635 28.3261 25.6635C28.3261 25.7479 28.3261 25.8324 28.3261 25.8324C28.3261 25.9169 28.3261 25.9169 28.3261 26.0013C28.5795 25.8324 28.5795 25.8324 28.5795 25.41C28.5795 25.4945 28.4106 25.4945 28.3261 25.579C28.2416 25.579 28.2416 25.579 28.1571 25.579C28.1571 25.4945 28.1572 25.41 28.2417 25.3256C28.2417 25.1566 28.2416 25.0721 28.3261 25.0721H28.2417ZM24.0179 25.579C23.9334 25.579 23.849 25.579 23.7645 25.6635H23.8489C23.9334 25.6635 24.1024 25.7479 24.1869 25.8324C24.1869 25.7479 24.1869 25.6634 24.1869 25.579C24.1024 25.579 24.1024 25.579 24.0179 25.579ZM25.2005 25.3256C25.2005 25.3256 25.2005 25.41 25.2005 25.3256C25.1161 25.41 25.1161 25.41 25.2005 25.3256C25.1161 25.41 25.1161 25.41 25.2005 25.4945V25.579C25.285 25.579 25.285 25.4945 25.3695 25.4945L25.285 25.41L25.2005 25.3256ZM29.3398 24.2274C29.2553 24.2274 29.2553 24.2274 29.1709 24.3118C29.1709 24.3118 29.1709 24.3119 29.1709 24.3963H29.2554C29.3398 24.3963 29.3398 24.3963 29.3398 24.3118V24.2274C29.4243 24.2274 29.4243 24.2274 29.3398 24.2274C29.4243 24.2274 29.4243 24.2274 29.3398 24.2274ZM28.7485 23.805C28.4951 23.974 28.4951 23.9739 28.664 24.1429C28.7485 23.9739 28.7485 23.974 28.7485 23.805ZM29.5088 22.9603C29.3398 23.0447 29.3398 23.2137 29.4243 23.3826C29.4243 23.4671 29.4243 23.4671 29.5088 23.5516C29.5933 23.5516 29.6777 23.4671 29.7622 23.3826C29.8467 23.2982 29.9311 23.2137 30.0156 23.2137V22.9603C29.9311 23.0447 29.8467 23.0448 29.7622 23.1292C29.6777 23.0448 29.6777 22.9603 29.5088 22.9603ZM29.0019 23.1292C29.0019 23.2137 28.9174 23.2137 28.9174 23.2981C28.9174 23.3826 28.833 23.4671 28.833 23.4671C29.0019 23.5516 29.0019 23.3827 29.0019 23.1292C29.0019 23.2137 29.0019 23.2137 29.0019 23.1292ZM29.9312 22.6223C29.9312 22.6223 29.8467 22.6223 29.9312 22.6223C29.8467 22.7068 29.8467 22.7068 29.9312 22.6223L29.8466 22.9603C29.9311 22.8758 29.9312 22.7913 29.9312 22.7069C30.0156 22.7069 30.0156 22.7068 29.9312 22.6223ZM22.7508 21.6931C22.7508 21.7776 22.7508 21.7776 22.6663 21.8621C22.6663 21.9466 22.6663 21.9465 22.5818 22.031C22.4973 22.031 22.4974 22.1155 22.4974 22.1155L22.5818 22.2C22.5818 22.2 22.5818 22.2 22.6663 22.2C22.7508 22.1155 22.7508 22.1155 22.8352 22.031L22.9197 21.9466C22.9197 21.8621 22.9197 21.8621 23.0042 21.7776V21.6931C22.9197 21.6931 22.7508 21.6931 22.7508 21.6931ZM22.7508 21.1863H22.8352C22.8352 21.2707 22.8352 21.2707 22.8352 21.3552C22.8352 21.4397 22.8353 21.5242 22.9197 21.6086C22.9197 21.5242 23.0042 21.5242 23.0887 21.3552C23.1731 21.2707 23.1732 21.2708 23.3421 21.2708V21.1863H22.9197V21.1018L22.6663 20.8484C22.5818 20.8484 22.4973 20.8484 22.4129 20.9328V21.1863H22.4974H22.5818C22.5818 21.2707 22.6663 21.1863 22.7508 21.1863ZM30.5225 21.0174C30.5225 21.1018 30.5225 21.1018 30.5225 21.1863C30.5225 21.2707 30.5225 21.3553 30.438 21.4397C30.5225 21.4397 30.5225 21.4397 30.6069 21.5242L30.5225 21.0174ZM30.7759 20.0036C30.6069 20.2571 30.6069 20.2571 30.8604 20.595C30.8604 20.5105 30.8604 20.3415 30.7759 20.2571C30.7759 20.1726 30.7759 20.0881 30.7759 20.0036ZM32.043 20.0881C31.9585 20.0881 31.9585 20.1726 31.8741 20.1726C31.8741 20.2571 31.9585 20.2571 31.9585 20.2571C32.043 20.3415 32.043 20.426 32.1275 20.5105C32.212 20.426 32.2964 20.3415 32.2964 20.2571C32.2964 20.2571 32.2965 20.1726 32.212 20.1726C32.1275 20.0881 32.1275 20.0881 32.043 20.0881ZM32.2964 19.3279C32.1275 19.3279 31.9585 19.4968 31.9585 19.6657V19.7502C31.9585 19.7502 31.9585 19.8347 32.043 19.8347C32.043 19.7502 32.1275 19.7502 32.1275 19.6657C32.1275 19.5812 32.212 19.4968 32.2964 19.3279ZM20.47 19.7502V19.8347C20.5544 19.8347 20.5544 19.8347 20.6389 19.7502C20.6389 19.7502 20.5544 19.7502 20.47 19.7502C20.5544 19.7502 20.5544 19.7502 20.47 19.7502ZM21.9905 17.9762C21.8215 18.1452 21.906 18.2297 21.9905 18.3986L22.075 18.3141C22.1595 18.2297 22.1595 18.2296 22.1595 18.2296C22.1595 18.1452 22.075 18.0607 21.9905 17.9762ZM22.2439 17.9762C22.1594 18.1452 22.1595 18.2297 22.3284 18.3986C22.4129 18.3986 22.4129 18.3141 22.4129 18.2296C22.4129 18.0607 22.3284 17.9762 22.2439 17.9762ZM30.3535 17.7228C30.269 17.8073 30.269 17.8918 30.269 18.1452C30.438 17.9762 30.438 17.8073 30.3535 17.7228ZM22.3284 15.6954C22.3284 15.7799 22.2439 15.8644 22.2439 15.9489C22.2439 16.0333 22.1595 16.1178 22.1595 16.2023C22.1595 16.2023 22.1595 16.2023 22.075 16.2867C21.9905 16.2867 21.9905 16.3712 21.9905 16.4557C21.9905 16.5402 22.075 16.6246 22.075 16.6246C22.1595 16.7091 22.1595 16.7936 22.1595 16.7936C22.1595 16.8781 22.075 16.9625 21.9905 16.9625C22.075 17.2159 22.1594 17.4694 22.2439 17.8073L22.3284 17.7228L22.4129 17.6384L22.4974 17.7228C22.4974 17.7228 22.5818 17.7228 22.5818 17.8073C22.6663 17.7228 22.7508 17.5538 22.6663 17.3849C22.5818 17.3849 22.5818 17.4694 22.4974 17.4694C22.4129 17.4694 22.3284 17.5539 22.3284 17.5539C22.3284 17.4694 22.4129 17.3005 22.4129 17.216C22.4973 17.216 22.6663 17.1315 22.7508 17.1315V16.7936C22.6663 16.8781 22.5818 16.8781 22.4129 16.8781C22.4129 16.7936 22.4129 16.7936 22.4129 16.7091C22.4129 16.6246 22.4973 16.4557 22.5818 16.3712L22.3284 16.1178C22.3284 16.0333 22.4129 16.0333 22.4129 16.0333C22.4973 15.9488 22.4973 15.8644 22.5818 15.7799C22.5818 15.8644 22.5818 15.8644 22.6663 15.9489C22.6663 16.0333 22.6663 16.0333 22.7508 16.1178C22.7508 16.0333 22.8353 15.9488 22.9197 15.8644C23.0042 15.7799 23.0042 15.7799 23.0042 15.6954C23.0042 15.6954 23.0042 15.611 22.9197 15.5265H22.8352V15.6109C22.8352 15.6954 22.8352 15.6954 22.8352 15.7799C22.5818 15.8644 22.4974 15.7799 22.3284 15.6954ZM33.5636 17.4694C33.5636 17.4694 33.4791 17.5539 33.4791 17.6384C33.3946 17.7228 33.3101 17.8073 33.2256 17.8918C33.3101 17.8918 33.3101 17.8073 33.3946 17.8073C33.4791 17.8073 33.5636 17.7228 33.5636 17.6384C33.648 17.6384 33.648 17.5539 33.648 17.5539C33.5635 17.4694 33.5636 17.4694 33.5636 17.4694ZM33.1412 17.4694V17.5539C33.1412 17.5539 33.1412 17.5539 33.1412 17.6384C33.1412 17.6384 33.2256 17.6383 33.2256 17.7228C33.2256 17.6383 33.3101 17.6384 33.3946 17.6384C33.3946 17.6384 33.3946 17.6384 33.3101 17.6384C33.2257 17.4694 33.2257 17.4694 33.1412 17.4694ZM30.6914 16.8781C30.438 17.216 30.438 17.3005 30.6069 17.6384C30.6069 17.5539 30.6914 17.4694 30.6914 17.3849C30.6914 17.3004 30.7759 17.3005 30.7759 17.216C30.7759 17.216 30.7759 17.216 30.8604 17.1315V17.047C30.7759 16.9625 30.6914 16.9625 30.6914 16.8781ZM23.0887 16.7936C23.0887 17.047 23.1732 17.1315 23.3421 17.216V17.1315C23.3421 17.1315 23.3421 17.1315 23.3421 17.047C23.3421 16.9625 23.3421 16.9625 23.3421 16.8781V16.7936H23.2576C23.1731 16.7936 23.0887 16.7936 23.0887 16.7936ZM34.2393 16.3712C34.1549 16.3712 34.0704 16.3712 33.9859 16.4557C34.0704 16.5402 34.1549 16.5401 34.2393 16.5401C34.3238 16.5401 34.3238 16.4557 34.4083 16.2867H34.3239L34.2393 16.3712ZM22.9197 14.8506C22.9197 14.8506 22.8352 14.8507 22.8352 14.9352V15.0196C22.8352 15.1041 22.8353 15.2731 22.7508 15.3575C22.7508 15.442 22.7508 15.442 22.6663 15.5265C22.7508 15.5265 22.8353 15.442 22.9197 15.442C22.9197 15.442 22.9197 15.3575 23.0042 15.3575L23.0887 15.273C23.0042 15.273 23.0042 15.273 23.0042 15.1886C23.0042 15.1041 23.0042 15.1041 23.0887 15.0196V14.9352C23.0042 14.8507 23.0042 14.8506 22.9197 14.8506ZM22.2439 14.8506C22.2439 14.9351 22.2439 14.9351 22.2439 14.8506C22.2439 15.0196 22.2439 15.1885 22.1595 15.273C22.1595 15.3575 22.2439 15.3575 22.2439 15.442H22.3284V14.8506C22.3284 14.8506 22.3284 14.8506 22.2439 14.8506ZM22.6663 14.5128V14.5972C22.6663 14.6817 22.6663 14.6817 22.6663 14.7662C22.7508 14.7662 22.7508 14.6817 22.8352 14.6817C22.8352 14.5973 22.8352 14.5128 22.8352 14.5128C22.7508 14.5128 22.7508 14.5128 22.6663 14.5128ZM22.4129 13.9214C22.3284 14.0059 22.3284 14.0059 22.3284 14.0059V14.0904V14.1749C22.4129 14.1749 22.4129 14.1749 22.4129 14.0904C22.4973 14.0904 22.4973 14.0904 22.4129 13.9214C22.4129 14.0059 22.4129 14.0059 22.4129 13.9214ZM22.2439 13.7525C22.2439 13.837 22.3284 13.837 22.3284 13.9214V13.3301C22.3284 13.4146 22.3284 13.4146 22.2439 13.4991H22.1595C22.075 13.4991 21.9905 13.4991 21.906 13.4146C21.8216 13.4146 21.8216 13.3301 21.7371 13.3301C21.7371 13.3301 21.7371 13.3301 21.6526 13.3301C21.7371 13.4991 21.7371 13.668 21.906 13.837C21.9905 13.837 22.1594 13.7525 22.2439 13.7525ZM23.2576 13.2457C23.1731 13.2457 23.1731 13.2457 23.2576 13.2457C23.2576 13.3301 23.2576 13.3301 23.2576 13.4146C23.2576 13.4146 23.2576 13.4991 23.3421 13.4991C23.4266 13.4991 23.4266 13.4991 23.511 13.4991C23.5955 13.4991 23.5955 13.4991 23.68 13.4991C23.511 13.3301 23.3421 13.2457 23.2576 13.2457ZM23.8489 12.6543C23.8489 12.7388 23.849 12.8233 23.7645 12.8233C23.7645 12.9078 23.7645 12.9922 23.68 12.9922C23.8489 12.9922 23.8489 12.9922 23.9334 12.9077C24.0179 12.9077 24.0179 12.8233 23.8489 12.6543ZM23.2576 12.3164C23.0887 12.4853 22.9197 12.5698 22.9197 12.7388C22.9197 12.8232 23.0042 12.9077 23.0887 12.9077V12.8233C23.1731 12.5699 23.1732 12.4854 23.3421 12.4009C23.4266 12.4009 23.4266 12.4854 23.511 12.4854C23.5955 12.4854 23.68 12.4854 23.7645 12.4009C23.7645 12.4009 23.8489 12.4009 23.8489 12.3164C23.7645 12.3164 23.68 12.2319 23.5955 12.2319C23.5955 12.2319 23.511 12.3164 23.4266 12.3164C23.3421 12.3164 23.3421 12.3164 23.2576 12.4009C23.3421 12.4009 23.3421 12.4009 23.2576 12.3164C23.2576 12.4009 23.2576 12.4009 23.2576 12.3164ZM23.8489 11.3027V11.5562L23.7645 11.6406L23.68 11.7251C23.7645 11.8096 23.7645 11.8941 23.7645 11.9785C23.7645 12.232 23.7645 12.2319 23.9334 12.2319C24.0179 12.2319 24.0179 12.2319 24.1024 12.3164V12.4009C24.1024 12.4009 24.1024 12.4009 24.1024 12.4854C24.0179 12.4854 24.0179 12.5699 24.0179 12.5699C24.0179 12.5699 24.0179 12.6543 24.1024 12.6543H24.2713C24.3558 12.5698 24.3558 12.5698 24.3558 12.4854C24.2713 12.2319 24.2713 11.9785 24.3558 11.7251L24.1869 11.5562L24.2713 11.4716C24.2713 11.4716 24.3558 11.4717 24.3558 11.3872L24.4403 11.3027C24.2713 11.0493 24.4403 10.9648 24.5247 10.9648C24.5247 10.9648 24.6092 10.9648 24.6092 10.8804C24.5248 10.8804 24.4403 10.9648 24.3558 10.9648C24.3558 10.9648 24.2713 10.9648 24.2713 11.0493C24.2713 10.8803 24.2713 10.7114 24.4403 10.5424V10.7114C24.6092 10.7114 24.6092 10.7114 24.6937 10.6269C24.6937 10.5424 24.6092 10.458 24.5247 10.3735C24.4403 10.289 24.3558 10.2046 24.3558 10.0356H24.1869C24.1869 9.86667 24.1868 9.78219 24.1024 9.61324C24.2713 9.69772 24.3558 9.6977 24.5247 9.6977V10.1201C24.6937 10.1201 24.6937 10.0356 24.6937 10.0356C24.6937 9.95114 24.6937 9.95111 24.7782 9.95111C24.7782 9.86664 24.6937 9.78217 24.6092 9.6977C24.5248 9.6977 24.4403 9.69772 24.3558 9.61324C24.2713 9.61324 24.1868 9.52874 24.1024 9.52874C24.1024 9.61321 24.1024 9.78215 24.0179 9.78215C23.849 9.9511 23.849 10.2045 24.0179 10.3735C24.1024 10.289 24.1024 10.289 24.1024 10.2045C24.1024 10.2045 24.1024 10.1201 24.1869 10.1201C24.1024 10.458 24.1024 10.458 23.8489 10.6269C23.7645 10.6269 23.7645 10.7114 23.7645 10.7959C23.7645 10.8803 23.7645 10.8803 23.8489 10.9648C23.9334 11.0493 24.0179 11.1338 24.1869 11.2182V11.3872L23.8489 11.3027ZM19.2028 12.063V12.4854H19.2873L19.2028 12.063ZM24.5247 11.9785C24.5247 11.9785 24.5247 12.063 24.5247 11.9785C24.5247 12.063 24.5247 12.063 24.5247 11.9785C24.5247 12.063 24.5247 12.063 24.5247 12.063H24.6092C24.6092 12.063 24.6092 11.9785 24.6937 11.9785C24.6937 12.063 24.6092 11.9785 24.5247 11.9785ZM23.2576 11.8096C23.2576 11.894 23.3421 11.8941 23.3421 11.9785C23.3421 12.063 23.4266 12.063 23.4266 12.1475C23.4266 12.1475 23.4266 12.1475 23.4266 12.063C23.4266 11.9785 23.511 11.9785 23.511 11.9785C23.4266 11.9785 23.4266 11.9785 23.3421 11.894C23.3421 11.894 23.2576 11.894 23.2576 11.8096ZM24.7782 11.1338C24.7782 11.1338 24.6937 11.1338 24.7782 11.1338C24.6937 11.2183 24.6937 11.2182 24.6937 11.2182C24.6937 11.2182 24.7782 11.2183 24.7782 11.3027C24.8626 11.3027 24.8626 11.3027 24.9471 11.2182C24.8626 11.2182 24.7782 11.1338 24.7782 11.1338ZM23.5955 10.0356C23.5111 10.1201 23.3421 10.1201 23.3421 10.1201V10.5424C23.4266 10.5424 23.5111 10.6269 23.5955 10.6269C23.5955 10.7114 23.5955 10.7114 23.5955 10.7959C23.5955 10.8803 23.5111 10.9648 23.5955 11.0493C23.68 10.9648 23.68 10.7959 23.511 10.5424C23.511 10.5424 23.5111 10.458 23.5955 10.458C23.68 10.289 23.68 10.2046 23.5955 10.0356C23.5955 10.1201 23.5955 10.1201 23.5955 10.0356ZM38.6321 9.78215C38.6321 9.86663 38.6321 9.86664 38.6321 9.95111C38.5476 10.1201 38.632 10.289 38.7165 10.458C38.7165 10.3735 38.7165 10.289 38.7165 10.289C38.7165 10.1201 38.7165 9.9511 38.6321 9.78215ZM22.3284 10.0356V10.3735C22.4129 10.2045 22.4129 10.1201 22.3284 10.0356ZM23.5955 8.9374L23.68 9.02191C23.5955 9.02191 23.5955 9.10636 23.511 9.10636C23.4266 9.19084 23.4266 9.2753 23.4266 9.35978C23.4266 9.35978 23.4266 9.44428 23.3421 9.44428C23.4266 9.44428 23.5955 9.52874 23.68 9.52874C23.7645 9.35979 23.7645 9.27531 23.8489 9.10636C23.7645 9.02189 23.68 9.02188 23.5955 8.9374ZM24.1869 9.10636V9.19087C24.1869 9.27534 24.1868 9.35978 24.2713 9.35978C24.3558 9.35978 24.3558 9.3598 24.3558 9.27532V9.19087C24.3558 9.10639 24.3558 9.10636 24.1869 9.10636ZM38.6321 8.0082V9.10636C38.7165 8.76846 38.7165 8.3461 38.6321 8.0082ZM24.9471 8.68399C24.8626 8.68399 24.8626 8.68399 24.7782 8.68399C24.8626 8.76846 24.8626 8.76849 24.9471 8.76849C24.9471 8.76849 25.0316 8.76847 25.0316 8.85295C25.0316 8.76847 25.0316 8.76846 25.0316 8.68399C24.9471 8.68399 24.9471 8.68399 24.9471 8.68399ZM23.0887 7.079C23.0887 7.16347 23.0887 7.24794 23.0887 7.33241C23.0887 7.41689 23.0887 7.50135 23.0887 7.58583C23.0887 7.6703 23.1731 7.75479 23.2576 7.75479H23.511C23.5955 7.67031 23.68 7.67032 23.7645 7.50137C23.68 7.50137 23.5955 7.50134 23.511 7.41687C23.4266 7.33239 23.4266 7.16347 23.4266 7.079H23.0887ZM22.7508 7.16345C22.7508 7.16345 22.6663 7.16345 22.7508 7.16345C22.6663 7.24793 22.6663 7.24794 22.6663 7.33241C22.6663 7.33241 22.6663 7.41687 22.7508 7.41687V7.33241C22.8353 7.24794 22.8353 7.24793 22.7508 7.16345C22.8353 7.16345 22.8353 7.16345 22.7508 7.16345ZM23.68 6.99449C23.5955 6.99449 23.5955 7.079 23.5955 7.079C23.5955 7.16347 23.5955 7.16345 23.511 7.16345C23.68 7.24793 23.7645 7.16344 23.68 6.99449C23.7645 6.99449 23.7645 6.99449 23.68 6.99449ZM23.9334 6.65662C23.8489 6.7411 23.8489 6.74106 23.8489 6.82553C23.8489 6.82553 23.8489 6.74108 23.9334 6.74108L24.0179 6.65662C23.9334 6.7411 23.9334 6.7411 23.9334 6.65662ZM23.3421 6.40316C23.2576 6.40316 23.2576 6.48764 23.1732 6.57212C23.1732 6.74107 23.2576 6.82556 23.3421 6.91004C23.4266 6.74109 23.5111 6.65662 23.5955 6.65662C23.5955 6.57215 23.5111 6.48763 23.3421 6.40316C23.4266 6.40316 23.4266 6.40316 23.3421 6.40316ZM24.0179 6.14974C24.0179 6.23422 23.9334 6.3187 23.9334 6.3187C23.9334 6.40318 23.8489 6.40319 23.8489 6.48766C23.8489 6.48766 23.8489 6.57212 23.9334 6.57212C24.0179 6.65659 24.1868 6.7411 24.3558 6.65662C24.3558 6.4032 24.1869 6.23422 24.0179 6.14974ZM43.1092 5.72737C43.0247 5.72737 42.8558 5.81185 42.7713 5.89633C42.7713 5.89633 42.7713 5.89631 42.7713 5.98078C42.7713 6.06526 42.8558 6.06527 42.8558 6.14974C43.0247 6.06527 43.1092 5.89632 43.1092 5.72737ZM23.5955 5.22054C23.5955 5.30501 23.5955 5.30499 23.5955 5.30499H23.68C23.7645 5.22052 23.7645 5.13605 23.7645 5.05158C23.68 5.05158 23.5955 5.13606 23.5955 5.22054ZM23.3421 4.96712L23.2576 5.05158C23.1731 5.05158 23.1732 5.13603 23.1732 5.13603C23.1732 5.22051 23.1731 5.22052 23.2576 5.30499C23.3421 5.22052 23.3421 5.0516 23.3421 4.96712ZM43.7005 3.78446C43.7005 3.78446 43.6161 3.78444 43.6161 3.86891C43.6161 3.95338 43.5316 3.9534 43.5316 4.03787C43.3626 4.29129 43.2782 4.62919 43.2782 4.88262V4.96712C43.2782 5.0516 43.2782 5.13603 43.3626 5.13603C43.4471 5.05156 43.5316 5.0516 43.6161 4.96712L43.5316 4.88262C43.5316 4.79814 43.5316 4.71366 43.6161 4.71366V4.6292L43.7005 4.54475C43.785 4.3758 43.785 4.20684 43.785 3.95342C43.785 3.95342 43.785 3.95342 43.8695 3.95342C43.8695 3.95342 43.8695 3.95342 43.954 3.95342C43.785 3.86894 43.785 3.78446 43.7005 3.78446ZM26.0453 31.2388C26.0453 31.1543 26.0453 31.0698 26.0453 31.0698C26.0453 31.0698 26.0453 31.1543 26.1298 31.1543C26.0453 31.1543 26.0453 31.2388 26.0453 31.2388ZM25.6229 31.0698C25.6229 30.9009 25.7074 30.8164 25.7919 30.8164C25.8763 30.8164 25.9608 30.8164 26.0453 30.8164C26.0453 30.8164 25.9608 30.8164 25.9608 30.9009C25.8763 30.9009 25.7918 30.9854 25.6229 31.0698ZM26.8056 30.732C26.8056 30.6475 26.8055 30.6475 26.89 30.563L26.9745 30.4785C27.059 30.4785 27.059 30.4785 27.059 30.563C27.059 30.563 27.059 30.6475 26.9745 30.6475C26.8901 30.6475 26.89 30.6475 26.8056 30.732ZM26.2142 30.732C26.2142 30.732 26.2143 30.6475 26.1298 30.6475C26.2143 30.4785 26.2987 30.3096 26.3832 30.1406C26.4677 30.2251 26.5522 30.3096 26.5522 30.3096V30.394L26.4676 30.4785C26.2987 30.4785 26.2987 30.6475 26.2142 30.732ZM28.0727 27.6908C27.9882 27.5219 27.9882 27.4374 27.9882 27.353C28.0727 27.353 28.0727 27.4374 28.1571 27.4374V27.5219C28.1571 27.6064 28.0727 27.6064 28.0727 27.6908ZM28.4951 26.8461C28.4951 26.7616 28.495 26.7616 28.5795 26.6771C28.664 26.6771 28.664 26.6772 28.664 26.7616C28.5796 26.8461 28.5795 26.8461 28.4951 26.8461ZM23.2576 23.805C23.1731 23.805 23.1731 23.7205 23.0887 23.6361V23.5516C23.1731 23.5516 23.1731 23.5516 23.2576 23.5516C23.3421 23.5516 23.3421 23.636 23.3421 23.7205V23.805C23.3421 23.7205 23.2576 23.805 23.2576 23.805ZM31.0293 23.5516L30.8604 23.3826H30.9449H31.0293C31.0293 23.4671 31.0293 23.5516 31.0293 23.5516ZM27.7348 21.1863C27.8192 21.1018 27.9038 21.1018 27.9882 21.1018C27.9882 21.1863 27.9882 21.1863 27.7348 21.1863ZM23.68 20.6794H23.5955H23.511L23.5955 20.595C23.5955 20.595 23.5955 20.5105 23.68 20.5105L23.7645 20.595L23.68 20.6794ZM23.9334 20.3415C23.7645 20.1726 23.7645 20.1726 23.9334 19.9191V20.3415ZM23.1732 20.2571V20.0036C23.2576 20.0036 23.3421 20.0036 23.4266 20.0881C23.3421 20.1726 23.2576 20.2571 23.1732 20.2571ZM23.68 18.5676C23.5955 18.4831 23.5955 18.4831 23.5955 18.4831C23.68 18.3986 23.68 18.3986 23.68 18.3986H23.7645C23.7645 18.3986 23.7645 18.3986 23.8489 18.3986C23.68 18.4831 23.68 18.4831 23.68 18.5676ZM23.7645 18.3141C23.849 18.2297 23.7645 18.1452 23.68 18.0607L23.5955 17.9762H23.9334C23.9334 18.0607 23.9334 18.0607 23.8489 18.1452C23.8489 18.1452 23.849 18.2297 23.7645 18.3141ZM23.9334 17.8918V17.6384C24.0179 17.6384 24.0179 17.6383 24.0179 17.7228C24.1024 17.7228 24.0179 17.8073 23.9334 17.8918ZM37.3649 15.0196L37.2805 14.7662C37.3649 14.8507 37.3649 14.9351 37.3649 15.0196ZM39.9836 11.8096L39.8992 11.6406C39.9837 11.5561 40.0681 11.5562 40.1526 11.5562C40.1526 11.5562 40.1526 11.6406 40.0681 11.6406C40.0681 11.7251 40.0681 11.7251 39.9836 11.8096ZM40.8284 9.52874H40.7439C40.7439 9.52874 40.7439 9.44426 40.8284 9.52874C40.8284 9.44426 40.8284 9.35978 40.8284 9.35978H40.9129C40.8284 9.44425 40.8284 9.44426 40.8284 9.52874ZM41.7576 8.59953C41.6732 8.59953 41.6731 8.5995 41.6731 8.51503C41.6731 8.51503 41.5887 8.51505 41.5887 8.43057C41.5887 8.3461 41.5887 8.26163 41.6731 8.17716C41.6731 8.17716 41.7576 8.17713 41.7576 8.09265C41.8421 8.09265 41.8421 8.17714 41.9266 8.26161C41.9266 8.26161 41.9266 8.34612 42.011 8.34612C42.011 8.34612 42.011 8.34612 42.0955 8.34612L42.011 8.43057C41.8421 8.59952 41.8421 8.59953 41.7576 8.59953ZM43.785 6.14974C43.7005 5.98079 43.7006 5.9808 43.8695 5.89633V5.98078C43.785 6.06526 43.785 6.06527 43.785 6.14974Z" fill="#FC307B"/>
</g>
<defs>
<clipPath id="clip0">
<rect width="74" height="63.863" fill="white"/>
</clipPath>
</defs>
</svg>
